<ttFont>
    <TTGlyph name=".notdef" xMin="0" yMin="0" xMax="0" yMax="0">
      <contour>
        <pt x="0" y="0" on="0"/>
      </contour>
    </TTGlyph>
    <TTGlyph name=".null" xMin="0" yMin="0" xMax="0" yMax="0">
      <contour>
        <pt x="0" y="0" on="0"/>
      </contour>
    </TTGlyph>
    <TTGlyph name="A" xMin="80" yMin="0" xMax="508" yMax="1393">
      <contour>
        <pt x="508" y="0" on="1"/>
        <pt x="433" y="0" on="1"/>
        <pt x="433" y="579" on="1"/>
        <pt x="155" y="579" on="1"/>
        <pt x="155" y="0" on="1"/>
        <pt x="80" y="0" on="1"/>
        <pt x="80" y="1102" on="1"/>
        <pt x="80" y="1152" on="0"/>
        <pt x="88" y="1256" on="0"/>
        <pt x="137" y="1340" on="0"/>
        <pt x="242" y="1393" on="0"/>
        <pt x="339" y="1393" on="1"/>
        <pt x="508" y="1393" on="1"/>
      </contour>
      <contour>
        <pt x="362" y="1326" on="1"/>
        <pt x="308" y="1326" on="0"/>
        <pt x="230" y="1308" on="0"/>
        <pt x="179" y="1265" on="0"/>
        <pt x="155" y="1191" on="0"/>
        <pt x="155" y="1135" on="1"/>
        <pt x="155" y="646" on="1"/>
        <pt x="433" y="646" on="1"/>
        <pt x="433" y="1326" on="1"/>
      </contour>
    </TTGlyph>
    <TTGlyph name="AE" xMin="70" yMin="0" xMax="859" yMax="1393">
      <contour>
        <pt x="514" y="788" on="1"/>
        <pt x="721" y="788" on="1"/>
        <pt x="721" y="721" on="1"/>
        <pt x="514" y="721" on="1"/>
        <pt x="514" y="67" on="1"/>
        <pt x="859" y="67" on="1"/>
        <pt x="859" y="0" on="1"/>
        <pt x="438" y="0" on="1"/>
        <pt x="438" y="579" on="1"/>
        <pt x="145" y="579" on="1"/>
        <pt x="145" y="0" on="1"/>
        <pt x="70" y="0" on="1"/>
        <pt x="70" y="1102" on="1"/>
        <pt x="70" y="1152" on="0"/>
        <pt x="78" y="1256" on="0"/>
        <pt x="127" y="1340" on="0"/>
        <pt x="232" y="1393" on="0"/>
        <pt x="329" y="1393" on="1"/>
        <pt x="859" y="1393" on="1"/>
        <pt x="859" y="1326" on="1"/>
        <pt x="514" y="1326" on="1"/>
      </contour>
      <contour>
        <pt x="352" y="1326" on="1"/>
        <pt x="298" y="1326" on="0"/>
        <pt x="220" y="1308" on="0"/>
        <pt x="169" y="1265" on="0"/>
        <pt x="145" y="1191" on="0"/>
        <pt x="145" y="1135" on="1"/>
        <pt x="145" y="647" on="1"/>
        <pt x="438" y="647" on="1"/>
        <pt x="438" y="1326" on="1"/>
      </contour>
    </TTGlyph>
    <TTGlyph name="Aacute" xMin="71" yMin="0" xMax="499" yMax="1767">
      <component glyphName="A" x="-9" y="0" flags="0x4"/>
      <component glyphName="acute" x="137" y="374" flags="0x4"/>
    </TTGlyph>
    <TTGlyph name="Acircumflex" xMin="71" yMin="0" xMax="499" yMax="1767">
      <component glyphName="A" x="-9" y="0" flags="0x4"/>
      <component glyphName="circumflex.lc" x="53" y="374" flags="0x4"/>
    </TTGlyph>
    <TTGlyph name="Adieresis" xMin="71" yMin="0" xMax="499" yMax="1641">
      <component glyphName="A" x="-9" y="0" flags="0x4"/>
      <component glyphName="dieresis" x="37" y="348" flags="0x4"/>
    </TTGlyph>
    <TTGlyph name="Agrave" xMin="71" yMin="0" xMax="499" yMax="1767">
      <component glyphName="A" x="-9" y="0" flags="0x4"/>
      <component glyphName="grave" x="84" y="374" flags="0x4"/>
    </TTGlyph>
    <TTGlyph name="Aring" xMin="71" yMin="17" xMax="499" yMax="1751">
      <component glyphName="A" x="-9" y="17" flags="0x4"/>
      <component glyphName="ring" x="103" y="350" flags="0x4"/>
    </TTGlyph>
    <TTGlyph name="Atilde" xMin="81" yMin="0" xMax="542" yMax="1761">
      <component glyphName="A" x="8" y="0" flags="0x4"/>
      <component glyphName="tilde" x="-19" y="348" flags="0x4"/>
    </TTGlyph>
    <TTGlyph name="B" xMin="80" yMin="0" xMax="524" yMax="1393">
      <contour>
        <pt x="524" y="967" on="1"/>
        <pt x="524" y="881" on="0"/>
        <pt x="465" y="776" on="0"/>
        <pt x="425" y="752" on="1"/>
        <pt x="443" y="739" on="0"/>
        <pt x="479" y="705" on="0"/>
        <pt x="507" y="655" on="0"/>
        <pt x="524" y="586" on="0"/>
        <pt x="524" y="539" on="1"/>
        <pt x="524" y="291" on="1"/>
        <pt x="524" y="258" on="0"/>
        <pt x="522" y="189" on="0"/>
        <pt x="507" y="124" on="0"/>
        <pt x="476" y="67" on="0"/>
        <pt x="418" y="25" on="0"/>
        <pt x="330" y="0" on="0"/>
        <pt x="265" y="0" on="1"/>
        <pt x="80" y="0" on="1"/>
        <pt x="80" y="1102" on="1"/>
        <pt x="80" y="1135" on="0"/>
        <pt x="83" y="1205" on="0"/>
        <pt x="97" y="1269" on="0"/>
        <pt x="129" y="1326" on="0"/>
        <pt x="186" y="1369" on="0"/>
        <pt x="275" y="1393" on="0"/>
        <pt x="340" y="1393" on="1"/>
        <pt x="524" y="1393" on="1"/>
      </contour>
      <contour>
        <pt x="155" y="721" on="1"/>
        <pt x="155" y="67" on="1"/>
        <pt x="243" y="67" on="1"/>
        <pt x="297" y="67" on="0"/>
        <pt x="374" y="85" on="0"/>
        <pt x="425" y="129" on="0"/>
        <pt x="449" y="203" on="0"/>
        <pt x="449" y="259" on="1"/>
        <pt x="449" y="529" on="1"/>
        <pt x="449" y="633" on="0"/>
        <pt x="374" y="721" on="0"/>
        <pt x="299" y="721" on="1"/>
      </contour>
      <contour>
        <pt x="299" y="788" on="1"/>
        <pt x="377" y="788" on="0"/>
        <pt x="449" y="886" on="0"/>
        <pt x="449" y="980" on="1"/>
        <pt x="449" y="1326" on="1"/>
        <pt x="361" y="1326" on="1"/>
        <pt x="308" y="1326" on="0"/>
        <pt x="230" y="1308" on="0"/>
        <pt x="179" y="1265" on="0"/>
        <pt x="155" y="1191" on="0"/>
        <pt x="155" y="1135" on="1"/>
        <pt x="155" y="788" on="1"/>
      </contour>
    </TTGlyph>
    <TTGlyph name="C" xMin="70" yMin="-20" xMax="513" yMax="1394">
      <contour>
        <pt x="438" y="991" on="1"/>
        <pt x="438" y="1327" on="1"/>
        <pt x="351" y="1327" on="1"/>
        <pt x="297" y="1327" on="0"/>
        <pt x="219" y="1310" on="0"/>
        <pt x="169" y="1267" on="0"/>
        <pt x="145" y="1193" on="0"/>
        <pt x="145" y="1137" on="1"/>
        <pt x="145" y="243" on="1"/>
        <pt x="145" y="201" on="0"/>
        <pt x="162" y="130" on="0"/>
        <pt x="199" y="77" on="0"/>
        <pt x="258" y="47" on="0"/>
        <pt x="300" y="47" on="1"/>
        <pt x="369" y="47" on="0"/>
        <pt x="438" y="127" on="0"/>
        <pt x="438" y="202" on="1"/>
        <pt x="438" y="383" on="1"/>
        <pt x="513" y="383" on="1"/>
        <pt x="513" y="201" on="1"/>
        <pt x="513" y="98" on="0"/>
        <pt x="407" y="-20" on="0"/>
        <pt x="302" y="-20" on="1"/>
        <pt x="239" y="-20" on="0"/>
        <pt x="150" y="22" on="0"/>
        <pt x="95" y="93" on="0"/>
        <pt x="70" y="189" on="0"/>
        <pt x="70" y="243" on="1"/>
        <pt x="70" y="1103" on="1"/>
        <pt x="70" y="1136" on="0"/>
        <pt x="72" y="1205" on="0"/>
        <pt x="87" y="1270" on="0"/>
        <pt x="118" y="1327" on="0"/>
        <pt x="175" y="1369" on="0"/>
        <pt x="264" y="1394" on="0"/>
        <pt x="328" y="1394" on="1"/>
        <pt x="513" y="1394" on="1"/>
        <pt x="513" y="991" on="1"/>
      </contour>
    </TTGlyph>
    <TTGlyph name="Ccaron" xMin="70" yMin="-20" xMax="513" yMax="1766">
      <component glyphName="C" x="0" y="0" flags="0x204"/>
      <component glyphName="caron" x="17" y="373" flags="0x4"/>
    </TTGlyph>
    <TTGlyph name="Ccedilla" xMin="70" yMin="-444" xMax="513" yMax="1394">
      <contour>
        <pt x="276" y="-384" on="1"/>
        <pt x="316" y="-384" on="1"/>
        <pt x="354" y="-384" on="0"/>
        <pt x="400" y="-334" on="0"/>
        <pt x="400" y="-298" on="1"/>
        <pt x="400" y="-263" on="0"/>
        <pt x="356" y="-220" on="0"/>
        <pt x="324" y="-220" on="1"/>
        <pt x="258" y="-220" on="1"/>
        <pt x="258" y="-17" on="1"/>
        <pt x="207" y="-10" on="0"/>
        <pt x="135" y="36" on="0"/>
        <pt x="90" y="106" on="0"/>
        <pt x="70" y="194" on="0"/>
        <pt x="70" y="243" on="1"/>
        <pt x="70" y="1103" on="1"/>
        <pt x="70" y="1136" on="0"/>
        <pt x="72" y="1205" on="0"/>
        <pt x="87" y="1270" on="0"/>
        <pt x="118" y="1327" on="0"/>
        <pt x="175" y="1369" on="0"/>
        <pt x="264" y="1394" on="0"/>
        <pt x="328" y="1394" on="1"/>
        <pt x="513" y="1394" on="1"/>
        <pt x="513" y="991" on="1"/>
        <pt x="438" y="991" on="1"/>
        <pt x="438" y="1327" on="1"/>
        <pt x="351" y="1327" on="1"/>
        <pt x="297" y="1327" on="0"/>
        <pt x="219" y="1310" on="0"/>
        <pt x="169" y="1267" on="0"/>
        <pt x="145" y="1193" on="0"/>
        <pt x="145" y="1137" on="1"/>
        <pt x="145" y="243" on="1"/>
        <pt x="145" y="201" on="0"/>
        <pt x="162" y="130" on="0"/>
        <pt x="199" y="77" on="0"/>
        <pt x="258" y="47" on="0"/>
        <pt x="300" y="47" on="1"/>
        <pt x="369" y="47" on="0"/>
        <pt x="438" y="127" on="0"/>
        <pt x="438" y="202" on="1"/>
        <pt x="438" y="383" on="1"/>
        <pt x="513" y="383" on="1"/>
        <pt x="513" y="201" on="1"/>
        <pt x="513" y="107" on="0"/>
        <pt x="423" y="-9" on="0"/>
        <pt x="334" y="-18" on="1"/>
        <pt x="334" y="-160" on="1"/>
        <pt x="364" y="-161" on="0"/>
        <pt x="416" y="-183" on="0"/>
        <pt x="454" y="-220" on="0"/>
        <pt x="475" y="-271" on="0"/>
        <pt x="475" y="-300" on="1"/>
        <pt x="475" y="-333" on="0"/>
        <pt x="449" y="-386" on="0"/>
        <pt x="407" y="-424" on="0"/>
        <pt x="351" y="-444" on="0"/>
        <pt x="321" y="-444" on="1"/>
        <pt x="253" y="-444" on="1"/>
      </contour>
    </TTGlyph>
    <TTGlyph name="D" xMin="90" yMin="0" xMax="533" yMax="1393">
      <contour>
        <pt x="533" y="291" on="1"/>
        <pt x="533" y="258" on="0"/>
        <pt x="531" y="189" on="0"/>
        <pt x="516" y="124" on="0"/>
        <pt x="485" y="67" on="0"/>
        <pt x="428" y="25" on="0"/>
        <pt x="339" y="0" on="0"/>
        <pt x="275" y="0" on="1"/>
        <pt x="90" y="0" on="1"/>
        <pt x="90" y="1393" on="1"/>
        <pt x="275" y="1393" on="1"/>
        <pt x="339" y="1393" on="0"/>
        <pt x="428" y="1369" on="0"/>
        <pt x="485" y="1326" on="0"/>
        <pt x="516" y="1269" on="0"/>
        <pt x="531" y="1205" on="0"/>
        <pt x="533" y="1135" on="0"/>
        <pt x="533" y="1102" on="1"/>
      </contour>
      <contour>
        <pt x="458" y="1135" on="1"/>
        <pt x="458" y="1191" on="0"/>
        <pt x="434" y="1265" on="0"/>
        <pt x="384" y="1308" on="0"/>
        <pt x="307" y="1326" on="0"/>
        <pt x="253" y="1326" on="1"/>
        <pt x="165" y="1326" on="1"/>
        <pt x="165" y="67" on="1"/>
        <pt x="253" y="67" on="1"/>
        <pt x="307" y="67" on="0"/>
        <pt x="384" y="84" on="0"/>
        <pt x="434" y="127" on="0"/>
        <pt x="458" y="201" on="0"/>
        <pt x="458" y="257" on="1"/>
      </contour>
    </TTGlyph>
    <TTGlyph name="E" xMin="80" yMin="0" xMax="471" yMax="1393">
      <contour>
        <pt x="155" y="788" on="1"/>
        <pt x="447" y="788" on="1"/>
        <pt x="447" y="721" on="1"/>
        <pt x="155" y="721" on="1"/>
        <pt x="155" y="67" on="1"/>
        <pt x="471" y="67" on="1"/>
        <pt x="471" y="0" on="1"/>
        <pt x="80" y="0" on="1"/>
        <pt x="80" y="1102" on="1"/>
        <pt x="80" y="1135" on="0"/>
        <pt x="83" y="1205" on="0"/>
        <pt x="97" y="1269" on="0"/>
        <pt x="129" y="1326" on="0"/>
        <pt x="186" y="1369" on="0"/>
        <pt x="275" y="1393" on="0"/>
        <pt x="340" y="1393" on="1"/>
        <pt x="446" y="1393" on="1"/>
        <pt x="446" y="1326" on="1"/>
        <pt x="361" y="1326" on="1"/>
        <pt x="308" y="1326" on="0"/>
        <pt x="230" y="1308" on="0"/>
        <pt x="179" y="1265" on="0"/>
        <pt x="155" y="1191" on="0"/>
        <pt x="155" y="1135" on="1"/>
      </contour>
    </TTGlyph>
    <TTGlyph name="Eacute" xMin="80" yMin="0" xMax="471" yMax="1767">
      <component glyphName="E" x="0" y="0" flags="0x204"/>
      <component glyphName="acute" x="144" y="374" flags="0x4"/>
    </TTGlyph>
    <TTGlyph name="Ecircumflex" xMin="80" yMin="0" xMax="471" yMax="1767">
      <component glyphName="E" x="0" y="0" flags="0x204"/>
      <component glyphName="circumflex.lc" x="45" y="374" flags="0x4"/>
    </TTGlyph>
    <TTGlyph name="Edieresis" xMin="80" yMin="0" xMax="471" yMax="1642">
      <component glyphName="E" x="0" y="0" flags="0x204"/>
      <component glyphName="dieresis" x="7" y="349" flags="0x4"/>
    </TTGlyph>
    <TTGlyph name="Egrave" xMin="80" yMin="0" xMax="471" yMax="1767">
      <component glyphName="E" x="0" y="0" flags="0x204"/>
      <component glyphName="grave" x="78" y="374" flags="0x4"/>
    </TTGlyph>
    <TTGlyph name="Eth" xMin="9" yMin="0" xMax="568" yMax="1393">
      <contour>
        <pt x="9" y="731" on="1"/>
        <pt x="125" y="731" on="1"/>
        <pt x="125" y="1393" on="1"/>
        <pt x="310" y="1393" on="1"/>
        <pt x="374" y="1393" on="0"/>
        <pt x="463" y="1369" on="0"/>
        <pt x="520" y="1326" on="0"/>
        <pt x="551" y="1269" on="0"/>
        <pt x="566" y="1205" on="0"/>
        <pt x="568" y="1135" on="0"/>
        <pt x="568" y="1102" on="1"/>
        <pt x="568" y="291" on="1"/>
        <pt x="568" y="258" on="0"/>
        <pt x="566" y="189" on="0"/>
        <pt x="551" y="124" on="0"/>
        <pt x="520" y="67" on="0"/>
        <pt x="463" y="25" on="0"/>
        <pt x="374" y="0" on="0"/>
        <pt x="310" y="0" on="1"/>
        <pt x="125" y="0" on="1"/>
        <pt x="125" y="662" on="1"/>
        <pt x="9" y="662" on="1"/>
      </contour>
      <contour>
        <pt x="493" y="1135" on="1"/>
        <pt x="493" y="1191" on="0"/>
        <pt x="469" y="1265" on="0"/>
        <pt x="419" y="1308" on="0"/>
        <pt x="342" y="1326" on="0"/>
        <pt x="288" y="1326" on="1"/>
        <pt x="200" y="1326" on="1"/>
        <pt x="200" y="731" on="1"/>
        <pt x="332" y="731" on="1"/>
        <pt x="332" y="662" on="1"/>
        <pt x="200" y="662" on="1"/>
        <pt x="200" y="67" on="1"/>
        <pt x="288" y="67" on="1"/>
        <pt x="342" y="67" on="0"/>
        <pt x="419" y="84" on="0"/>
        <pt x="469" y="127" on="0"/>
        <pt x="493" y="201" on="0"/>
        <pt x="493" y="257" on="1"/>
      </contour>
    </TTGlyph>
    <TTGlyph name="Euro" xMin="15" yMin="-20" xMax="514" yMax="1209">
      <contour>
        <pt x="15" y="571" on="1"/>
        <pt x="105" y="571" on="1"/>
        <pt x="105" y="661" on="1"/>
        <pt x="15" y="661" on="1"/>
        <pt x="15" y="730" on="1"/>
        <pt x="105" y="730" on="1"/>
        <pt x="105" y="948" on="1"/>
        <pt x="105" y="1002" on="0"/>
        <pt x="130" y="1097" on="0"/>
        <pt x="186" y="1168" on="0"/>
        <pt x="273" y="1209" on="0"/>
        <pt x="336" y="1209" on="1"/>
        <pt x="396" y="1209" on="0"/>
        <pt x="485" y="1166" on="0"/>
        <pt x="514" y="1125" on="1"/>
        <pt x="461" y="1067" on="1"/>
        <pt x="437" y="1103" on="0"/>
        <pt x="372" y="1142" on="0"/>
        <pt x="334" y="1142" on="1"/>
        <pt x="292" y="1142" on="0"/>
        <pt x="234" y="1112" on="0"/>
        <pt x="197" y="1060" on="0"/>
        <pt x="181" y="989" on="0"/>
        <pt x="181" y="947" on="1"/>
        <pt x="181" y="730" on="1"/>
        <pt x="462" y="730" on="1"/>
        <pt x="462" y="661" on="1"/>
        <pt x="181" y="661" on="1"/>
        <pt x="181" y="571" on="1"/>
        <pt x="462" y="571" on="1"/>
        <pt x="462" y="503" on="1"/>
        <pt x="181" y="503" on="1"/>
        <pt x="181" y="243" on="1"/>
        <pt x="181" y="201" on="0"/>
        <pt x="197" y="130" on="0"/>
        <pt x="234" y="77" on="0"/>
        <pt x="292" y="48" on="0"/>
        <pt x="334" y="48" on="1"/>
        <pt x="413" y="48" on="0"/>
        <pt x="463" y="118" on="1"/>
        <pt x="514" y="65" on="1"/>
        <pt x="482" y="27" on="0"/>
        <pt x="396" y="-20" on="0"/>
        <pt x="336" y="-20" on="1"/>
        <pt x="273" y="-20" on="0"/>
        <pt x="186" y="22" on="0"/>
        <pt x="130" y="93" on="0"/>
        <pt x="105" y="188" on="0"/>
        <pt x="105" y="241" on="1"/>
        <pt x="105" y="503" on="1"/>
        <pt x="15" y="503" on="1"/>
      </contour>
    </TTGlyph>
    <TTGlyph name="F" xMin="80" yMin="0" xMax="471" yMax="1393">
      <contour>
        <pt x="80" y="1102" on="1"/>
        <pt x="80" y="1135" on="0"/>
        <pt x="83" y="1205" on="0"/>
        <pt x="97" y="1269" on="0"/>
        <pt x="129" y="1326" on="0"/>
        <pt x="186" y="1369" on="0"/>
        <pt x="275" y="1393" on="0"/>
        <pt x="340" y="1393" on="1"/>
        <pt x="471" y="1393" on="1"/>
        <pt x="471" y="1326" on="1"/>
        <pt x="361" y="1326" on="1"/>
        <pt x="307" y="1326" on="0"/>
        <pt x="230" y="1308" on="0"/>
        <pt x="179" y="1265" on="0"/>
        <pt x="155" y="1191" on="0"/>
        <pt x="155" y="1135" on="1"/>
        <pt x="155" y="757" on="1"/>
        <pt x="460" y="757" on="1"/>
        <pt x="460" y="690" on="1"/>
        <pt x="155" y="690" on="1"/>
        <pt x="155" y="0" on="1"/>
        <pt x="80" y="0" on="1"/>
      </contour>
    </TTGlyph>
    <TTGlyph name="G" xMin="70" yMin="-20" xMax="513" yMax="1393">
      <contour>
        <pt x="513" y="994" on="1"/>
        <pt x="438" y="994" on="1"/>
        <pt x="438" y="1326" on="1"/>
        <pt x="351" y="1326" on="1"/>
        <pt x="298" y="1326" on="0"/>
        <pt x="220" y="1308" on="0"/>
        <pt x="169" y="1265" on="0"/>
        <pt x="145" y="1191" on="0"/>
        <pt x="145" y="1135" on="1"/>
        <pt x="145" y="199" on="1"/>
        <pt x="145" y="166" on="0"/>
        <pt x="167" y="111" on="0"/>
        <pt x="205" y="70" on="0"/>
        <pt x="258" y="47" on="0"/>
        <pt x="290" y="47" on="1"/>
        <pt x="324" y="47" on="0"/>
        <pt x="378" y="71" on="0"/>
        <pt x="417" y="112" on="0"/>
        <pt x="438" y="167" on="0"/>
        <pt x="438" y="199" on="1"/>
        <pt x="438" y="657" on="1"/>
        <pt x="311" y="657" on="1"/>
        <pt x="311" y="724" on="1"/>
        <pt x="513" y="724" on="1"/>
        <pt x="513" y="198" on="1"/>
        <pt x="513" y="150" on="0"/>
        <pt x="478" y="70" on="0"/>
        <pt x="418" y="12" on="0"/>
        <pt x="337" y="-20" on="0"/>
        <pt x="291" y="-20" on="1"/>
        <pt x="243" y="-20" on="0"/>
        <pt x="162" y="14" on="0"/>
        <pt x="103" y="72" on="0"/>
        <pt x="70" y="152" on="0"/>
        <pt x="70" y="198" on="1"/>
        <pt x="70" y="1102" on="1"/>
        <pt x="70" y="1135" on="0"/>
        <pt x="73" y="1205" on="0"/>
        <pt x="87" y="1269" on="0"/>
        <pt x="119" y="1326" on="0"/>
        <pt x="176" y="1369" on="0"/>
        <pt x="265" y="1393" on="0"/>
        <pt x="330" y="1393" on="1"/>
        <pt x="513" y="1393" on="1"/>
      </contour>
    </TTGlyph>
    <TTGlyph name="H" xMin="90" yMin="0" xMax="533" yMax="1393">
      <contour>
        <pt x="533" y="0" on="1"/>
        <pt x="458" y="0" on="1"/>
        <pt x="458" y="721" on="1"/>
        <pt x="165" y="721" on="1"/>
        <pt x="165" y="0" on="1"/>
        <pt x="90" y="0" on="1"/>
        <pt x="90" y="1393" on="1"/>
        <pt x="165" y="1393" on="1"/>
        <pt x="165" y="788" on="1"/>
        <pt x="458" y="788" on="1"/>
        <pt x="458" y="1393" on="1"/>
        <pt x="533" y="1393" on="1"/>
      </contour>
    </TTGlyph>
    <TTGlyph name="I" xMin="90" yMin="0" xMax="165" yMax="1393">
      <contour>
        <pt x="90" y="1393" on="1"/>
        <pt x="165" y="1393" on="1"/>
        <pt x="165" y="0" on="1"/>
        <pt x="90" y="0" on="1"/>
      </contour>
    </TTGlyph>
    <TTGlyph name="Iacute" xMin="91" yMin="0" xMax="302" yMax="1767">
      <component glyphName="I" x="1" y="0" flags="0x4"/>
      <component glyphName="acute" x="-9" y="374" flags="0x4"/>
    </TTGlyph>
    <TTGlyph name="Icircumflex" xMin="31" yMin="0" xMax="354" yMax="1767">
      <component glyphName="I" x="74" y="0" flags="0x4"/>
      <component glyphName="circumflex.lc" x="-53" y="374" flags="0x4"/>
    </TTGlyph>
    <TTGlyph name="Idieresis" xMin="31" yMin="0" xMax="389" yMax="1667">
      <component glyphName="I" x="81" y="0" flags="0x4"/>
      <component glyphName="dieresis" x="-69" y="374" flags="0x4"/>
    </TTGlyph>
    <TTGlyph name="Igrave" xMin="11" yMin="0" xMax="222" yMax="1767">
      <component glyphName="I" x="57" y="0" flags="0x4"/>
      <component glyphName="grave" x="-89" y="374" flags="0x4"/>
    </TTGlyph>
    <TTGlyph name="J" xMin="-80" yMin="-272" xMax="186" yMax="1393">
      <contour>
        <pt x="-74" y="-204" on="1"/>
        <pt x="-66" y="-205" on="0"/>
        <pt x="-56" y="-205" on="0"/>
        <pt x="-51" y="-205" on="1"/>
        <pt x="-12" y="-205" on="0"/>
        <pt x="48" y="-185" on="0"/>
        <pt x="89" y="-138" on="0"/>
        <pt x="111" y="-60" on="0"/>
        <pt x="111" y="-2" on="1"/>
        <pt x="111" y="1393" on="1"/>
        <pt x="186" y="1393" on="1"/>
        <pt x="186" y="-6" on="1"/>
        <pt x="186" y="-32" on="0"/>
        <pt x="182" y="-92" on="0"/>
        <pt x="166" y="-151" on="0"/>
        <pt x="134" y="-205" on="0"/>
        <pt x="79" y="-247" on="0"/>
        <pt x="-3" y="-272" on="0"/>
        <pt x="-61" y="-272" on="1"/>
        <pt x="-80" y="-271" on="1"/>
      </contour>
    </TTGlyph>
    <TTGlyph name="K" xMin="90" yMin="0" xMax="562" yMax="1393">
      <contour>
        <pt x="534" y="1393" on="1"/>
        <pt x="534" y="1317" on="1"/>
        <pt x="534" y="1197" on="0"/>
        <pt x="519" y="1006" on="0"/>
        <pt x="488" y="853" on="0"/>
        <pt x="438" y="735" on="0"/>
        <pt x="403" y="689" on="1"/>
        <pt x="562" y="0" on="1"/>
        <pt x="482" y="0" on="1"/>
        <pt x="343" y="625" on="1"/>
        <pt x="306" y="593" on="0"/>
        <pt x="218" y="542" on="0"/>
        <pt x="165" y="520" on="1"/>
        <pt x="165" y="0" on="1"/>
        <pt x="90" y="0" on="1"/>
        <pt x="90" y="1393" on="1"/>
        <pt x="165" y="1393" on="1"/>
        <pt x="165" y="602" on="1"/>
        <pt x="193" y="614" on="0"/>
        <pt x="259" y="647" on="0"/>
        <pt x="324" y="703" on="0"/>
        <pt x="385" y="790" on="0"/>
        <pt x="431" y="921" on="0"/>
        <pt x="459" y="1106" on="0"/>
        <pt x="459" y="1232" on="1"/>
        <pt x="459" y="1393" on="1"/>
      </contour>
    </TTGlyph>
    <TTGlyph name="L" xMin="80" yMin="0" xMax="474" yMax="1413">
      <contour>
        <pt x="368" y="1346" on="1"/>
        <pt x="318" y="1346" on="0"/>
        <pt x="240" y="1328" on="0"/>
        <pt x="184" y="1284" on="0"/>
        <pt x="155" y="1210" on="0"/>
        <pt x="155" y="1155" on="1"/>
        <pt x="155" y="67" on="1"/>
        <pt x="474" y="67" on="1"/>
        <pt x="474" y="0" on="1"/>
        <pt x="80" y="0" on="1"/>
        <pt x="80" y="1122" on="1"/>
        <pt x="80" y="1155" on="0"/>
        <pt x="83" y="1224" on="0"/>
        <pt x="99" y="1289" on="0"/>
        <pt x="133" y="1346" on="0"/>
        <pt x="197" y="1388" on="0"/>
        <pt x="296" y="1413" on="0"/>
        <pt x="368" y="1413" on="1"/>
      </contour>
    </TTGlyph>
    <TTGlyph name="M" xMin="85" yMin="0" xMax="699" yMax="1393">
      <contour>
        <pt x="160" y="1311" on="1"/>
        <pt x="160" y="0" on="1"/>
        <pt x="85" y="0" on="1"/>
        <pt x="85" y="1393" on="1"/>
        <pt x="149" y="1393" on="1"/>
        <pt x="235" y="1349" on="0"/>
        <pt x="354" y="1227" on="0"/>
        <pt x="390" y="1130" on="1"/>
        <pt x="395" y="1130" on="1"/>
        <pt x="431" y="1227" on="0"/>
        <pt x="549" y="1349" on="0"/>
        <pt x="637" y="1393" on="1"/>
        <pt x="699" y="1393" on="1"/>
        <pt x="699" y="0" on="1"/>
        <pt x="624" y="0" on="1"/>
        <pt x="624" y="1311" on="1"/>
        <pt x="594" y="1299" on="0"/>
        <pt x="524" y="1235" on="0"/>
        <pt x="464" y="1135" on="0"/>
        <pt x="424" y="1001" on="0"/>
        <pt x="424" y="918" on="1"/>
        <pt x="424" y="893" on="1"/>
        <pt x="359" y="893" on="1"/>
        <pt x="359" y="918" on="1"/>
        <pt x="359" y="1001" on="0"/>
        <pt x="320" y="1135" on="0"/>
        <pt x="262" y="1234" on="0"/>
        <pt x="191" y="1298" on="0"/>
      </contour>
    </TTGlyph>
    <TTGlyph name="N" xMin="85" yMin="0" xMax="529" yMax="1393">
      <contour>
        <pt x="454" y="1130" on="1"/>
        <pt x="454" y="1393" on="1"/>
        <pt x="529" y="1393" on="1"/>
        <pt x="529" y="0" on="1"/>
        <pt x="454" y="0" on="1"/>
        <pt x="454" y="759" on="1"/>
        <pt x="454" y="880" on="0"/>
        <pt x="407" y="1064" on="0"/>
        <pt x="327" y="1198" on="0"/>
        <pt x="220" y="1286" on="0"/>
        <pt x="160" y="1311" on="1"/>
        <pt x="160" y="0" on="1"/>
        <pt x="85" y="0" on="1"/>
        <pt x="85" y="1393" on="1"/>
        <pt x="145" y="1393" on="1"/>
        <pt x="193" y="1378" on="0"/>
        <pt x="282" y="1329" on="0"/>
        <pt x="361" y="1262" on="0"/>
        <pt x="425" y="1179" on="0"/>
        <pt x="448" y="1130" on="1"/>
      </contour>
    </TTGlyph>
    <TTGlyph name="Ntilde" xMin="86" yMin="0" xMax="547" yMax="1762">
      <component glyphName="N" x="10" y="0" flags="0x4"/>
      <component glyphName="tilde" x="-14" y="349" flags="0x4"/>
    </TTGlyph>
    <TTGlyph name="O" xMin="65" yMin="-20" xMax="508" yMax="1412">
      <contour>
        <pt x="508" y="262" on="1"/>
        <pt x="508" y="207" on="0"/>
        <pt x="488" y="105" on="0"/>
        <pt x="437" y="27" on="0"/>
        <pt x="350" y="-20" on="0"/>
        <pt x="284" y="-20" on="1"/>
        <pt x="222" y="-20" on="0"/>
        <pt x="138" y="25" on="0"/>
        <pt x="87" y="101" on="0"/>
        <pt x="65" y="204" on="0"/>
        <pt x="65" y="262" on="1"/>
        <pt x="65" y="1121" on="1"/>
        <pt x="65" y="1154" on="0"/>
        <pt x="68" y="1224" on="0"/>
        <pt x="82" y="1288" on="0"/>
        <pt x="114" y="1345" on="0"/>
        <pt x="171" y="1388" on="0"/>
        <pt x="260" y="1412" on="0"/>
        <pt x="325" y="1412" on="1"/>
        <pt x="508" y="1412" on="1"/>
      </contour>
      <contour>
        <pt x="433" y="1345" on="1"/>
        <pt x="346" y="1345" on="1"/>
        <pt x="293" y="1345" on="0"/>
        <pt x="215" y="1327" on="0"/>
        <pt x="164" y="1284" on="0"/>
        <pt x="140" y="1210" on="0"/>
        <pt x="140" y="1154" on="1"/>
        <pt x="140" y="229" on="1"/>
        <pt x="140" y="193" on="0"/>
        <pt x="155" y="128" on="0"/>
        <pt x="190" y="77" on="0"/>
        <pt x="246" y="47" on="0"/>
        <pt x="288" y="47" on="1"/>
        <pt x="328" y="47" on="0"/>
        <pt x="383" y="76" on="0"/>
        <pt x="417" y="126" on="0"/>
        <pt x="433" y="192" on="0"/>
        <pt x="433" y="229" on="1"/>
      </contour>
    </TTGlyph>
    <TTGlyph name="OE" xMin="70" yMin="0" xMax="858" yMax="1393">
      <contour>
        <pt x="145" y="258" on="1"/>
        <pt x="145" y="202" on="0"/>
        <pt x="169" y="128" on="0"/>
        <pt x="220" y="85" on="0"/>
        <pt x="298" y="67" on="0"/>
        <pt x="351" y="67" on="1"/>
        <pt x="438" y="67" on="1"/>
        <pt x="438" y="1326" on="1"/>
        <pt x="351" y="1326" on="1"/>
        <pt x="298" y="1326" on="0"/>
        <pt x="220" y="1308" on="0"/>
        <pt x="169" y="1265" on="0"/>
        <pt x="145" y="1191" on="0"/>
        <pt x="145" y="1135" on="1"/>
      </contour>
      <contour>
        <pt x="70" y="1102" on="1"/>
        <pt x="70" y="1135" on="0"/>
        <pt x="73" y="1205" on="0"/>
        <pt x="87" y="1269" on="0"/>
        <pt x="119" y="1326" on="0"/>
        <pt x="176" y="1369" on="0"/>
        <pt x="265" y="1393" on="0"/>
        <pt x="330" y="1393" on="1"/>
        <pt x="858" y="1393" on="1"/>
        <pt x="858" y="1326" on="1"/>
        <pt x="513" y="1326" on="1"/>
        <pt x="513" y="788" on="1"/>
        <pt x="720" y="788" on="1"/>
        <pt x="720" y="721" on="1"/>
        <pt x="513" y="721" on="1"/>
        <pt x="513" y="67" on="1"/>
        <pt x="858" y="67" on="1"/>
        <pt x="858" y="0" on="1"/>
        <pt x="330" y="0" on="1"/>
        <pt x="265" y="0" on="0"/>
        <pt x="176" y="24" on="0"/>
        <pt x="119" y="67" on="0"/>
        <pt x="87" y="124" on="0"/>
        <pt x="73" y="188" on="0"/>
        <pt x="70" y="257" on="0"/>
        <pt x="70" y="291" on="1"/>
      </contour>
    </TTGlyph>
    <TTGlyph name="Oacute" xMin="70" yMin="-20" xMax="513" yMax="1767">
      <component glyphName="O" x="5" y="0" flags="0x4"/>
      <component glyphName="acute" x="144" y="374" flags="0x4"/>
    </TTGlyph>
    <TTGlyph name="Ocircumflex" xMin="70" yMin="-20" xMax="513" yMax="1767">
      <component glyphName="O" x="5" y="0" flags="0x4"/>
      <component glyphName="circumflex.lc" x="62" y="374" flags="0x4"/>
    </TTGlyph>
    <TTGlyph name="Odieresis" xMin="70" yMin="-20" xMax="513" yMax="1642">
      <component glyphName="O" x="5" y="0" flags="0x4"/>
      <component glyphName="dieresis" x="13" y="349" flags="0x4"/>
    </TTGlyph>
    <TTGlyph name="Ograve" xMin="70" yMin="-20" xMax="513" yMax="1767">
      <component glyphName="O" x="5" y="0" flags="0x4"/>
      <component glyphName="grave" x="109" y="374" flags="0x4"/>
    </TTGlyph>
    <TTGlyph name="Oslash" xMin="5" yMin="-20" xMax="867" yMax="1393">
      <contour>
        <pt x="5" y="105" on="1"/>
        <pt x="225" y="411" on="1"/>
        <pt x="225" y="1102" on="1"/>
        <pt x="225" y="1135" on="0"/>
        <pt x="228" y="1205" on="0"/>
        <pt x="242" y="1269" on="0"/>
        <pt x="274" y="1326" on="0"/>
        <pt x="331" y="1369" on="0"/>
        <pt x="420" y="1393" on="0"/>
        <pt x="485" y="1393" on="1"/>
        <pt x="668" y="1393" on="1"/>
        <pt x="668" y="1027" on="1"/>
        <pt x="832" y="1255" on="1"/>
        <pt x="867" y="1220" on="1"/>
        <pt x="668" y="943" on="1"/>
        <pt x="668" y="262" on="1"/>
        <pt x="668" y="207" on="0"/>
        <pt x="648" y="105" on="0"/>
        <pt x="597" y="27" on="0"/>
        <pt x="510" y="-20" on="0"/>
        <pt x="444" y="-20" on="1"/>
        <pt x="382" y="-20" on="0"/>
        <pt x="298" y="25" on="0"/>
        <pt x="247" y="101" on="0"/>
        <pt x="225" y="204" on="0"/>
        <pt x="225" y="262" on="1"/>
        <pt x="225" y="327" on="1"/>
        <pt x="40" y="70" on="1"/>
      </contour>
      <contour>
        <pt x="300" y="515" on="1"/>
        <pt x="593" y="923" on="1"/>
        <pt x="593" y="1326" on="1"/>
        <pt x="506" y="1326" on="1"/>
        <pt x="453" y="1326" on="0"/>
        <pt x="375" y="1308" on="0"/>
        <pt x="324" y="1265" on="0"/>
        <pt x="300" y="1191" on="0"/>
        <pt x="300" y="1135" on="1"/>
      </contour>
      <contour>
        <pt x="593" y="839" on="1"/>
        <pt x="300" y="432" on="1"/>
        <pt x="300" y="229" on="1"/>
        <pt x="300" y="193" on="0"/>
        <pt x="315" y="128" on="0"/>
        <pt x="350" y="77" on="0"/>
        <pt x="406" y="47" on="0"/>
        <pt x="448" y="47" on="1"/>
        <pt x="488" y="47" on="0"/>
        <pt x="543" y="76" on="0"/>
        <pt x="577" y="126" on="0"/>
        <pt x="593" y="192" on="0"/>
        <pt x="593" y="229" on="1"/>
      </contour>
    </TTGlyph>
    <TTGlyph name="Otilde" xMin="66" yMin="-20" xMax="527" yMax="1761">
      <component glyphName="O" x="5" y="0" flags="0x4"/>
      <component glyphName="tilde" x="-34" y="348" flags="0x4"/>
    </TTGlyph>
    <TTGlyph name="P" xMin="80" yMin="0" xMax="524" yMax="1393">
      <contour>
        <pt x="524" y="1317" on="1"/>
        <pt x="524" y="1125" on="0"/>
        <pt x="486" y="860" on="0"/>
        <pt x="399" y="679" on="0"/>
        <pt x="258" y="563" on="0"/>
        <pt x="155" y="520" on="1"/>
        <pt x="155" y="0" on="1"/>
        <pt x="80" y="0" on="1"/>
        <pt x="80" y="1102" on="1"/>
        <pt x="80" y="1152" on="0"/>
        <pt x="89" y="1256" on="0"/>
        <pt x="138" y="1340" on="0"/>
        <pt x="244" y="1393" on="0"/>
        <pt x="341" y="1393" on="1"/>
        <pt x="524" y="1393" on="1"/>
      </contour>
      <contour>
        <pt x="155" y="597" on="1"/>
        <pt x="183" y="609" on="0"/>
        <pt x="249" y="643" on="0"/>
        <pt x="314" y="700" on="0"/>
        <pt x="375" y="788" on="0"/>
        <pt x="421" y="921" on="0"/>
        <pt x="449" y="1106" on="0"/>
        <pt x="449" y="1232" on="1"/>
        <pt x="449" y="1326" on="1"/>
        <pt x="361" y="1326" on="1"/>
        <pt x="308" y="1326" on="0"/>
        <pt x="230" y="1308" on="0"/>
        <pt x="179" y="1265" on="0"/>
        <pt x="155" y="1191" on="0"/>
        <pt x="155" y="1135" on="1"/>
      </contour>
    </TTGlyph>
    <TTGlyph name="Q" xMin="70" yMin="-272" xMax="513" yMax="1393">
      <contour>
        <pt x="513" y="262" on="1"/>
        <pt x="513" y="210" on="0"/>
        <pt x="495" y="113" on="0"/>
        <pt x="451" y="37" on="0"/>
        <pt x="375" y="-13" on="0"/>
        <pt x="318" y="-18" on="1"/>
        <pt x="324" y="-56" on="0"/>
        <pt x="348" y="-124" on="0"/>
        <pt x="393" y="-175" on="0"/>
        <pt x="462" y="-206" on="0"/>
        <pt x="512" y="-207" on="1"/>
        <pt x="509" y="-272" on="1"/>
        <pt x="444" y="-272" on="0"/>
        <pt x="351" y="-224" on="0"/>
        <pt x="287" y="-150" on="0"/>
        <pt x="250" y="-59" on="0"/>
        <pt x="243" y="-16" on="1"/>
        <pt x="195" y="-8" on="0"/>
        <pt x="128" y="41" on="0"/>
        <pt x="88" y="115" on="0"/>
        <pt x="70" y="209" on="0"/>
        <pt x="70" y="262" on="1"/>
        <pt x="70" y="1102" on="1"/>
        <pt x="70" y="1135" on="0"/>
        <pt x="73" y="1205" on="0"/>
        <pt x="87" y="1269" on="0"/>
        <pt x="119" y="1326" on="0"/>
        <pt x="176" y="1369" on="0"/>
        <pt x="265" y="1393" on="0"/>
        <pt x="330" y="1393" on="1"/>
        <pt x="513" y="1393" on="1"/>
      </contour>
      <contour>
        <pt x="438" y="1326" on="1"/>
        <pt x="351" y="1326" on="1"/>
        <pt x="298" y="1326" on="0"/>
        <pt x="220" y="1308" on="0"/>
        <pt x="169" y="1265" on="0"/>
        <pt x="145" y="1191" on="0"/>
        <pt x="145" y="1135" on="1"/>
        <pt x="145" y="229" on="1"/>
        <pt x="145" y="193" on="0"/>
        <pt x="160" y="128" on="0"/>
        <pt x="195" y="77" on="0"/>
        <pt x="251" y="47" on="0"/>
        <pt x="293" y="47" on="1"/>
        <pt x="333" y="47" on="0"/>
        <pt x="388" y="76" on="0"/>
        <pt x="422" y="126" on="0"/>
        <pt x="438" y="192" on="0"/>
        <pt x="438" y="229" on="1"/>
      </contour>
    </TTGlyph>
    <TTGlyph name="R" xMin="80" yMin="0" xMax="551" yMax="1393">
      <contour>
        <pt x="523" y="1317" on="1"/>
        <pt x="523" y="1197" on="0"/>
        <pt x="508" y="1006" on="0"/>
        <pt x="477" y="853" on="0"/>
        <pt x="427" y="735" on="0"/>
        <pt x="392" y="689" on="1"/>
        <pt x="396" y="673" on="0"/>
        <pt x="413" y="596" on="0"/>
        <pt x="437" y="493" on="0"/>
        <pt x="465" y="372" on="0"/>
        <pt x="493" y="251" on="0"/>
        <pt x="519" y="139" on="0"/>
        <pt x="539" y="52" on="0"/>
        <pt x="551" y="0" on="1"/>
        <pt x="471" y="0" on="1"/>
        <pt x="332" y="625" on="1"/>
        <pt x="295" y="593" on="0"/>
        <pt x="207" y="542" on="0"/>
        <pt x="154" y="520" on="1"/>
        <pt x="154" y="0" on="1"/>
        <pt x="80" y="0" on="1"/>
        <pt x="80" y="1102" on="1"/>
        <pt x="80" y="1135" on="0"/>
        <pt x="83" y="1205" on="0"/>
        <pt x="97" y="1269" on="0"/>
        <pt x="129" y="1326" on="0"/>
        <pt x="186" y="1369" on="0"/>
        <pt x="275" y="1393" on="0"/>
        <pt x="340" y="1393" on="1"/>
        <pt x="523" y="1393" on="1"/>
      </contour>
      <contour>
        <pt x="154" y="602" on="1"/>
        <pt x="182" y="614" on="0"/>
        <pt x="248" y="647" on="0"/>
        <pt x="313" y="703" on="0"/>
        <pt x="374" y="790" on="0"/>
        <pt x="420" y="921" on="0"/>
        <pt x="448" y="1106" on="0"/>
        <pt x="448" y="1232" on="1"/>
        <pt x="448" y="1326" on="1"/>
        <pt x="360" y="1326" on="1"/>
        <pt x="307" y="1326" on="0"/>
        <pt x="229" y="1308" on="0"/>
        <pt x="178" y="1265" on="0"/>
        <pt x="154" y="1191" on="0"/>
        <pt x="154" y="1135" on="1"/>
      </contour>
    </TTGlyph>
    <TTGlyph name="S" xMin="60" yMin="-20" xMax="503" yMax="1413">
      <contour>
        <pt x="135" y="199" on="1"/>
        <pt x="135" y="166" on="0"/>
        <pt x="157" y="111" on="0"/>
        <pt x="195" y="70" on="0"/>
        <pt x="248" y="47" on="0"/>
        <pt x="280" y="47" on="1"/>
        <pt x="314" y="47" on="0"/>
        <pt x="368" y="71" on="0"/>
        <pt x="407" y="112" on="0"/>
        <pt x="428" y="167" on="0"/>
        <pt x="428" y="199" on="1"/>
        <pt x="428" y="539" on="1"/>
        <pt x="428" y="574" on="0"/>
        <pt x="400" y="636" on="0"/>
        <pt x="353" y="694" on="0"/>
        <pt x="293" y="748" on="0"/>
        <pt x="262" y="774" on="1"/>
        <pt x="225" y="805" on="0"/>
        <pt x="152" y="869" on="0"/>
        <pt x="95" y="941" on="0"/>
        <pt x="60" y="1023" on="0"/>
        <pt x="60" y="1073" on="1"/>
        <pt x="60" y="1195" on="1"/>
        <pt x="60" y="1243" on="0"/>
        <pt x="95" y="1324" on="0"/>
        <pt x="155" y="1381" on="0"/>
        <pt x="236" y="1413" on="0"/>
        <pt x="281" y="1413" on="1"/>
        <pt x="329" y="1413" on="0"/>
        <pt x="410" y="1379" on="0"/>
        <pt x="470" y="1320" on="0"/>
        <pt x="503" y="1241" on="0"/>
        <pt x="503" y="1195" on="1"/>
        <pt x="503" y="990" on="1"/>
        <pt x="428" y="990" on="1"/>
        <pt x="428" y="1194" on="1"/>
        <pt x="428" y="1227" on="0"/>
        <pt x="406" y="1282" on="0"/>
        <pt x="368" y="1323" on="0"/>
        <pt x="314" y="1346" on="0"/>
        <pt x="283" y="1346" on="1"/>
        <pt x="249" y="1346" on="0"/>
        <pt x="194" y="1322" on="0"/>
        <pt x="156" y="1281" on="0"/>
        <pt x="135" y="1226" on="0"/>
        <pt x="135" y="1194" on="1"/>
        <pt x="135" y="1073" on="1"/>
        <pt x="135" y="1036" on="0"/>
        <pt x="165" y="971" on="0"/>
        <pt x="214" y="912" on="0"/>
        <pt x="276" y="858" on="0"/>
        <pt x="308" y="831" on="1"/>
        <pt x="344" y="801" on="0"/>
        <pt x="414" y="737" on="0"/>
        <pt x="469" y="665" on="0"/>
        <pt x="503" y="585" on="0"/>
        <pt x="503" y="539" on="1"/>
        <pt x="503" y="198" on="1"/>
        <pt x="503" y="150" on="0"/>
        <pt x="468" y="70" on="0"/>
        <pt x="408" y="12" on="0"/>
        <pt x="327" y="-20" on="0"/>
        <pt x="281" y="-20" on="1"/>
        <pt x="233" y="-20" on="0"/>
        <pt x="152" y="14" on="0"/>
        <pt x="93" y="72" on="0"/>
        <pt x="60" y="152" on="0"/>
        <pt x="60" y="198" on="1"/>
        <pt x="60" y="414" on="1"/>
        <pt x="135" y="414" on="1"/>
      </contour>
    </TTGlyph>
    <TTGlyph name="Scaron" xMin="60" yMin="-20" xMax="503" yMax="1766">
      <component glyphName="S" x="0" y="0" flags="0x204"/>
      <component glyphName="caron" x="20" y="373" flags="0x4"/>
    </TTGlyph>
    <TTGlyph name="Scaron.001" xMin="60" yMin="-20" xMax="503" yMax="1767">
      <component glyphName="caron" x="16" y="374" flags="0x4"/>
      <component glyphName="S" x="0" y="0" flags="0x4"/>
    </TTGlyph>
    <TTGlyph name="T" xMin="5" yMin="0" xMax="451" yMax="1393">
      <contour>
        <pt x="451" y="1393" on="1"/>
        <pt x="451" y="1326" on="1"/>
        <pt x="266" y="1326" on="1"/>
        <pt x="266" y="0" on="1"/>
        <pt x="191" y="0" on="1"/>
        <pt x="191" y="1326" on="1"/>
        <pt x="5" y="1326" on="1"/>
        <pt x="5" y="1393" on="1"/>
      </contour>
    </TTGlyph>
    <TTGlyph name="Thorn" xMin="90" yMin="0" xMax="466" yMax="1566">
      <contour>
        <pt x="90" y="0" on="1"/>
        <pt x="90" y="1566" on="1"/>
        <pt x="167" y="1566" on="1"/>
        <pt x="167" y="1439" on="1"/>
        <pt x="233" y="1434" on="0"/>
        <pt x="343" y="1386" on="0"/>
        <pt x="422" y="1300" on="0"/>
        <pt x="466" y="1179" on="0"/>
        <pt x="466" y="1102" on="1"/>
        <pt x="466" y="1023" on="0"/>
        <pt x="417" y="886" on="0"/>
        <pt x="334" y="783" on="0"/>
        <pt x="225" y="721" on="0"/>
        <pt x="165" y="717" on="1"/>
        <pt x="167" y="717" on="1"/>
        <pt x="167" y="0" on="1"/>
      </contour>
      <contour>
        <pt x="389" y="1102" on="1"/>
        <pt x="389" y="1231" on="0"/>
        <pt x="276" y="1367" on="0"/>
        <pt x="167" y="1373" on="1"/>
        <pt x="167" y="783" on="1"/>
        <pt x="215" y="787" on="0"/>
        <pt x="296" y="842" on="0"/>
        <pt x="356" y="929" on="0"/>
        <pt x="389" y="1040" on="0"/>
      </contour>
    </TTGlyph>
    <TTGlyph name="U" xMin="80" yMin="-20" xMax="523" yMax="1393">
      <contour>
        <pt x="523" y="262" on="1"/>
        <pt x="523" y="207" on="0"/>
        <pt x="503" y="105" on="0"/>
        <pt x="452" y="27" on="0"/>
        <pt x="365" y="-20" on="0"/>
        <pt x="299" y="-20" on="1"/>
        <pt x="237" y="-20" on="0"/>
        <pt x="153" y="25" on="0"/>
        <pt x="102" y="101" on="0"/>
        <pt x="80" y="204" on="0"/>
        <pt x="80" y="262" on="1"/>
        <pt x="80" y="1393" on="1"/>
        <pt x="155" y="1393" on="1"/>
        <pt x="155" y="229" on="1"/>
        <pt x="155" y="193" on="0"/>
        <pt x="170" y="128" on="0"/>
        <pt x="205" y="77" on="0"/>
        <pt x="261" y="47" on="0"/>
        <pt x="303" y="47" on="1"/>
        <pt x="343" y="47" on="0"/>
        <pt x="398" y="76" on="0"/>
        <pt x="432" y="126" on="0"/>
        <pt x="448" y="192" on="0"/>
        <pt x="448" y="229" on="1"/>
        <pt x="448" y="1393" on="1"/>
        <pt x="523" y="1393" on="1"/>
      </contour>
    </TTGlyph>
    <TTGlyph name="Uacute" xMin="71" yMin="-20" xMax="514" yMax="1767">
      <component glyphName="U" x="-9" y="0" flags="0x204"/>
      <component glyphName="acute" x="142" y="374" flags="0x4"/>
    </TTGlyph>
    <TTGlyph name="Ucircumflex" xMin="71" yMin="-20" xMax="514" yMax="1767">
      <component glyphName="U" x="-9" y="0" flags="0x204"/>
      <component glyphName="circumflex.lc" x="38" y="374" flags="0x4"/>
    </TTGlyph>
    <TTGlyph name="Udieresis" xMin="71" yMin="-20" xMax="514" yMax="1642">
      <component glyphName="U" x="-9" y="0" flags="0x204"/>
      <component glyphName="dieresis" x="10" y="349" flags="0x4"/>
    </TTGlyph>
    <TTGlyph name="Ugrave" xMin="71" yMin="-20" xMax="514" yMax="1767">
      <component glyphName="U" x="-9" y="0" flags="0x204"/>
      <component glyphName="grave" x="107" y="374" flags="0x4"/>
    </TTGlyph>
    <TTGlyph name="V" xMin="85" yMin="0" xMax="529" yMax="1393">
      <contour>
        <pt x="160" y="82" on="1"/>
        <pt x="188" y="94" on="0"/>
        <pt x="254" y="129" on="0"/>
        <pt x="319" y="189" on="0"/>
        <pt x="380" y="279" on="0"/>
        <pt x="426" y="414" on="0"/>
        <pt x="454" y="601" on="0"/>
        <pt x="454" y="727" on="1"/>
        <pt x="454" y="1393" on="1"/>
        <pt x="529" y="1393" on="1"/>
        <pt x="529" y="812" on="1"/>
        <pt x="529" y="682" on="0"/>
        <pt x="512" y="476" on="0"/>
        <pt x="474" y="315" on="0"/>
        <pt x="414" y="193" on="0"/>
        <pt x="329" y="99" on="0"/>
        <pt x="216" y="28" on="0"/>
        <pt x="145" y="0" on="1"/>
        <pt x="85" y="0" on="1"/>
        <pt x="85" y="1393" on="1"/>
        <pt x="160" y="1393" on="1"/>
      </contour>
    </TTGlyph>
    <TTGlyph name="W" xMin="85" yMin="0" xMax="816" yMax="1393">
      <contour>
        <pt x="488" y="82" on="1"/>
        <pt x="511" y="94" on="0"/>
        <pt x="567" y="129" on="0"/>
        <pt x="623" y="187" on="0"/>
        <pt x="676" y="277" on="0"/>
        <pt x="717" y="412" on="0"/>
        <pt x="741" y="600" on="0"/>
        <pt x="741" y="727" on="1"/>
        <pt x="741" y="1393" on="1"/>
        <pt x="816" y="1393" on="1"/>
        <pt x="816" y="812" on="1"/>
        <pt x="816" y="681" on="0"/>
        <pt x="801" y="475" on="0"/>
        <pt x="767" y="313" on="0"/>
        <pt x="714" y="190" on="0"/>
        <pt x="638" y="97" on="0"/>
        <pt x="538" y="28" on="0"/>
        <pt x="475" y="0" on="1"/>
        <pt x="417" y="0" on="1"/>
        <pt x="417" y="253" on="1"/>
        <pt x="413" y="253" on="1"/>
        <pt x="393" y="206" on="0"/>
        <pt x="340" y="131" on="0"/>
        <pt x="274" y="70" on="0"/>
        <pt x="195" y="21" on="0"/>
        <pt x="147" y="0" on="1"/>
        <pt x="85" y="0" on="1"/>
        <pt x="85" y="1393" on="1"/>
        <pt x="160" y="1393" on="1"/>
        <pt x="160" y="82" on="1"/>
        <pt x="200" y="99" on="0"/>
        <pt x="290" y="176" on="0"/>
        <pt x="367" y="296" on="0"/>
        <pt x="417" y="458" on="0"/>
        <pt x="417" y="560" on="1"/>
        <pt x="417" y="1393" on="1"/>
        <pt x="488" y="1393" on="1"/>
      </contour>
    </TTGlyph>
    <TTGlyph name="X" xMin="15" yMin="0" xMax="502" yMax="1393">
      <contour>
        <pt x="502" y="1214" on="1"/>
        <pt x="502" y="1095" on="0"/>
        <pt x="474" y="928" on="0"/>
        <pt x="425" y="806" on="0"/>
        <pt x="360" y="717" on="0"/>
        <pt x="323" y="676" on="1"/>
        <pt x="353" y="639" on="0"/>
        <pt x="406" y="553" on="0"/>
        <pt x="444" y="438" on="0"/>
        <pt x="466" y="285" on="0"/>
        <pt x="466" y="181" on="1"/>
        <pt x="466" y="0" on="1"/>
        <pt x="391" y="0" on="1"/>
        <pt x="391" y="178" on="1"/>
        <pt x="391" y="277" on="0"/>
        <pt x="366" y="430" on="0"/>
        <pt x="325" y="548" on="0"/>
        <pt x="270" y="634" on="0"/>
        <pt x="240" y="664" on="1"/>
        <pt x="210" y="634" on="0"/>
        <pt x="156" y="547" on="0"/>
        <pt x="114" y="428" on="0"/>
        <pt x="90" y="275" on="0"/>
        <pt x="90" y="178" on="1"/>
        <pt x="90" y="0" on="1"/>
        <pt x="15" y="0" on="1"/>
        <pt x="15" y="184" on="1"/>
        <pt x="15" y="309" on="0"/>
        <pt x="43" y="477" on="0"/>
        <pt x="92" y="594" on="0"/>
        <pt x="157" y="676" on="0"/>
        <pt x="194" y="717" on="1"/>
        <pt x="164" y="753" on="0"/>
        <pt x="111" y="833" on="0"/>
        <pt x="73" y="946" on="0"/>
        <pt x="51" y="1101" on="0"/>
        <pt x="51" y="1211" on="1"/>
        <pt x="51" y="1393" on="1"/>
        <pt x="126" y="1393" on="1"/>
        <pt x="126" y="1217" on="1"/>
        <pt x="126" y="1120" on="0"/>
        <pt x="150" y="966" on="0"/>
        <pt x="192" y="848" on="0"/>
        <pt x="246" y="761" on="0"/>
        <pt x="276" y="731" on="1"/>
        <pt x="306" y="761" on="0"/>
        <pt x="361" y="847" on="0"/>
        <pt x="402" y="965" on="0"/>
        <pt x="427" y="1118" on="0"/>
        <pt x="427" y="1217" on="1"/>
        <pt x="427" y="1393" on="1"/>
        <pt x="502" y="1393" on="1"/>
      </contour>
    </TTGlyph>
    <TTGlyph name="Y" xMin="10" yMin="2" xMax="461" yMax="1393">
      <contour>
        <pt x="274" y="2" on="1"/>
        <pt x="199" y="2" on="1"/>
        <pt x="199" y="667" on="1"/>
        <pt x="160" y="709" on="0"/>
        <pt x="92" y="793" on="0"/>
        <pt x="40" y="911" on="0"/>
        <pt x="10" y="1082" on="0"/>
        <pt x="10" y="1211" on="1"/>
        <pt x="10" y="1393" on="1"/>
        <pt x="85" y="1393" on="1"/>
        <pt x="85" y="1217" on="1"/>
        <pt x="85" y="1120" on="0"/>
        <pt x="109" y="967" on="0"/>
        <pt x="151" y="850" on="0"/>
        <pt x="205" y="764" on="0"/>
        <pt x="235" y="734" on="1"/>
        <pt x="265" y="764" on="0"/>
        <pt x="320" y="849" on="0"/>
        <pt x="361" y="966" on="0"/>
        <pt x="386" y="1118" on="0"/>
        <pt x="386" y="1217" on="1"/>
        <pt x="386" y="1393" on="1"/>
        <pt x="461" y="1393" on="1"/>
        <pt x="461" y="1214" on="1"/>
        <pt x="461" y="1092" on="0"/>
        <pt x="431" y="922" on="0"/>
        <pt x="380" y="799" on="0"/>
        <pt x="312" y="709" on="0"/>
        <pt x="274" y="667" on="1"/>
      </contour>
    </TTGlyph>
    <TTGlyph name="Yacute" xMin="10" yMin="2" xMax="461" yMax="1767">
      <component glyphName="Y" x="0" y="0" flags="0x204"/>
      <component glyphName="acute" x="78" y="374" flags="0x4"/>
    </TTGlyph>
    <TTGlyph name="Ydieresis" xMin="10" yMin="2" xMax="461" yMax="1667">
      <component glyphName="Y" x="0" y="0" flags="0x204"/>
      <component glyphName="dieresis" x="-37" y="374" flags="0x4"/>
    </TTGlyph>
    <TTGlyph name="Z" xMin="30" yMin="0" xMax="550" yMax="1393">
      <contour>
        <pt x="111" y="67" on="1"/>
        <pt x="292" y="67" on="1"/>
        <pt x="349" y="67" on="0"/>
        <pt x="423" y="96" on="0"/>
        <pt x="466" y="152" on="0"/>
        <pt x="483" y="230" on="0"/>
        <pt x="483" y="280" on="1"/>
        <pt x="550" y="280" on="1"/>
        <pt x="550" y="175" on="0"/>
        <pt x="496" y="61" on="0"/>
        <pt x="412" y="9" on="0"/>
        <pt x="309" y="0" on="0"/>
        <pt x="259" y="0" on="1"/>
        <pt x="30" y="0" on="1"/>
        <pt x="30" y="45" on="1"/>
        <pt x="403" y="1326" on="1"/>
        <pt x="117" y="1326" on="1"/>
        <pt x="117" y="1073" on="1"/>
        <pt x="42" y="1073" on="1"/>
        <pt x="42" y="1393" on="1"/>
        <pt x="486" y="1393" on="1"/>
        <pt x="486" y="1350" on="1"/>
      </contour>
    </TTGlyph>
    <TTGlyph name="Zcaron" xMin="30" yMin="0" xMax="550" yMax="1766">
      <component glyphName="Z" x="0" y="0" flags="0x204"/>
      <component glyphName="caron" x="26" y="373" flags="0x4"/>
    </TTGlyph>
    <TTGlyph name="Zcaron.001" xMin="30" yMin="0" xMax="550" yMax="1767">
      <component glyphName="Z" x="0" y="0" flags="0x204"/>
      <component glyphName="caron" x="4" y="374" flags="0x4"/>
    </TTGlyph>
    <TTGlyph name="a" xMin="50" yMin="0" xMax="397" yMax="1038">
      <contour>
        <pt x="223" y="67" on="1"/>
        <pt x="271" y="67" on="0"/>
        <pt x="322" y="131" on="0"/>
        <pt x="322" y="177" on="1"/>
        <pt x="322" y="530" on="1"/>
        <pt x="223" y="530" on="1"/>
        <pt x="176" y="530" on="0"/>
        <pt x="125" y="468" on="0"/>
        <pt x="125" y="421" on="1"/>
        <pt x="125" y="67" on="1"/>
      </contour>
      <contour>
        <pt x="50" y="0" on="1"/>
        <pt x="50" y="414" on="1"/>
        <pt x="50" y="454" on="0"/>
        <pt x="72" y="521" on="0"/>
        <pt x="116" y="570" on="0"/>
        <pt x="181" y="597" on="0"/>
        <pt x="223" y="597" on="1"/>
        <pt x="322" y="597" on="1"/>
        <pt x="322" y="862" on="1"/>
        <pt x="322" y="908" on="0"/>
        <pt x="271" y="971" on="0"/>
        <pt x="223" y="971" on="1"/>
        <pt x="176" y="971" on="0"/>
        <pt x="125" y="899" on="0"/>
        <pt x="125" y="847" on="1"/>
        <pt x="51" y="836" on="1"/>
        <pt x="51" y="879" on="0"/>
        <pt x="73" y="953" on="0"/>
        <pt x="116" y="1007" on="0"/>
        <pt x="181" y="1038" on="0"/>
        <pt x="223" y="1038" on="1"/>
        <pt x="266" y="1038" on="0"/>
        <pt x="331" y="1010" on="0"/>
        <pt x="375" y="961" on="0"/>
        <pt x="397" y="894" on="0"/>
        <pt x="397" y="855" on="1"/>
        <pt x="397" y="183" on="1"/>
        <pt x="397" y="143" on="0"/>
        <pt x="375" y="76" on="0"/>
        <pt x="331" y="27" on="0"/>
        <pt x="266" y="0" on="0"/>
        <pt x="223" y="0" on="1"/>
      </contour>
    </TTGlyph>
    <TTGlyph name="aacute" xMin="65" yMin="0" xMax="412" yMax="1393">
      <component glyphName="a" x="15" y="0" flags="0x204"/>
      <component glyphName="acute" x="50" y="0" flags="0x4"/>
    </TTGlyph>
    <TTGlyph name="acircumflex" xMin="65" yMin="0" xMax="412" yMax="1394">
      <component glyphName="a" x="15" y="0" flags="0x204"/>
      <component glyphName="circumflex.lc" x="-11" y="1" flags="0x4"/>
    </TTGlyph>
    <TTGlyph name="acute" xMin="100" yMin="1104" xMax="311" yMax="1393">
      <contour>
        <pt x="227" y="1393" on="1"/>
        <pt x="311" y="1393" on="1"/>
        <pt x="173" y="1104" on="1"/>
        <pt x="100" y="1104" on="1"/>
      </contour>
    </TTGlyph>
    <TTGlyph name="adieresis" xMin="61" yMin="0" xMax="423" yMax="1293">
      <component glyphName="a" x="26" y="0" flags="0x4"/>
      <component glyphName="dieresis" x="-39" y="0" flags="0x4"/>
    </TTGlyph>
    <TTGlyph name="ae" xMin="60" yMin="-20" xMax="679" yMax="1038">
      <contour>
        <pt x="679" y="1018" on="1"/>
        <pt x="679" y="604" on="1"/>
        <pt x="679" y="564" on="0"/>
        <pt x="657" y="497" on="0"/>
        <pt x="613" y="448" on="0"/>
        <pt x="548" y="421" on="0"/>
        <pt x="506" y="421" on="1"/>
        <pt x="407" y="421" on="1"/>
        <pt x="407" y="156" on="1"/>
        <pt x="407" y="110" on="0"/>
        <pt x="458" y="47" on="0"/>
        <pt x="506" y="47" on="1"/>
        <pt x="553" y="47" on="0"/>
        <pt x="604" y="119" on="0"/>
        <pt x="604" y="171" on="1"/>
        <pt x="678" y="182" on="1"/>
        <pt x="678" y="139" on="0"/>
        <pt x="656" y="65" on="0"/>
        <pt x="613" y="11" on="0"/>
        <pt x="548" y="-20" on="0"/>
        <pt x="506" y="-20" on="1"/>
        <pt x="455" y="-20" on="0"/>
        <pt x="383" y="18" on="0"/>
        <pt x="361" y="50" on="1"/>
        <pt x="339" y="27" on="0"/>
        <pt x="275" y="0" on="0"/>
        <pt x="233" y="0" on="1"/>
        <pt x="60" y="0" on="1"/>
        <pt x="60" y="414" on="1"/>
        <pt x="60" y="454" on="0"/>
        <pt x="82" y="521" on="0"/>
        <pt x="126" y="570" on="0"/>
        <pt x="191" y="597" on="0"/>
        <pt x="233" y="597" on="1"/>
        <pt x="332" y="597" on="1"/>
        <pt x="332" y="862" on="1"/>
        <pt x="332" y="908" on="0"/>
        <pt x="281" y="971" on="0"/>
        <pt x="233" y="971" on="1"/>
        <pt x="186" y="971" on="0"/>
        <pt x="135" y="899" on="0"/>
        <pt x="135" y="847" on="1"/>
        <pt x="61" y="836" on="1"/>
        <pt x="61" y="879" on="0"/>
        <pt x="83" y="953" on="0"/>
        <pt x="126" y="1007" on="0"/>
        <pt x="191" y="1038" on="0"/>
        <pt x="233" y="1038" on="1"/>
        <pt x="284" y="1038" on="0"/>
        <pt x="355" y="1000" on="0"/>
        <pt x="377" y="967" on="1"/>
        <pt x="399" y="991" on="0"/>
        <pt x="463" y="1018" on="0"/>
        <pt x="506" y="1018" on="1"/>
      </contour>
      <contour>
        <pt x="506" y="951" on="1"/>
        <pt x="459" y="951" on="0"/>
        <pt x="407" y="890" on="0"/>
        <pt x="407" y="845" on="1"/>
        <pt x="407" y="488" on="1"/>
        <pt x="506" y="488" on="1"/>
        <pt x="553" y="488" on="0"/>
        <pt x="604" y="550" on="0"/>
        <pt x="604" y="597" on="1"/>
        <pt x="604" y="951" on="1"/>
      </contour>
      <contour>
        <pt x="233" y="67" on="1"/>
        <pt x="279" y="67" on="0"/>
        <pt x="332" y="127" on="0"/>
        <pt x="332" y="172" on="1"/>
        <pt x="332" y="530" on="1"/>
        <pt x="233" y="530" on="1"/>
        <pt x="186" y="530" on="0"/>
        <pt x="135" y="468" on="0"/>
        <pt x="135" y="421" on="1"/>
        <pt x="135" y="67" on="1"/>
      </contour>
    </TTGlyph>
    <TTGlyph name="agrave" xMin="65" yMin="0" xMax="412" yMax="1393">
      <component glyphName="a" x="15" y="0" flags="0x204"/>
      <component glyphName="grave" x="-29" y="0" flags="0x4"/>
    </TTGlyph>
    <TTGlyph name="ampersand" xMin="70" yMin="-20" xMax="672" yMax="1413">
      <contour>
        <pt x="70" y="1196" on="1"/>
        <pt x="70" y="1241" on="0"/>
        <pt x="99" y="1320" on="0"/>
        <pt x="154" y="1379" on="0"/>
        <pt x="234" y="1413" on="0"/>
        <pt x="286" y="1413" on="1"/>
        <pt x="338" y="1413" on="0"/>
        <pt x="421" y="1379" on="0"/>
        <pt x="479" y="1321" on="0"/>
        <pt x="509" y="1242" on="0"/>
        <pt x="509" y="1196" on="1"/>
        <pt x="509" y="1083" on="1"/>
        <pt x="434" y="1083" on="1"/>
        <pt x="434" y="1194" on="1"/>
        <pt x="434" y="1260" on="0"/>
        <pt x="358" y="1346" on="0"/>
        <pt x="289" y="1346" on="1"/>
        <pt x="220" y="1346" on="0"/>
        <pt x="145" y="1260" on="0"/>
        <pt x="145" y="1194" on="1"/>
        <pt x="145" y="898" on="1"/>
        <pt x="145" y="888" on="0"/>
        <pt x="150" y="856" on="0"/>
        <pt x="172" y="825" on="0"/>
        <pt x="215" y="803" on="0"/>
        <pt x="253" y="803" on="1"/>
        <pt x="253" y="736" on="1"/>
        <pt x="215" y="736" on="0"/>
        <pt x="172" y="714" on="0"/>
        <pt x="150" y="684" on="0"/>
        <pt x="145" y="651" on="0"/>
        <pt x="145" y="640" on="1"/>
        <pt x="145" y="198" on="1"/>
        <pt x="145" y="132" on="0"/>
        <pt x="220" y="47" on="0"/>
        <pt x="289" y="47" on="1"/>
        <pt x="358" y="47" on="0"/>
        <pt x="434" y="132" on="0"/>
        <pt x="434" y="198" on="1"/>
        <pt x="434" y="640" on="1"/>
        <pt x="283" y="566" on="1"/>
        <pt x="243" y="625" on="1"/>
        <pt x="633" y="813" on="1"/>
        <pt x="672" y="756" on="1"/>
        <pt x="509" y="674" on="1"/>
        <pt x="509" y="196" on="1"/>
        <pt x="509" y="151" on="0"/>
        <pt x="479" y="72" on="0"/>
        <pt x="421" y="13" on="0"/>
        <pt x="338" y="-20" on="0"/>
        <pt x="286" y="-20" on="1"/>
        <pt x="234" y="-20" on="0"/>
        <pt x="154" y="14" on="0"/>
        <pt x="99" y="73" on="0"/>
        <pt x="70" y="151" on="0"/>
        <pt x="70" y="196" on="1"/>
        <pt x="70" y="637" on="1"/>
        <pt x="70" y="653" on="0"/>
        <pt x="74" y="688" on="0"/>
        <pt x="86" y="723" on="0"/>
        <pt x="108" y="756" on="0"/>
        <pt x="126" y="770" on="1"/>
        <pt x="90" y="799" on="0"/>
        <pt x="70" y="866" on="0"/>
        <pt x="70" y="897" on="1"/>
      </contour>
    </TTGlyph>
    <TTGlyph name="aring" xMin="65" yMin="0" xMax="412" yMax="1401">
      <component glyphName="a" x="15" y="0" flags="0x204"/>
      <component glyphName="ring" x="26" y="0" flags="0x4"/>
    </TTGlyph>
    <TTGlyph name="asciicircum" xMin="30" yMin="728" xMax="496" yMax="1393">
      <contour>
        <pt x="297" y="1393" on="1"/>
        <pt x="496" y="728" on="1"/>
        <pt x="428" y="728" on="1"/>
        <pt x="263" y="1282" on="1"/>
        <pt x="98" y="728" on="1"/>
        <pt x="30" y="728" on="1"/>
        <pt x="229" y="1393" on="1"/>
      </contour>
    </TTGlyph>
    <TTGlyph name="asciitilde" xMin="22" yMin="319" xMax="485" yMax="449">
      <contour>
        <pt x="167" y="380" on="1"/>
        <pt x="150" y="380" on="0"/>
        <pt x="110" y="356" on="0"/>
        <pt x="82" y="319" on="1"/>
        <pt x="22" y="357" on="1"/>
        <pt x="57" y="408" on="0"/>
        <pt x="132" y="446" on="0"/>
        <pt x="167" y="446" on="1"/>
        <pt x="195" y="446" on="0"/>
        <pt x="238" y="428" on="0"/>
        <pt x="275" y="406" on="0"/>
        <pt x="314" y="388" on="0"/>
        <pt x="340" y="388" on="1"/>
        <pt x="357" y="388" on="0"/>
        <pt x="397" y="412" on="0"/>
        <pt x="425" y="449" on="1"/>
        <pt x="485" y="411" on="1"/>
        <pt x="450" y="360" on="0"/>
        <pt x="375" y="322" on="0"/>
        <pt x="340" y="322" on="1"/>
        <pt x="316" y="322" on="0"/>
        <pt x="269" y="340" on="0"/>
        <pt x="225" y="362" on="0"/>
        <pt x="185" y="380" on="0"/>
      </contour>
    </TTGlyph>
    <TTGlyph name="asterisk" xMin="40" yMin="1155" xMax="352" yMax="1478">
      <contour>
        <pt x="225" y="1265" on="1"/>
        <pt x="225" y="1155" on="1"/>
        <pt x="164" y="1155" on="1"/>
        <pt x="164" y="1263" on="1"/>
        <pt x="161" y="1266" on="1"/>
        <pt x="70" y="1210" on="1"/>
        <pt x="40" y="1262" on="1"/>
        <pt x="134" y="1313" on="1"/>
        <pt x="134" y="1319" on="1"/>
        <pt x="40" y="1370" on="1"/>
        <pt x="71" y="1423" on="1"/>
        <pt x="160" y="1367" on="1"/>
        <pt x="164" y="1370" on="1"/>
        <pt x="164" y="1478" on="1"/>
        <pt x="225" y="1478" on="1"/>
        <pt x="225" y="1368" on="1"/>
        <pt x="230" y="1366" on="1"/>
        <pt x="321" y="1423" on="1"/>
        <pt x="352" y="1370" on="1"/>
        <pt x="257" y="1319" on="1"/>
        <pt x="257" y="1313" on="1"/>
        <pt x="352" y="1262" on="1"/>
        <pt x="322" y="1210" on="1"/>
        <pt x="228" y="1268" on="1"/>
      </contour>
    </TTGlyph>
    <TTGlyph name="at" xMin="50" yMin="-207" xMax="768" yMax="1226">
      <contour>
        <pt x="297" y="156" on="1"/>
        <pt x="297" y="109" on="0"/>
        <pt x="348" y="47" on="0"/>
        <pt x="395" y="47" on="1"/>
        <pt x="443" y="47" on="0"/>
        <pt x="494" y="109" on="0"/>
        <pt x="494" y="157" on="1"/>
        <pt x="494" y="530" on="1"/>
        <pt x="395" y="530" on="1"/>
        <pt x="348" y="530" on="0"/>
        <pt x="297" y="468" on="0"/>
        <pt x="297" y="421" on="1"/>
      </contour>
      <contour>
        <pt x="631" y="46" on="1"/>
        <pt x="651" y="46" on="0"/>
        <pt x="675" y="67" on="0"/>
        <pt x="689" y="98" on="0"/>
        <pt x="693" y="133" on="0"/>
        <pt x="693" y="147" on="1"/>
        <pt x="693" y="845" on="1"/>
        <pt x="693" y="917" on="0"/>
        <pt x="668" y="1033" on="0"/>
        <pt x="604" y="1115" on="0"/>
        <pt x="494" y="1159" on="0"/>
        <pt x="409" y="1159" on="1"/>
        <pt x="324" y="1159" on="0"/>
        <pt x="214" y="1115" on="0"/>
        <pt x="150" y="1033" on="0"/>
        <pt x="125" y="917" on="0"/>
        <pt x="125" y="845" on="1"/>
        <pt x="125" y="173" on="1"/>
        <pt x="125" y="99" on="0"/>
        <pt x="156" y="-17" on="0"/>
        <pt x="223" y="-98" on="0"/>
        <pt x="327" y="-141" on="0"/>
        <pt x="400" y="-141" on="1"/>
        <pt x="448" y="-141" on="0"/>
        <pt x="541" y="-120" on="0"/>
        <pt x="580" y="-96" on="1"/>
        <pt x="623" y="-140" on="1"/>
        <pt x="571" y="-176" on="0"/>
        <pt x="455" y="-207" on="0"/>
        <pt x="393" y="-207" on="1"/>
        <pt x="304" y="-207" on="0"/>
        <pt x="175" y="-150" on="0"/>
        <pt x="91" y="-49" on="0"/>
        <pt x="50" y="90" on="0"/>
        <pt x="50" y="172" on="1"/>
        <pt x="50" y="847" on="1"/>
        <pt x="50" y="940" on="0"/>
        <pt x="91" y="1082" on="0"/>
        <pt x="178" y="1177" on="0"/>
        <pt x="314" y="1226" on="0"/>
        <pt x="409" y="1226" on="1"/>
        <pt x="598" y="1226" on="0"/>
        <pt x="768" y="1033" on="0"/>
        <pt x="768" y="847" on="1"/>
        <pt x="768" y="143" on="1"/>
        <pt x="768" y="70" on="0"/>
        <pt x="699" y="-20" on="0"/>
        <pt x="630" y="-20" on="1"/>
        <pt x="595" y="-20" on="0"/>
        <pt x="543" y="8" on="0"/>
        <pt x="526" y="31" on="1"/>
        <pt x="504" y="7" on="0"/>
        <pt x="439" y="-20" on="0"/>
        <pt x="395" y="-20" on="1"/>
        <pt x="353" y="-20" on="0"/>
        <pt x="288" y="7" on="0"/>
        <pt x="244" y="56" on="0"/>
        <pt x="222" y="123" on="0"/>
        <pt x="222" y="163" on="1"/>
        <pt x="222" y="414" on="1"/>
        <pt x="222" y="454" on="0"/>
        <pt x="244" y="521" on="0"/>
        <pt x="288" y="570" on="0"/>
        <pt x="353" y="597" on="0"/>
        <pt x="395" y="597" on="1"/>
        <pt x="494" y="597" on="1"/>
        <pt x="494" y="862" on="1"/>
        <pt x="494" y="908" on="0"/>
        <pt x="443" y="971" on="0"/>
        <pt x="395" y="971" on="1"/>
        <pt x="348" y="971" on="0"/>
        <pt x="297" y="899" on="0"/>
        <pt x="297" y="847" on="1"/>
        <pt x="223" y="836" on="1"/>
        <pt x="223" y="879" on="0"/>
        <pt x="245" y="953" on="0"/>
        <pt x="288" y="1007" on="0"/>
        <pt x="353" y="1038" on="0"/>
        <pt x="395" y="1038" on="1"/>
        <pt x="438" y="1038" on="0"/>
        <pt x="503" y="1010" on="0"/>
        <pt x="547" y="961" on="0"/>
        <pt x="569" y="894" on="0"/>
        <pt x="569" y="855" on="1"/>
        <pt x="569" y="147" on="1"/>
        <pt x="569" y="133" on="0"/>
        <pt x="573" y="98" on="0"/>
        <pt x="587" y="67" on="0"/>
        <pt x="611" y="46" on="0"/>
      </contour>
    </TTGlyph>
    <TTGlyph name="atilde" xMin="53" yMin="0" xMax="514" yMax="1413">
      <component glyphName="a" x="60" y="0" flags="0x4"/>
      <component glyphName="tilde" x="-47" y="0" flags="0x4"/>
    </TTGlyph>
    <TTGlyph name="b" xMin="65" yMin="-20" xMax="412" yMax="1564">
      <contour>
        <pt x="65" y="1564" on="1"/>
        <pt x="140" y="1564" on="1"/>
        <pt x="140" y="995" on="1"/>
        <pt x="158" y="1005" on="0"/>
        <pt x="208" y="1018" on="0"/>
        <pt x="243" y="1018" on="1"/>
        <pt x="412" y="1018" on="1"/>
        <pt x="412" y="163" on="1"/>
        <pt x="412" y="124" on="0"/>
        <pt x="390" y="57" on="0"/>
        <pt x="346" y="8" on="0"/>
        <pt x="281" y="-20" on="0"/>
        <pt x="239" y="-20" on="1"/>
        <pt x="196" y="-20" on="0"/>
        <pt x="131" y="8" on="0"/>
        <pt x="87" y="57" on="0"/>
        <pt x="65" y="124" on="0"/>
        <pt x="65" y="163" on="1"/>
      </contour>
      <contour>
        <pt x="140" y="156" on="1"/>
        <pt x="140" y="110" on="0"/>
        <pt x="191" y="47" on="0"/>
        <pt x="239" y="47" on="1"/>
        <pt x="286" y="47" on="0"/>
        <pt x="337" y="110" on="0"/>
        <pt x="337" y="156" on="1"/>
        <pt x="337" y="951" on="1"/>
        <pt x="239" y="951" on="1"/>
        <pt x="202" y="951" on="0"/>
        <pt x="162" y="926" on="0"/>
        <pt x="143" y="894" on="0"/>
        <pt x="140" y="862" on="0"/>
        <pt x="140" y="856" on="1"/>
      </contour>
    </TTGlyph>
    <TTGlyph name="backslash" xMin="-35" yMin="0" xMax="532" yMax="1393">
      <contour>
        <pt x="532" y="0" on="1"/>
        <pt x="462" y="0" on="1"/>
        <pt x="-35" y="1393" on="1"/>
        <pt x="31" y="1393" on="1"/>
      </contour>
    </TTGlyph>
    <TTGlyph name="bar" xMin="90" yMin="-232" xMax="153" yMax="1393">
      <contour>
        <pt x="90" y="-232" on="1"/>
        <pt x="90" y="1393" on="1"/>
        <pt x="153" y="1393" on="1"/>
        <pt x="153" y="-232" on="1"/>
      </contour>
    </TTGlyph>
    <TTGlyph name="braceleft" xMin="30" yMin="-327" xMax="334" yMax="1412">
      <contour>
        <pt x="334" y="1345" on="1"/>
        <pt x="312" y="1345" on="0"/>
        <pt x="269" y="1333" on="0"/>
        <pt x="235" y="1309" on="0"/>
        <pt x="214" y="1272" on="0"/>
        <pt x="214" y="1248" on="1"/>
        <pt x="214" y="706" on="1"/>
        <pt x="214" y="675" on="0"/>
        <pt x="193" y="608" on="0"/>
        <pt x="158" y="579" on="1"/>
        <pt x="176" y="565" on="0"/>
        <pt x="198" y="532" on="0"/>
        <pt x="210" y="497" on="0"/>
        <pt x="214" y="462" on="0"/>
        <pt x="214" y="446" on="1"/>
        <pt x="214" y="-164" on="1"/>
        <pt x="214" y="-190" on="0"/>
        <pt x="234" y="-226" on="0"/>
        <pt x="267" y="-249" on="0"/>
        <pt x="309" y="-260" on="0"/>
        <pt x="330" y="-260" on="1"/>
        <pt x="330" y="-327" on="1"/>
        <pt x="293" y="-327" on="0"/>
        <pt x="224" y="-307" on="0"/>
        <pt x="171" y="-267" on="0"/>
        <pt x="139" y="-206" on="0"/>
        <pt x="139" y="-164" on="1"/>
        <pt x="139" y="449" on="1"/>
        <pt x="139" y="460" on="0"/>
        <pt x="133" y="492" on="0"/>
        <pt x="111" y="522" on="0"/>
        <pt x="67" y="544" on="0"/>
        <pt x="30" y="544" on="1"/>
        <pt x="30" y="612" on="1"/>
        <pt x="67" y="612" on="0"/>
        <pt x="111" y="634" on="0"/>
        <pt x="133" y="665" on="0"/>
        <pt x="139" y="697" on="0"/>
        <pt x="139" y="707" on="1"/>
        <pt x="139" y="1248" on="1"/>
        <pt x="139" y="1288" on="0"/>
        <pt x="172" y="1350" on="0"/>
        <pt x="227" y="1391" on="0"/>
        <pt x="297" y="1412" on="0"/>
        <pt x="334" y="1412" on="1"/>
      </contour>
    </TTGlyph>
    <TTGlyph name="braceright" xMin="10" yMin="-327" xMax="314" yMax="1412">
      <contour>
        <pt x="10" y="1412" on="1"/>
        <pt x="47" y="1412" on="0"/>
        <pt x="117" y="1391" on="0"/>
        <pt x="172" y="1350" on="0"/>
        <pt x="205" y="1288" on="0"/>
        <pt x="205" y="1248" on="1"/>
        <pt x="205" y="707" on="1"/>
        <pt x="205" y="697" on="0"/>
        <pt x="211" y="665" on="0"/>
        <pt x="233" y="634" on="0"/>
        <pt x="276" y="612" on="0"/>
        <pt x="314" y="612" on="1"/>
        <pt x="314" y="544" on="1"/>
        <pt x="276" y="544" on="0"/>
        <pt x="233" y="522" on="0"/>
        <pt x="211" y="492" on="0"/>
        <pt x="205" y="460" on="0"/>
        <pt x="205" y="449" on="1"/>
        <pt x="205" y="-164" on="1"/>
        <pt x="205" y="-206" on="0"/>
        <pt x="173" y="-267" on="0"/>
        <pt x="120" y="-307" on="0"/>
        <pt x="51" y="-327" on="0"/>
        <pt x="13" y="-327" on="1"/>
        <pt x="13" y="-260" on="1"/>
        <pt x="35" y="-260" on="0"/>
        <pt x="77" y="-249" on="0"/>
        <pt x="110" y="-226" on="0"/>
        <pt x="130" y="-190" on="0"/>
        <pt x="130" y="-164" on="1"/>
        <pt x="130" y="446" on="1"/>
        <pt x="130" y="462" on="0"/>
        <pt x="134" y="497" on="0"/>
        <pt x="146" y="532" on="0"/>
        <pt x="168" y="565" on="0"/>
        <pt x="186" y="579" on="1"/>
        <pt x="151" y="608" on="0"/>
        <pt x="130" y="675" on="0"/>
        <pt x="130" y="706" on="1"/>
        <pt x="130" y="1248" on="1"/>
        <pt x="130" y="1272" on="0"/>
        <pt x="109" y="1309" on="0"/>
        <pt x="75" y="1333" on="0"/>
        <pt x="32" y="1345" on="0"/>
        <pt x="10" y="1345" on="1"/>
      </contour>
    </TTGlyph>
    <TTGlyph name="bracketleft" xMin="70" yMin="-327" xMax="286" yMax="1413">
      <contour>
        <pt x="70" y="1413" on="1"/>
        <pt x="286" y="1413" on="1"/>
        <pt x="286" y="1347" on="1"/>
        <pt x="147" y="1347" on="1"/>
        <pt x="147" y="-262" on="1"/>
        <pt x="286" y="-262" on="1"/>
        <pt x="286" y="-327" on="1"/>
        <pt x="70" y="-327" on="1"/>
      </contour>
    </TTGlyph>
    <TTGlyph name="bracketright" xMin="10" yMin="-328" xMax="226" yMax="1413">
      <contour>
        <pt x="10" y="-328" on="1"/>
        <pt x="10" y="-263" on="1"/>
        <pt x="151" y="-263" on="1"/>
        <pt x="151" y="1347" on="1"/>
        <pt x="10" y="1347" on="1"/>
        <pt x="10" y="1413" on="1"/>
        <pt x="226" y="1413" on="1"/>
        <pt x="226" y="-328" on="1"/>
      </contour>
    </TTGlyph>
    <TTGlyph name="breve" xMin="100" yMin="1150" xMax="508" yMax="1343">
      <contour>
        <pt x="304" y="1150" on="1"/>
        <pt x="259" y="1150" on="0"/>
        <pt x="184" y="1178" on="0"/>
        <pt x="130" y="1229" on="0"/>
        <pt x="100" y="1301" on="0"/>
        <pt x="100" y="1343" on="1"/>
        <pt x="178" y="1343" on="1"/>
        <pt x="186" y="1292" on="0"/>
        <pt x="245" y="1228" on="0"/>
        <pt x="304" y="1228" on="1"/>
        <pt x="363" y="1228" on="0"/>
        <pt x="422" y="1292" on="0"/>
        <pt x="430" y="1343" on="1"/>
        <pt x="508" y="1343" on="1"/>
        <pt x="508" y="1301" on="0"/>
        <pt x="478" y="1229" on="0"/>
        <pt x="424" y="1178" on="0"/>
        <pt x="349" y="1150" on="0"/>
      </contour>
    </TTGlyph>
    <TTGlyph name="brokenbar" xMin="90" yMin="0" xMax="153" yMax="1017">
      <contour>
        <pt x="90" y="0" on="1"/>
        <pt x="90" y="449" on="1"/>
        <pt x="153" y="449" on="1"/>
        <pt x="153" y="0" on="1"/>
      </contour>
      <contour>
        <pt x="90" y="568" on="1"/>
        <pt x="90" y="1017" on="1"/>
        <pt x="153" y="1017" on="1"/>
        <pt x="153" y="568" on="1"/>
      </contour>
    </TTGlyph>
    <TTGlyph name="bullet" xMin="30" yMin="263" xMax="383" yMax="609">
      <contour>
        <pt x="30" y="435" on="1"/>
        <pt x="30" y="471" on="0"/>
        <pt x="58" y="535" on="0"/>
        <pt x="106" y="582" on="0"/>
        <pt x="170" y="609" on="0"/>
        <pt x="206" y="609" on="1"/>
        <pt x="243" y="609" on="0"/>
        <pt x="307" y="582" on="0"/>
        <pt x="355" y="535" on="0"/>
        <pt x="383" y="471" on="0"/>
        <pt x="383" y="435" on="1"/>
        <pt x="383" y="400" on="0"/>
        <pt x="355" y="337" on="0"/>
        <pt x="307" y="290" on="0"/>
        <pt x="243" y="263" on="0"/>
        <pt x="206" y="263" on="1"/>
        <pt x="170" y="263" on="0"/>
        <pt x="106" y="290" on="0"/>
        <pt x="58" y="337" on="0"/>
        <pt x="30" y="400" on="0"/>
      </contour>
    </TTGlyph>
    <TTGlyph name="c" xMin="60" yMin="-17" xMax="407" yMax="1018">
      <contour>
        <pt x="135" y="160" on="1"/>
        <pt x="135" y="114" on="0"/>
        <pt x="187" y="50" on="0"/>
        <pt x="235" y="50" on="1"/>
        <pt x="282" y="50" on="0"/>
        <pt x="333" y="123" on="0"/>
        <pt x="333" y="175" on="1"/>
        <pt x="407" y="185" on="1"/>
        <pt x="407" y="141" on="0"/>
        <pt x="385" y="67" on="0"/>
        <pt x="341" y="13" on="0"/>
        <pt x="276" y="-17" on="0"/>
        <pt x="233" y="-17" on="1"/>
        <pt x="190" y="-17" on="0"/>
        <pt x="125" y="10" on="0"/>
        <pt x="82" y="59" on="0"/>
        <pt x="60" y="126" on="0"/>
        <pt x="60" y="166" on="1"/>
        <pt x="60" y="836" on="1"/>
        <pt x="60" y="875" on="0"/>
        <pt x="82" y="942" on="0"/>
        <pt x="126" y="991" on="0"/>
        <pt x="191" y="1018" on="0"/>
        <pt x="234" y="1018" on="1"/>
        <pt x="407" y="1018" on="1"/>
        <pt x="407" y="734" on="1"/>
        <pt x="332" y="734" on="1"/>
        <pt x="332" y="951" on="1"/>
        <pt x="234" y="951" on="1"/>
        <pt x="186" y="951" on="0"/>
        <pt x="135" y="887" on="0"/>
        <pt x="135" y="841" on="1"/>
      </contour>
    </TTGlyph>
    <TTGlyph name="caron" xMin="100" yMin="1104" xMax="423" yMax="1393">
      <contour>
        <pt x="296" y="1104" on="1"/>
        <pt x="227" y="1104" on="1"/>
        <pt x="100" y="1393" on="1"/>
        <pt x="173" y="1393" on="1"/>
        <pt x="261" y="1185" on="1"/>
        <pt x="350" y="1393" on="1"/>
        <pt x="423" y="1393" on="1"/>
      </contour>
    </TTGlyph>
    <TTGlyph name="ccaron" xMin="60" yMin="-17" xMax="407" yMax="1393">
      <component glyphName="c" x="0" y="0" flags="0x204"/>
      <component glyphName="caron" x="-37" y="0" flags="0x4"/>
    </TTGlyph>
    <TTGlyph name="ccedilla" xMin="65" yMin="-444" xMax="412" yMax="1018">
      <contour>
        <pt x="140" y="160" on="1"/>
        <pt x="140" y="114" on="0"/>
        <pt x="192" y="50" on="0"/>
        <pt x="240" y="50" on="1"/>
        <pt x="287" y="50" on="0"/>
        <pt x="338" y="123" on="0"/>
        <pt x="338" y="175" on="1"/>
        <pt x="412" y="185" on="1"/>
        <pt x="412" y="144" on="0"/>
        <pt x="393" y="75" on="0"/>
        <pt x="355" y="22" on="0"/>
        <pt x="298" y="-11" on="0"/>
        <pt x="261" y="-15" on="1"/>
        <pt x="261" y="-160" on="1"/>
        <pt x="291" y="-161" on="0"/>
        <pt x="343" y="-183" on="0"/>
        <pt x="381" y="-220" on="0"/>
        <pt x="402" y="-271" on="0"/>
        <pt x="402" y="-300" on="1"/>
        <pt x="402" y="-333" on="0"/>
        <pt x="376" y="-386" on="0"/>
        <pt x="334" y="-424" on="0"/>
        <pt x="278" y="-444" on="0"/>
        <pt x="248" y="-444" on="1"/>
        <pt x="180" y="-444" on="1"/>
        <pt x="203" y="-384" on="1"/>
        <pt x="243" y="-384" on="1"/>
        <pt x="281" y="-384" on="0"/>
        <pt x="327" y="-334" on="0"/>
        <pt x="327" y="-298" on="1"/>
        <pt x="327" y="-263" on="0"/>
        <pt x="283" y="-220" on="0"/>
        <pt x="251" y="-220" on="1"/>
        <pt x="185" y="-220" on="1"/>
        <pt x="185" y="-10" on="1"/>
        <pt x="125" y="5" on="0"/>
        <pt x="65" y="100" on="0"/>
        <pt x="65" y="166" on="1"/>
        <pt x="65" y="836" on="1"/>
        <pt x="65" y="875" on="0"/>
        <pt x="87" y="942" on="0"/>
        <pt x="131" y="991" on="0"/>
        <pt x="196" y="1018" on="0"/>
        <pt x="239" y="1018" on="1"/>
        <pt x="412" y="1018" on="1"/>
        <pt x="412" y="734" on="1"/>
        <pt x="337" y="734" on="1"/>
        <pt x="337" y="951" on="1"/>
        <pt x="239" y="951" on="1"/>
        <pt x="191" y="951" on="0"/>
        <pt x="140" y="887" on="0"/>
        <pt x="140" y="841" on="1"/>
      </contour>
    </TTGlyph>
    <TTGlyph name="cedilla" xMin="100" yMin="-444" xMax="322" yMax="47">
      <contour>
        <pt x="123" y="-384" on="1"/>
        <pt x="163" y="-384" on="1"/>
        <pt x="201" y="-384" on="0"/>
        <pt x="247" y="-334" on="0"/>
        <pt x="247" y="-298" on="1"/>
        <pt x="247" y="-263" on="0"/>
        <pt x="203" y="-220" on="0"/>
        <pt x="171" y="-220" on="1"/>
        <pt x="105" y="-220" on="1"/>
        <pt x="105" y="47" on="1"/>
        <pt x="181" y="47" on="1"/>
        <pt x="181" y="-160" on="1"/>
        <pt x="211" y="-161" on="0"/>
        <pt x="263" y="-183" on="0"/>
        <pt x="301" y="-220" on="0"/>
        <pt x="322" y="-271" on="0"/>
        <pt x="322" y="-300" on="1"/>
        <pt x="322" y="-333" on="0"/>
        <pt x="296" y="-386" on="0"/>
        <pt x="254" y="-424" on="0"/>
        <pt x="198" y="-444" on="0"/>
        <pt x="168" y="-444" on="1"/>
        <pt x="100" y="-444" on="1"/>
      </contour>
    </TTGlyph>
    <TTGlyph name="cent" xMin="50" yMin="-132" xMax="493" yMax="1321">
      <contour>
        <pt x="248" y="-132" on="1"/>
        <pt x="248" y="-18" on="1"/>
        <pt x="194" y="-12" on="0"/>
        <pt x="119" y="33" on="0"/>
        <pt x="71" y="103" on="0"/>
        <pt x="50" y="193" on="0"/>
        <pt x="50" y="243" on="1"/>
        <pt x="50" y="897" on="1"/>
        <pt x="50" y="943" on="0"/>
        <pt x="56" y="1037" on="0"/>
        <pt x="93" y="1118" on="0"/>
        <pt x="174" y="1175" on="0"/>
        <pt x="248" y="1184" on="1"/>
        <pt x="248" y="1321" on="1"/>
        <pt x="311" y="1321" on="1"/>
        <pt x="311" y="1188" on="1"/>
        <pt x="493" y="1188" on="1"/>
        <pt x="493" y="785" on="1"/>
        <pt x="418" y="785" on="1"/>
        <pt x="418" y="1121" on="1"/>
        <pt x="331" y="1121" on="1"/>
        <pt x="277" y="1121" on="0"/>
        <pt x="199" y="1104" on="0"/>
        <pt x="149" y="1061" on="0"/>
        <pt x="125" y="987" on="0"/>
        <pt x="125" y="931" on="1"/>
        <pt x="125" y="243" on="1"/>
        <pt x="125" y="201" on="0"/>
        <pt x="142" y="130" on="0"/>
        <pt x="179" y="77" on="0"/>
        <pt x="238" y="47" on="0"/>
        <pt x="280" y="47" on="1"/>
        <pt x="349" y="47" on="0"/>
        <pt x="418" y="127" on="0"/>
        <pt x="418" y="202" on="1"/>
        <pt x="418" y="383" on="1"/>
        <pt x="493" y="383" on="1"/>
        <pt x="493" y="201" on="1"/>
        <pt x="493" y="106" on="0"/>
        <pt x="402" y="-10" on="0"/>
        <pt x="311" y="-18" on="1"/>
        <pt x="311" y="-132" on="1"/>
      </contour>
    </TTGlyph>
    <TTGlyph name="circumflex" xMin="84" yMin="1104" xMax="407" yMax="1393">
      <contour>
        <pt x="407" y="1104" on="1"/>
        <pt x="334" y="1104" on="1"/>
        <pt x="245" y="1312" on="1"/>
        <pt x="157" y="1104" on="1"/>
        <pt x="84" y="1104" on="1"/>
        <pt x="211" y="1393" on="1"/>
        <pt x="280" y="1393" on="1"/>
      </contour>
    </TTGlyph>
    <TTGlyph name="circumflex.lc" xMin="84" yMin="1104" xMax="407" yMax="1393">
      <contour>
        <pt x="407" y="1104" on="1"/>
        <pt x="334" y="1104" on="1"/>
        <pt x="245" y="1312" on="1"/>
        <pt x="157" y="1104" on="1"/>
        <pt x="84" y="1104" on="1"/>
        <pt x="211" y="1393" on="1"/>
        <pt x="280" y="1393" on="1"/>
      </contour>
    </TTGlyph>
    <TTGlyph name="colon" xMin="60" yMin="-20" xMax="157" yMax="1038">
      <contour>
        <pt x="60" y="992" on="1"/>
        <pt x="60" y="1010" on="0"/>
        <pt x="85" y="1038" on="0"/>
        <pt x="108" y="1038" on="1"/>
        <pt x="131" y="1038" on="0"/>
        <pt x="157" y="1010" on="0"/>
        <pt x="157" y="992" on="1"/>
        <pt x="157" y="975" on="0"/>
        <pt x="131" y="948" on="0"/>
        <pt x="108" y="948" on="1"/>
        <pt x="88" y="948" on="0"/>
        <pt x="60" y="975" on="0"/>
      </contour>
      <contour>
        <pt x="60" y="26" on="1"/>
        <pt x="60" y="42" on="0"/>
        <pt x="85" y="70" on="0"/>
        <pt x="108" y="70" on="1"/>
        <pt x="131" y="70" on="0"/>
        <pt x="157" y="42" on="0"/>
        <pt x="157" y="26" on="1"/>
        <pt x="157" y="6" on="0"/>
        <pt x="131" y="-20" on="0"/>
        <pt x="108" y="-20" on="1"/>
        <pt x="88" y="-20" on="0"/>
        <pt x="60" y="6" on="0"/>
      </contour>
    </TTGlyph>
    <TTGlyph name="comma" xMin="20" yMin="-173" xMax="139" yMax="92">
      <contour>
        <pt x="139" y="0" on="1"/>
        <pt x="136" y="-27" on="0"/>
        <pt x="127" y="-56" on="1"/>
        <pt x="119" y="-81" on="0"/>
        <pt x="93" y="-142" on="0"/>
        <pt x="71" y="-173" on="1"/>
        <pt x="20" y="-173" on="1"/>
        <pt x="20" y="-139" on="1"/>
        <pt x="29" y="-128" on="0"/>
        <pt x="48" y="-95" on="0"/>
        <pt x="63" y="-58" on="0"/>
        <pt x="73" y="-18" on="0"/>
        <pt x="74" y="0" on="1"/>
        <pt x="40" y="0" on="1"/>
        <pt x="40" y="92" on="1"/>
        <pt x="139" y="92" on="1"/>
      </contour>
    </TTGlyph>
    <TTGlyph name="copyright" xMin="50" yMin="-20" xMax="767" yMax="1414">
      <contour>
        <pt x="498" y="892" on="1"/>
        <pt x="498" y="1125" on="1"/>
        <pt x="443" y="1125" on="1"/>
        <pt x="407" y="1125" on="0"/>
        <pt x="355" y="1114" on="0"/>
        <pt x="322" y="1085" on="0"/>
        <pt x="307" y="1036" on="0"/>
        <pt x="307" y="999" on="1"/>
        <pt x="307" y="379" on="1"/>
        <pt x="307" y="351" on="0"/>
        <pt x="317" y="303" on="0"/>
        <pt x="341" y="269" on="0"/>
        <pt x="380" y="249" on="0"/>
        <pt x="408" y="249" on="1"/>
        <pt x="453" y="249" on="0"/>
        <pt x="498" y="302" on="0"/>
        <pt x="498" y="350" on="1"/>
        <pt x="498" y="482" on="1"/>
        <pt x="562" y="482" on="1"/>
        <pt x="562" y="350" on="1"/>
        <pt x="562" y="276" on="0"/>
        <pt x="485" y="190" on="0"/>
        <pt x="410" y="190" on="1"/>
        <pt x="365" y="190" on="0"/>
        <pt x="301" y="220" on="0"/>
        <pt x="260" y="272" on="0"/>
        <pt x="242" y="340" on="0"/>
        <pt x="242" y="379" on="1"/>
        <pt x="242" y="976" on="1"/>
        <pt x="242" y="1012" on="0"/>
        <pt x="248" y="1086" on="0"/>
        <pt x="283" y="1146" on="0"/>
        <pt x="358" y="1184" on="0"/>
        <pt x="428" y="1184" on="1"/>
        <pt x="562" y="1184" on="1"/>
        <pt x="562" y="892" on="1"/>
      </contour>
      <contour>
        <pt x="767" y="349" on="1"/>
        <pt x="767" y="244" on="0"/>
        <pt x="706" y="102" on="0"/>
        <pt x="606" y="17" on="0"/>
        <pt x="477" y="-20" on="0"/>
        <pt x="409" y="-20" on="1"/>
        <pt x="341" y="-20" on="0"/>
        <pt x="212" y="17" on="0"/>
        <pt x="111" y="102" on="0"/>
        <pt x="50" y="244" on="0"/>
        <pt x="50" y="349" on="1"/>
        <pt x="50" y="1045" on="1"/>
        <pt x="50" y="1150" on="0"/>
        <pt x="111" y="1292" on="0"/>
        <pt x="212" y="1377" on="0"/>
        <pt x="341" y="1414" on="0"/>
        <pt x="409" y="1414" on="1"/>
        <pt x="477" y="1414" on="0"/>
        <pt x="606" y="1377" on="0"/>
        <pt x="706" y="1292" on="0"/>
        <pt x="767" y="1150" on="0"/>
        <pt x="767" y="1045" on="1"/>
      </contour>
      <contour>
        <pt x="703" y="1044" on="1"/>
        <pt x="703" y="1146" on="0"/>
        <pt x="648" y="1269" on="0"/>
        <pt x="562" y="1335" on="0"/>
        <pt x="458" y="1356" on="0"/>
        <pt x="409" y="1356" on="1"/>
        <pt x="376" y="1356" on="0"/>
        <pt x="307" y="1347" on="0"/>
        <pt x="242" y="1323" on="0"/>
        <pt x="183" y="1280" on="0"/>
        <pt x="140" y="1211" on="0"/>
        <pt x="114" y="1112" on="0"/>
        <pt x="114" y="1044" on="1"/>
        <pt x="114" y="350" on="1"/>
        <pt x="114" y="282" on="0"/>
        <pt x="140" y="183" on="0"/>
        <pt x="183" y="114" on="0"/>
        <pt x="242" y="71" on="0"/>
        <pt x="307" y="47" on="0"/>
        <pt x="376" y="38" on="0"/>
        <pt x="409" y="38" on="1"/>
        <pt x="458" y="38" on="0"/>
        <pt x="562" y="59" on="0"/>
        <pt x="648" y="125" on="0"/>
        <pt x="703" y="248" on="0"/>
        <pt x="703" y="350" on="1"/>
      </contour>
    </TTGlyph>
    <TTGlyph name="currency" xMin="30" yMin="590" xMax="449" yMax="1109">
      <contour>
        <pt x="48" y="849" on="1"/>
        <pt x="48" y="880" on="0"/>
        <pt x="66" y="935" on="0"/>
        <pt x="81" y="957" on="1"/>
        <pt x="30" y="1008" on="1"/>
        <pt x="30" y="1109" on="1"/>
        <pt x="131" y="1007" on="1"/>
        <pt x="153" y="1022" on="0"/>
        <pt x="209" y="1038" on="0"/>
        <pt x="239" y="1038" on="1"/>
        <pt x="300" y="1038" on="0"/>
        <pt x="346" y="1006" on="1"/>
        <pt x="449" y="1109" on="1"/>
        <pt x="449" y="1007" on="1"/>
        <pt x="399" y="957" on="1"/>
        <pt x="433" y="911" on="0"/>
        <pt x="433" y="849" on="1"/>
        <pt x="433" y="786" on="0"/>
        <pt x="397" y="739" on="1"/>
        <pt x="449" y="687" on="1"/>
        <pt x="449" y="592" on="1"/>
        <pt x="347" y="693" on="1"/>
        <pt x="300" y="662" on="0"/>
        <pt x="239" y="662" on="1"/>
        <pt x="179" y="662" on="0"/>
        <pt x="132" y="692" on="1"/>
        <pt x="30" y="590" on="1"/>
        <pt x="30" y="687" on="1"/>
        <pt x="81" y="740" on="1"/>
        <pt x="67" y="762" on="0"/>
        <pt x="48" y="818" on="0"/>
      </contour>
      <contour>
        <pt x="125" y="851" on="1"/>
        <pt x="125" y="827" on="0"/>
        <pt x="143" y="785" on="0"/>
        <pt x="175" y="752" on="0"/>
        <pt x="216" y="733" on="0"/>
        <pt x="239" y="733" on="1"/>
        <pt x="264" y="733" on="0"/>
        <pt x="306" y="752" on="0"/>
        <pt x="337" y="785" on="0"/>
        <pt x="355" y="827" on="0"/>
        <pt x="355" y="851" on="1"/>
        <pt x="355" y="876" on="0"/>
        <pt x="337" y="920" on="0"/>
        <pt x="306" y="952" on="0"/>
        <pt x="264" y="970" on="0"/>
        <pt x="239" y="970" on="1"/>
        <pt x="216" y="970" on="0"/>
        <pt x="175" y="952" on="0"/>
        <pt x="143" y="920" on="0"/>
        <pt x="125" y="876" on="0"/>
      </contour>
    </TTGlyph>
    <TTGlyph name="d" xMin="65" yMin="-20" xMax="412" yMax="1564">
      <contour>
        <pt x="412" y="163" on="1"/>
        <pt x="412" y="124" on="0"/>
        <pt x="390" y="57" on="0"/>
        <pt x="346" y="8" on="0"/>
        <pt x="281" y="-20" on="0"/>
        <pt x="239" y="-20" on="1"/>
        <pt x="196" y="-20" on="0"/>
        <pt x="131" y="8" on="0"/>
        <pt x="87" y="57" on="0"/>
        <pt x="65" y="124" on="0"/>
        <pt x="65" y="163" on="1"/>
        <pt x="65" y="1018" on="1"/>
        <pt x="235" y="1018" on="1"/>
        <pt x="273" y="1018" on="0"/>
        <pt x="319" y="1007" on="0"/>
        <pt x="337" y="997" on="1"/>
        <pt x="337" y="1564" on="1"/>
        <pt x="412" y="1564" on="1"/>
      </contour>
      <contour>
        <pt x="337" y="856" on="1"/>
        <pt x="337" y="862" on="0"/>
        <pt x="334" y="894" on="0"/>
        <pt x="316" y="926" on="0"/>
        <pt x="276" y="951" on="0"/>
        <pt x="239" y="951" on="1"/>
        <pt x="140" y="951" on="1"/>
        <pt x="140" y="156" on="1"/>
        <pt x="140" y="110" on="0"/>
        <pt x="191" y="47" on="0"/>
        <pt x="239" y="47" on="1"/>
        <pt x="286" y="47" on="0"/>
        <pt x="337" y="110" on="0"/>
        <pt x="337" y="156" on="1"/>
      </contour>
    </TTGlyph>
    <TTGlyph name="dagger" xMin="-52" yMin="-444" xMax="303" yMax="1019">
      <contour>
        <pt x="-52" y="685" on="1"/>
        <pt x="90" y="685" on="1"/>
        <pt x="90" y="1019" on="1"/>
        <pt x="165" y="1019" on="1"/>
        <pt x="165" y="685" on="1"/>
        <pt x="303" y="685" on="1"/>
        <pt x="303" y="616" on="1"/>
        <pt x="165" y="616" on="1"/>
        <pt x="165" y="115" on="1"/>
        <pt x="137" y="-444" on="1"/>
        <pt x="117" y="-444" on="1"/>
        <pt x="90" y="115" on="1"/>
        <pt x="90" y="616" on="1"/>
        <pt x="-52" y="616" on="1"/>
      </contour>
    </TTGlyph>
    <TTGlyph name="degree" xMin="70" yMin="1045" xMax="381" yMax="1347">
      <contour>
        <pt x="70" y="1195" on="1"/>
        <pt x="70" y="1226" on="0"/>
        <pt x="94" y="1282" on="0"/>
        <pt x="136" y="1323" on="0"/>
        <pt x="192" y="1347" on="0"/>
        <pt x="224" y="1347" on="1"/>
        <pt x="256" y="1347" on="0"/>
        <pt x="313" y="1323" on="0"/>
        <pt x="356" y="1282" on="0"/>
        <pt x="381" y="1226" on="0"/>
        <pt x="381" y="1195" on="1"/>
        <pt x="381" y="1164" on="0"/>
        <pt x="356" y="1109" on="0"/>
        <pt x="313" y="1069" on="0"/>
        <pt x="256" y="1045" on="0"/>
        <pt x="224" y="1045" on="1"/>
        <pt x="192" y="1045" on="0"/>
        <pt x="136" y="1069" on="0"/>
        <pt x="94" y="1109" on="0"/>
        <pt x="70" y="1164" on="0"/>
      </contour>
      <contour>
        <pt x="132" y="1195" on="1"/>
        <pt x="132" y="1175" on="0"/>
        <pt x="147" y="1141" on="0"/>
        <pt x="172" y="1115" on="0"/>
        <pt x="206" y="1100" on="0"/>
        <pt x="224" y="1100" on="1"/>
        <pt x="243" y="1100" on="0"/>
        <pt x="278" y="1115" on="0"/>
        <pt x="304" y="1141" on="0"/>
        <pt x="319" y="1175" on="0"/>
        <pt x="319" y="1195" on="1"/>
        <pt x="319" y="1215" on="0"/>
        <pt x="304" y="1252" on="0"/>
        <pt x="278" y="1279" on="0"/>
        <pt x="243" y="1295" on="0"/>
        <pt x="224" y="1295" on="1"/>
        <pt x="206" y="1295" on="0"/>
        <pt x="172" y="1279" on="0"/>
        <pt x="147" y="1252" on="0"/>
        <pt x="132" y="1215" on="0"/>
      </contour>
    </TTGlyph>
    <TTGlyph name="dieresis" xMin="100" yMin="1196" xMax="458" yMax="1293">
      <contour>
        <pt x="100" y="1243" on="1"/>
        <pt x="100" y="1293" on="0"/>
        <pt x="148" y="1293" on="1"/>
        <pt x="196" y="1293" on="0"/>
        <pt x="196" y="1243" on="1"/>
        <pt x="196" y="1224" on="0"/>
        <pt x="172" y="1196" on="0"/>
        <pt x="148" y="1196" on="1"/>
        <pt x="125" y="1196" on="0"/>
        <pt x="100" y="1224" on="0"/>
      </contour>
      <contour>
        <pt x="360" y="1243" on="1"/>
        <pt x="360" y="1293" on="0"/>
        <pt x="410" y="1293" on="1"/>
        <pt x="458" y="1293" on="0"/>
        <pt x="458" y="1243" on="1"/>
        <pt x="458" y="1224" on="0"/>
        <pt x="435" y="1196" on="0"/>
        <pt x="410" y="1196" on="1"/>
        <pt x="386" y="1196" on="0"/>
        <pt x="360" y="1224" on="0"/>
      </contour>
    </TTGlyph>
    <TTGlyph name="divide" xMin="25" yMin="327" xMax="672" yMax="1052">
      <contour>
        <pt x="305" y="1052" on="1"/>
        <pt x="392" y="1052" on="1"/>
        <pt x="392" y="972" on="1"/>
        <pt x="305" y="972" on="1"/>
      </contour>
      <contour>
        <pt x="304" y="407" on="1"/>
        <pt x="391" y="407" on="1"/>
        <pt x="391" y="327" on="1"/>
        <pt x="304" y="327" on="1"/>
      </contour>
      <contour>
        <pt x="672" y="729" on="1"/>
        <pt x="672" y="660" on="1"/>
        <pt x="25" y="660" on="1"/>
        <pt x="25" y="729" on="1"/>
      </contour>
    </TTGlyph>
    <TTGlyph name="dollar" xMin="40" yMin="-132" xMax="483" yMax="1321">
      <contour>
        <pt x="228" y="-132" on="1"/>
        <pt x="228" y="-17" on="1"/>
        <pt x="186" y="-11" on="0"/>
        <pt x="117" y="26" on="0"/>
        <pt x="68" y="83" on="0"/>
        <pt x="40" y="156" on="0"/>
        <pt x="40" y="198" on="1"/>
        <pt x="40" y="414" on="1"/>
        <pt x="115" y="414" on="1"/>
        <pt x="115" y="199" on="1"/>
        <pt x="115" y="166" on="0"/>
        <pt x="137" y="111" on="0"/>
        <pt x="175" y="70" on="0"/>
        <pt x="228" y="47" on="0"/>
        <pt x="260" y="47" on="1"/>
        <pt x="294" y="47" on="0"/>
        <pt x="348" y="71" on="0"/>
        <pt x="387" y="112" on="0"/>
        <pt x="408" y="167" on="0"/>
        <pt x="408" y="199" on="1"/>
        <pt x="408" y="366" on="1"/>
        <pt x="408" y="401" on="0"/>
        <pt x="380" y="463" on="0"/>
        <pt x="333" y="521" on="0"/>
        <pt x="273" y="575" on="0"/>
        <pt x="242" y="601" on="1"/>
        <pt x="205" y="632" on="0"/>
        <pt x="132" y="696" on="0"/>
        <pt x="75" y="768" on="0"/>
        <pt x="40" y="850" on="0"/>
        <pt x="40" y="900" on="1"/>
        <pt x="40" y="991" on="1"/>
        <pt x="40" y="1035" on="0"/>
        <pt x="69" y="1109" on="0"/>
        <pt x="120" y="1165" on="0"/>
        <pt x="188" y="1201" on="0"/>
        <pt x="228" y="1207" on="1"/>
        <pt x="228" y="1321" on="1"/>
        <pt x="291" y="1321" on="1"/>
        <pt x="291" y="1207" on="1"/>
        <pt x="333" y="1202" on="0"/>
        <pt x="403" y="1164" on="0"/>
        <pt x="454" y="1107" on="0"/>
        <pt x="483" y="1033" on="0"/>
        <pt x="483" y="991" on="1"/>
        <pt x="483" y="786" on="1"/>
        <pt x="408" y="786" on="1"/>
        <pt x="408" y="990" on="1"/>
        <pt x="408" y="1023" on="0"/>
        <pt x="386" y="1078" on="0"/>
        <pt x="348" y="1119" on="0"/>
        <pt x="294" y="1142" on="0"/>
        <pt x="263" y="1142" on="1"/>
        <pt x="229" y="1142" on="0"/>
        <pt x="174" y="1118" on="0"/>
        <pt x="136" y="1077" on="0"/>
        <pt x="115" y="1022" on="0"/>
        <pt x="115" y="990" on="1"/>
        <pt x="115" y="900" on="1"/>
        <pt x="115" y="863" on="0"/>
        <pt x="145" y="798" on="0"/>
        <pt x="194" y="739" on="0"/>
        <pt x="256" y="685" on="0"/>
        <pt x="288" y="658" on="1"/>
        <pt x="324" y="628" on="0"/>
        <pt x="394" y="564" on="0"/>
        <pt x="449" y="492" on="0"/>
        <pt x="483" y="412" on="0"/>
        <pt x="483" y="366" on="1"/>
        <pt x="483" y="198" on="1"/>
        <pt x="483" y="154" on="0"/>
        <pt x="453" y="79" on="0"/>
        <pt x="402" y="23" on="0"/>
        <pt x="331" y="-13" on="0"/>
        <pt x="291" y="-18" on="1"/>
        <pt x="291" y="-132" on="1"/>
      </contour>
    </TTGlyph>
    <TTGlyph name="dotaccent" xMin="100" yMin="1150" xMax="201" yMax="1251">
      <contour>
        <pt x="100" y="1200" on="1"/>
        <pt x="100" y="1251" on="0"/>
        <pt x="150" y="1251" on="1"/>
        <pt x="173" y="1251" on="0"/>
        <pt x="201" y="1228" on="0"/>
        <pt x="201" y="1200" on="1"/>
        <pt x="201" y="1180" on="0"/>
        <pt x="176" y="1150" on="0"/>
        <pt x="150" y="1150" on="1"/>
        <pt x="125" y="1150" on="0"/>
        <pt x="100" y="1180" on="0"/>
      </contour>
    </TTGlyph>
    <TTGlyph name="dotlessi" xMin="80" yMin="0" xMax="155" yMax="1018">
      <contour>
        <pt x="80" y="0" on="1"/>
        <pt x="80" y="1018" on="1"/>
        <pt x="155" y="1018" on="1"/>
        <pt x="155" y="0" on="1"/>
      </contour>
    </TTGlyph>
    <TTGlyph name="e" xMin="60" yMin="-20" xMax="407" yMax="1018">
      <contour>
        <pt x="234" y="951" on="1"/>
        <pt x="186" y="951" on="0"/>
        <pt x="135" y="887" on="0"/>
        <pt x="135" y="841" on="1"/>
        <pt x="135" y="488" on="1"/>
        <pt x="234" y="488" on="1"/>
        <pt x="281" y="488" on="0"/>
        <pt x="332" y="550" on="0"/>
        <pt x="332" y="597" on="1"/>
        <pt x="332" y="951" on="1"/>
      </contour>
      <contour>
        <pt x="407" y="1018" on="1"/>
        <pt x="407" y="604" on="1"/>
        <pt x="407" y="564" on="0"/>
        <pt x="385" y="497" on="0"/>
        <pt x="341" y="448" on="0"/>
        <pt x="276" y="421" on="0"/>
        <pt x="234" y="421" on="1"/>
        <pt x="135" y="421" on="1"/>
        <pt x="135" y="156" on="1"/>
        <pt x="135" y="110" on="0"/>
        <pt x="186" y="47" on="0"/>
        <pt x="234" y="47" on="1"/>
        <pt x="281" y="47" on="0"/>
        <pt x="332" y="119" on="0"/>
        <pt x="332" y="171" on="1"/>
        <pt x="406" y="182" on="1"/>
        <pt x="406" y="139" on="0"/>
        <pt x="384" y="65" on="0"/>
        <pt x="341" y="11" on="0"/>
        <pt x="276" y="-20" on="0"/>
        <pt x="234" y="-20" on="1"/>
        <pt x="191" y="-20" on="0"/>
        <pt x="126" y="8" on="0"/>
        <pt x="82" y="57" on="0"/>
        <pt x="60" y="124" on="0"/>
        <pt x="60" y="163" on="1"/>
        <pt x="60" y="835" on="1"/>
        <pt x="60" y="875" on="0"/>
        <pt x="82" y="942" on="0"/>
        <pt x="126" y="991" on="0"/>
        <pt x="191" y="1018" on="0"/>
        <pt x="234" y="1018" on="1"/>
      </contour>
    </TTGlyph>
    <TTGlyph name="eacute" xMin="60" yMin="-20" xMax="407" yMax="1393">
      <component glyphName="e" x="0" y="0" flags="0x204"/>
      <component glyphName="acute" x="47" y="0" flags="0x4"/>
    </TTGlyph>
    <TTGlyph name="ecircumflex" xMin="60" yMin="-20" xMax="407" yMax="1394">
      <component glyphName="e" x="0" y="0" flags="0x204"/>
      <component glyphName="circumflex.lc" x="-4" y="1" flags="0x4"/>
    </TTGlyph>
    <TTGlyph name="edieresis" xMin="60" yMin="-20" xMax="424" yMax="1293">
      <component glyphName="e" x="0" y="0" flags="0x4"/>
      <component glyphName="dieresis" x="-34" y="0" flags="0x4"/>
    </TTGlyph>
    <TTGlyph name="egrave" xMin="60" yMin="-20" xMax="407" yMax="1393">
      <component glyphName="e" x="0" y="0" flags="0x204"/>
      <component glyphName="grave" x="26" y="0" flags="0x4"/>
    </TTGlyph>
    <TTGlyph name="eight" xMin="40" yMin="-20" xMax="436" yMax="1413">
      <contour>
        <pt x="115" y="183" on="1"/>
        <pt x="115" y="121" on="0"/>
        <pt x="182" y="47" on="0"/>
        <pt x="239" y="47" on="1"/>
        <pt x="295" y="47" on="0"/>
        <pt x="361" y="121" on="0"/>
        <pt x="361" y="183" on="1"/>
        <pt x="361" y="556" on="1"/>
        <pt x="361" y="594" on="0"/>
        <pt x="332" y="680" on="0"/>
        <pt x="290" y="762" on="0"/>
        <pt x="242" y="835" on="0"/>
        <pt x="223" y="861" on="1"/>
        <pt x="206" y="836" on="0"/>
        <pt x="168" y="763" on="0"/>
        <pt x="136" y="680" on="0"/>
        <pt x="115" y="594" on="0"/>
        <pt x="115" y="556" on="1"/>
      </contour>
      <contour>
        <pt x="306" y="871" on="1"/>
        <pt x="332" y="833" on="0"/>
        <pt x="379" y="760" on="0"/>
        <pt x="415" y="685" on="0"/>
        <pt x="436" y="605" on="0"/>
        <pt x="436" y="560" on="1"/>
        <pt x="436" y="186" on="1"/>
        <pt x="436" y="141" on="0"/>
        <pt x="408" y="65" on="0"/>
        <pt x="356" y="10" on="0"/>
        <pt x="284" y="-20" on="0"/>
        <pt x="239" y="-20" on="1"/>
        <pt x="194" y="-20" on="0"/>
        <pt x="120" y="10" on="0"/>
        <pt x="68" y="65" on="0"/>
        <pt x="40" y="140" on="0"/>
        <pt x="40" y="185" on="1"/>
        <pt x="40" y="560" on="1"/>
        <pt x="40" y="605" on="0"/>
        <pt x="64" y="701" on="0"/>
        <pt x="103" y="795" on="0"/>
        <pt x="151" y="885" on="0"/>
        <pt x="174" y="923" on="1"/>
        <pt x="147" y="956" on="0"/>
        <pt x="99" y="1024" on="0"/>
        <pt x="63" y="1096" on="0"/>
        <pt x="41" y="1172" on="0"/>
        <pt x="41" y="1213" on="1"/>
        <pt x="41" y="1257" on="0"/>
        <pt x="71" y="1330" on="0"/>
        <pt x="124" y="1383" on="0"/>
        <pt x="196" y="1413" on="0"/>
        <pt x="238" y="1413" on="1"/>
        <pt x="284" y="1413" on="0"/>
        <pt x="358" y="1384" on="0"/>
        <pt x="409" y="1332" on="0"/>
        <pt x="436" y="1260" on="0"/>
        <pt x="436" y="1217" on="1"/>
        <pt x="436" y="1172" on="0"/>
        <pt x="415" y="1077" on="0"/>
        <pt x="379" y="987" on="0"/>
        <pt x="332" y="904" on="0"/>
      </contour>
      <contour>
        <pt x="239" y="1346" on="1"/>
        <pt x="210" y="1346" on="0"/>
        <pt x="165" y="1324" on="0"/>
        <pt x="132" y="1288" on="0"/>
        <pt x="115" y="1240" on="0"/>
        <pt x="115" y="1214" on="1"/>
        <pt x="115" y="1176" on="0"/>
        <pt x="143" y="1095" on="0"/>
        <pt x="186" y="1017" on="0"/>
        <pt x="237" y="949" on="0"/>
        <pt x="259" y="924" on="1"/>
        <pt x="284" y="952" on="0"/>
        <pt x="323" y="1025" on="0"/>
        <pt x="349" y="1102" on="0"/>
        <pt x="362" y="1179" on="0"/>
        <pt x="362" y="1213" on="1"/>
        <pt x="362" y="1273" on="0"/>
        <pt x="301" y="1346" on="0"/>
      </contour>
    </TTGlyph>
    <TTGlyph name="ellipsis" xMin="100" yMin="-4" xMax="547" yMax="86">
      <contour>
        <pt x="100" y="42" on="1"/>
        <pt x="100" y="58" on="0"/>
        <pt x="126" y="86" on="0"/>
        <pt x="149" y="86" on="1"/>
        <pt x="172" y="86" on="0"/>
        <pt x="197" y="58" on="0"/>
        <pt x="197" y="42" on="1"/>
        <pt x="197" y="22" on="0"/>
        <pt x="172" y="-4" on="0"/>
        <pt x="149" y="-4" on="1"/>
        <pt x="129" y="-4" on="0"/>
        <pt x="100" y="22" on="0"/>
      </contour>
      <contour>
        <pt x="275" y="42" on="1"/>
        <pt x="275" y="58" on="0"/>
        <pt x="301" y="86" on="0"/>
        <pt x="324" y="86" on="1"/>
        <pt x="347" y="86" on="0"/>
        <pt x="372" y="58" on="0"/>
        <pt x="372" y="42" on="1"/>
        <pt x="372" y="22" on="0"/>
        <pt x="347" y="-4" on="0"/>
        <pt x="324" y="-4" on="1"/>
        <pt x="304" y="-4" on="0"/>
        <pt x="275" y="22" on="0"/>
      </contour>
      <contour>
        <pt x="450" y="42" on="1"/>
        <pt x="450" y="58" on="0"/>
        <pt x="476" y="86" on="0"/>
        <pt x="499" y="86" on="1"/>
        <pt x="524" y="86" on="0"/>
        <pt x="547" y="58" on="0"/>
        <pt x="547" y="42" on="1"/>
        <pt x="547" y="22" on="0"/>
        <pt x="524" y="-4" on="0"/>
        <pt x="499" y="-4" on="1"/>
        <pt x="479" y="-4" on="0"/>
        <pt x="450" y="22" on="0"/>
      </contour>
    </TTGlyph>
    <TTGlyph name="emdash" xMin="20" yMin="442" xMax="676" yMax="511">
      <contour>
        <pt x="20" y="511" on="1"/>
        <pt x="676" y="511" on="1"/>
        <pt x="676" y="442" on="1"/>
        <pt x="20" y="442" on="1"/>
      </contour>
    </TTGlyph>
    <TTGlyph name="endash" xMin="20" yMin="442" xMax="375" yMax="511">
      <contour>
        <pt x="20" y="511" on="1"/>
        <pt x="375" y="511" on="1"/>
        <pt x="375" y="442" on="1"/>
        <pt x="20" y="442" on="1"/>
      </contour>
    </TTGlyph>
    <TTGlyph name="equal" xMin="25" yMin="499" xMax="672" yMax="890">
      <contour>
        <pt x="672" y="568" on="1"/>
        <pt x="672" y="499" on="1"/>
        <pt x="25" y="499" on="1"/>
        <pt x="25" y="568" on="1"/>
      </contour>
      <contour>
        <pt x="672" y="890" on="1"/>
        <pt x="672" y="821" on="1"/>
        <pt x="25" y="821" on="1"/>
        <pt x="25" y="890" on="1"/>
      </contour>
    </TTGlyph>
    <TTGlyph name="eth" xMin="90" yMin="-4" xMax="531" yMax="1564">
      <contour>
        <pt x="437" y="1273" on="1"/>
        <pt x="531" y="1273" on="1"/>
        <pt x="531" y="1206" on="1"/>
        <pt x="437" y="1206" on="1"/>
        <pt x="437" y="179" on="1"/>
        <pt x="437" y="140" on="0"/>
        <pt x="415" y="73" on="0"/>
        <pt x="371" y="24" on="0"/>
        <pt x="306" y="-4" on="0"/>
        <pt x="264" y="-4" on="1"/>
        <pt x="221" y="-4" on="0"/>
        <pt x="156" y="24" on="0"/>
        <pt x="112" y="73" on="0"/>
        <pt x="90" y="140" on="0"/>
        <pt x="90" y="179" on="1"/>
        <pt x="90" y="1018" on="1"/>
        <pt x="260" y="1018" on="1"/>
        <pt x="298" y="1018" on="0"/>
        <pt x="344" y="1007" on="0"/>
        <pt x="362" y="997" on="1"/>
        <pt x="362" y="1206" on="1"/>
        <pt x="260" y="1206" on="1"/>
        <pt x="260" y="1273" on="1"/>
        <pt x="362" y="1273" on="1"/>
        <pt x="362" y="1564" on="1"/>
        <pt x="437" y="1564" on="1"/>
      </contour>
      <contour>
        <pt x="362" y="856" on="1"/>
        <pt x="362" y="862" on="0"/>
        <pt x="359" y="894" on="0"/>
        <pt x="341" y="926" on="0"/>
        <pt x="301" y="951" on="0"/>
        <pt x="264" y="951" on="1"/>
        <pt x="165" y="951" on="1"/>
        <pt x="165" y="172" on="1"/>
        <pt x="165" y="126" on="0"/>
        <pt x="216" y="63" on="0"/>
        <pt x="264" y="63" on="1"/>
        <pt x="311" y="63" on="0"/>
        <pt x="362" y="126" on="0"/>
        <pt x="362" y="172" on="1"/>
      </contour>
    </TTGlyph>
    <TTGlyph name="exclam" xMin="70" yMin="-20" xMax="167" yMax="1478">
      <contour>
        <pt x="154" y="374" on="1"/>
        <pt x="83" y="374" on="1"/>
        <pt x="81" y="1478" on="1"/>
        <pt x="156" y="1478" on="1"/>
      </contour>
      <contour>
        <pt x="70" y="26" on="1"/>
        <pt x="70" y="42" on="0"/>
        <pt x="95" y="70" on="0"/>
        <pt x="118" y="70" on="1"/>
        <pt x="141" y="70" on="0"/>
        <pt x="167" y="42" on="0"/>
        <pt x="167" y="26" on="1"/>
        <pt x="167" y="6" on="0"/>
        <pt x="141" y="-20" on="0"/>
        <pt x="118" y="-20" on="1"/>
        <pt x="98" y="-20" on="0"/>
        <pt x="70" y="6" on="0"/>
      </contour>
    </TTGlyph>
    <TTGlyph name="exclamdown" xMin="70" yMin="-20" xMax="167" yMax="1478">
      <contour>
        <pt x="156" y="-20" on="1"/>
        <pt x="81" y="-20" on="1"/>
        <pt x="83" y="1084" on="1"/>
        <pt x="154" y="1084" on="1"/>
      </contour>
      <contour>
        <pt x="70" y="1432" on="1"/>
        <pt x="70" y="1452" on="0"/>
        <pt x="98" y="1478" on="0"/>
        <pt x="118" y="1478" on="1"/>
        <pt x="141" y="1478" on="0"/>
        <pt x="167" y="1452" on="0"/>
        <pt x="167" y="1432" on="1"/>
        <pt x="167" y="1416" on="0"/>
        <pt x="141" y="1388" on="0"/>
        <pt x="118" y="1388" on="1"/>
        <pt x="95" y="1388" on="0"/>
        <pt x="70" y="1416" on="0"/>
      </contour>
    </TTGlyph>
    <TTGlyph name="f" xMin="0" yMin="-443" xMax="337" yMax="1584">
      <contour>
        <pt x="84" y="-443" on="1"/>
        <pt x="84" y="951" on="1"/>
        <pt x="0" y="951" on="1"/>
        <pt x="0" y="1018" on="1"/>
        <pt x="84" y="1018" on="1"/>
        <pt x="84" y="1401" on="1"/>
        <pt x="84" y="1441" on="0"/>
        <pt x="106" y="1508" on="0"/>
        <pt x="149" y="1557" on="0"/>
        <pt x="214" y="1584" on="0"/>
        <pt x="257" y="1584" on="1"/>
        <pt x="276" y="1584" on="0"/>
        <pt x="321" y="1575" on="0"/>
        <pt x="337" y="1566" on="1"/>
        <pt x="337" y="1508" on="1"/>
        <pt x="321" y="1512" on="0"/>
        <pt x="289" y="1517" on="0"/>
        <pt x="269" y="1517" on="1"/>
        <pt x="221" y="1517" on="0"/>
        <pt x="159" y="1458" on="0"/>
        <pt x="159" y="1407" on="1"/>
        <pt x="159" y="1018" on="1"/>
        <pt x="307" y="1018" on="1"/>
        <pt x="307" y="951" on="1"/>
        <pt x="159" y="951" on="1"/>
        <pt x="159" y="-443" on="1"/>
      </contour>
    </TTGlyph>
    <TTGlyph name="fi" xMin="20" yMin="-443" xMax="481" yMax="1584">
      <contour>
        <pt x="396" y="0" on="1"/>
        <pt x="396" y="951" on="1"/>
        <pt x="215" y="951" on="1"/>
        <pt x="215" y="-443" on="1"/>
        <pt x="140" y="-443" on="1"/>
        <pt x="140" y="951" on="1"/>
        <pt x="20" y="951" on="1"/>
        <pt x="20" y="1018" on="1"/>
        <pt x="140" y="1018" on="1"/>
        <pt x="140" y="1401" on="1"/>
        <pt x="140" y="1441" on="0"/>
        <pt x="162" y="1508" on="0"/>
        <pt x="205" y="1557" on="0"/>
        <pt x="270" y="1584" on="0"/>
        <pt x="313" y="1584" on="1"/>
        <pt x="332" y="1584" on="0"/>
        <pt x="377" y="1575" on="0"/>
        <pt x="393" y="1566" on="1"/>
        <pt x="393" y="1508" on="1"/>
        <pt x="377" y="1512" on="0"/>
        <pt x="345" y="1517" on="0"/>
        <pt x="325" y="1517" on="1"/>
        <pt x="277" y="1517" on="0"/>
        <pt x="215" y="1458" on="0"/>
        <pt x="215" y="1407" on="1"/>
        <pt x="215" y="1018" on="1"/>
        <pt x="471" y="1018" on="1"/>
        <pt x="471" y="0" on="1"/>
      </contour>
      <contour>
        <pt x="383" y="1363" on="1"/>
        <pt x="383" y="1413" on="0"/>
        <pt x="431" y="1413" on="1"/>
        <pt x="454" y="1413" on="0"/>
        <pt x="481" y="1388" on="0"/>
        <pt x="481" y="1363" on="1"/>
        <pt x="481" y="1344" on="0"/>
        <pt x="456" y="1316" on="0"/>
        <pt x="431" y="1316" on="1"/>
        <pt x="408" y="1316" on="0"/>
        <pt x="383" y="1344" on="0"/>
      </contour>
    </TTGlyph>
    <TTGlyph name="five" xMin="55" yMin="-20" xMax="451" yMax="1393">
      <contour>
        <pt x="451" y="184" on="1"/>
        <pt x="451" y="139" on="0"/>
        <pt x="423" y="64" on="0"/>
        <pt x="371" y="10" on="0"/>
        <pt x="298" y="-20" on="0"/>
        <pt x="253" y="-20" on="1"/>
        <pt x="208" y="-20" on="0"/>
        <pt x="135" y="10" on="0"/>
        <pt x="83" y="64" on="0"/>
        <pt x="55" y="139" on="0"/>
        <pt x="55" y="184" on="1"/>
        <pt x="55" y="546" on="1"/>
        <pt x="130" y="546" on="1"/>
        <pt x="130" y="183" on="1"/>
        <pt x="130" y="121" on="0"/>
        <pt x="196" y="47" on="0"/>
        <pt x="253" y="47" on="1"/>
        <pt x="310" y="47" on="0"/>
        <pt x="376" y="121" on="0"/>
        <pt x="376" y="183" on="1"/>
        <pt x="376" y="679" on="1"/>
        <pt x="376" y="741" on="0"/>
        <pt x="310" y="815" on="0"/>
        <pt x="253" y="815" on="1"/>
        <pt x="55" y="815" on="1"/>
        <pt x="55" y="1393" on="1"/>
        <pt x="451" y="1393" on="1"/>
        <pt x="451" y="1326" on="1"/>
        <pt x="130" y="1326" on="1"/>
        <pt x="130" y="882" on="1"/>
        <pt x="253" y="882" on="1"/>
        <pt x="298" y="882" on="0"/>
        <pt x="371" y="852" on="0"/>
        <pt x="423" y="798" on="0"/>
        <pt x="451" y="723" on="0"/>
        <pt x="451" y="678" on="1"/>
      </contour>
    </TTGlyph>
    <TTGlyph name="fl" xMin="0" yMin="-443" xMax="432" yMax="1584">
      <contour>
        <pt x="357" y="0" on="1"/>
        <pt x="357" y="1502" on="1"/>
        <pt x="346" y="1506" on="0"/>
        <pt x="303" y="1517" on="0"/>
        <pt x="269" y="1517" on="1"/>
        <pt x="221" y="1517" on="0"/>
        <pt x="159" y="1458" on="0"/>
        <pt x="159" y="1407" on="1"/>
        <pt x="159" y="1018" on="1"/>
        <pt x="307" y="1018" on="1"/>
        <pt x="307" y="951" on="1"/>
        <pt x="159" y="951" on="1"/>
        <pt x="159" y="-443" on="1"/>
        <pt x="84" y="-443" on="1"/>
        <pt x="84" y="951" on="1"/>
        <pt x="0" y="951" on="1"/>
        <pt x="0" y="1018" on="1"/>
        <pt x="84" y="1018" on="1"/>
        <pt x="84" y="1401" on="1"/>
        <pt x="84" y="1441" on="0"/>
        <pt x="106" y="1508" on="0"/>
        <pt x="149" y="1557" on="0"/>
        <pt x="214" y="1584" on="0"/>
        <pt x="257" y="1584" on="1"/>
        <pt x="291" y="1584" on="0"/>
        <pt x="343" y="1570" on="0"/>
        <pt x="357" y="1564" on="1"/>
        <pt x="432" y="1564" on="1"/>
        <pt x="432" y="0" on="1"/>
      </contour>
    </TTGlyph>
    <TTGlyph name="florin" xMin="-94" yMin="-449" xMax="337" yMax="1584">
      <contour>
        <pt x="84" y="951" on="1"/>
        <pt x="0" y="951" on="1"/>
        <pt x="0" y="1018" on="1"/>
        <pt x="84" y="1018" on="1"/>
        <pt x="84" y="1401" on="1"/>
        <pt x="84" y="1441" on="0"/>
        <pt x="106" y="1508" on="0"/>
        <pt x="149" y="1557" on="0"/>
        <pt x="214" y="1584" on="0"/>
        <pt x="257" y="1584" on="1"/>
        <pt x="276" y="1584" on="0"/>
        <pt x="321" y="1575" on="0"/>
        <pt x="337" y="1566" on="1"/>
        <pt x="337" y="1508" on="1"/>
        <pt x="321" y="1512" on="0"/>
        <pt x="289" y="1517" on="0"/>
        <pt x="269" y="1517" on="1"/>
        <pt x="221" y="1517" on="0"/>
        <pt x="159" y="1458" on="0"/>
        <pt x="159" y="1407" on="1"/>
        <pt x="159" y="1018" on="1"/>
        <pt x="307" y="1018" on="1"/>
        <pt x="307" y="951" on="1"/>
        <pt x="159" y="951" on="1"/>
        <pt x="159" y="-266" on="1"/>
        <pt x="159" y="-306" on="0"/>
        <pt x="137" y="-373" on="0"/>
        <pt x="94" y="-422" on="0"/>
        <pt x="29" y="-449" on="0"/>
        <pt x="-14" y="-449" on="1"/>
        <pt x="-33" y="-449" on="0"/>
        <pt x="-78" y="-440" on="0"/>
        <pt x="-94" y="-431" on="1"/>
        <pt x="-94" y="-373" on="1"/>
        <pt x="-78" y="-377" on="0"/>
        <pt x="-46" y="-382" on="0"/>
        <pt x="-26" y="-382" on="1"/>
        <pt x="22" y="-382" on="0"/>
        <pt x="84" y="-323" on="0"/>
        <pt x="84" y="-272" on="1"/>
      </contour>
    </TTGlyph>
    <TTGlyph name="four" xMin="5" yMin="-1" xMax="519" yMax="1392">
      <contour>
        <pt x="401" y="794" on="1"/>
        <pt x="401" y="547" on="1"/>
        <pt x="519" y="547" on="1"/>
        <pt x="519" y="480" on="1"/>
        <pt x="401" y="480" on="1"/>
        <pt x="401" y="-1" on="1"/>
        <pt x="326" y="-1" on="1"/>
        <pt x="326" y="480" on="1"/>
        <pt x="5" y="480" on="1"/>
        <pt x="5" y="526" on="1"/>
        <pt x="316" y="1392" on="1"/>
        <pt x="389" y="1392" on="1"/>
        <pt x="92" y="547" on="1"/>
        <pt x="326" y="547" on="1"/>
        <pt x="326" y="794" on="1"/>
      </contour>
    </TTGlyph>
    <TTGlyph name="fraction" xMin="-35" yMin="0" xMax="381" yMax="1393">
      <contour>
        <pt x="312" y="1393" on="1"/>
        <pt x="381" y="1393" on="1"/>
        <pt x="34" y="0" on="1"/>
        <pt x="-35" y="0" on="1"/>
      </contour>
    </TTGlyph>
    <TTGlyph name="g" xMin="65" yMin="-464" xMax="412" yMax="1018">
      <contour>
        <pt x="337" y="0" on="1"/>
        <pt x="239" y="0" on="1"/>
        <pt x="196" y="0" on="0"/>
        <pt x="131" y="28" on="0"/>
        <pt x="87" y="77" on="0"/>
        <pt x="65" y="144" on="0"/>
        <pt x="65" y="183" on="1"/>
        <pt x="65" y="1018" on="1"/>
        <pt x="239" y="1018" on="1"/>
        <pt x="281" y="1018" on="0"/>
        <pt x="346" y="991" on="0"/>
        <pt x="390" y="942" on="0"/>
        <pt x="412" y="875" on="0"/>
        <pt x="412" y="836" on="1"/>
        <pt x="412" y="-281" on="1"/>
        <pt x="412" y="-320" on="0"/>
        <pt x="390" y="-387" on="0"/>
        <pt x="346" y="-436" on="0"/>
        <pt x="281" y="-464" on="0"/>
        <pt x="238" y="-464" on="1"/>
        <pt x="196" y="-464" on="0"/>
        <pt x="131" y="-433" on="0"/>
        <pt x="88" y="-379" on="0"/>
        <pt x="66" y="-305" on="0"/>
        <pt x="66" y="-262" on="1"/>
        <pt x="140" y="-273" on="1"/>
        <pt x="140" y="-325" on="0"/>
        <pt x="191" y="-397" on="0"/>
        <pt x="238" y="-397" on="1"/>
        <pt x="286" y="-397" on="0"/>
        <pt x="337" y="-334" on="0"/>
        <pt x="337" y="-288" on="1"/>
      </contour>
      <contour>
        <pt x="140" y="176" on="1"/>
        <pt x="140" y="130" on="0"/>
        <pt x="191" y="67" on="0"/>
        <pt x="239" y="67" on="1"/>
        <pt x="337" y="67" on="1"/>
        <pt x="337" y="841" on="1"/>
        <pt x="337" y="887" on="0"/>
        <pt x="286" y="951" on="0"/>
        <pt x="239" y="951" on="1"/>
        <pt x="140" y="951" on="1"/>
      </contour>
    </TTGlyph>
    <TTGlyph name="germandbls" xMin="90" yMin="-4" xMax="594" yMax="1385">
      <contour>
        <pt x="304" y="71" on="1"/>
        <pt x="344" y="63" on="0"/>
        <pt x="380" y="63" on="1"/>
        <pt x="410" y="63" on="0"/>
        <pt x="461" y="85" on="0"/>
        <pt x="498" y="122" on="0"/>
        <pt x="519" y="174" on="0"/>
        <pt x="519" y="204" on="1"/>
        <pt x="519" y="239" on="0"/>
        <pt x="492" y="313" on="0"/>
        <pt x="450" y="385" on="0"/>
        <pt x="400" y="451" on="0"/>
        <pt x="377" y="478" on="1"/>
        <pt x="353" y="506" on="0"/>
        <pt x="304" y="570" on="0"/>
        <pt x="263" y="641" on="0"/>
        <pt x="237" y="714" on="0"/>
        <pt x="237" y="751" on="1"/>
        <pt x="237" y="791" on="0"/>
        <pt x="258" y="863" on="0"/>
        <pt x="291" y="927" on="0"/>
        <pt x="334" y="987" on="0"/>
        <pt x="355" y="1015" on="1"/>
        <pt x="373" y="1039" on="0"/>
        <pt x="409" y="1089" on="0"/>
        <pt x="438" y="1140" on="0"/>
        <pt x="455" y="1192" on="0"/>
        <pt x="455" y="1219" on="1"/>
        <pt x="455" y="1247" on="0"/>
        <pt x="435" y="1286" on="0"/>
        <pt x="402" y="1308" on="0"/>
        <pt x="361" y="1318" on="0"/>
        <pt x="339" y="1318" on="1"/>
        <pt x="302" y="1318" on="0"/>
        <pt x="238" y="1299" on="0"/>
        <pt x="192" y="1250" on="0"/>
        <pt x="165" y="1166" on="0"/>
        <pt x="165" y="1101" on="1"/>
        <pt x="165" y="0" on="1"/>
        <pt x="90" y="0" on="1"/>
        <pt x="90" y="1097" on="1"/>
        <pt x="90" y="1146" on="0"/>
        <pt x="107" y="1249" on="0"/>
        <pt x="158" y="1332" on="0"/>
        <pt x="254" y="1385" on="0"/>
        <pt x="333" y="1385" on="1"/>
        <pt x="373" y="1385" on="0"/>
        <pt x="444" y="1369" on="0"/>
        <pt x="498" y="1331" on="0"/>
        <pt x="530" y="1271" on="0"/>
        <pt x="530" y="1227" on="1"/>
        <pt x="530" y="1187" on="0"/>
        <pt x="510" y="1117" on="0"/>
        <pt x="477" y="1054" on="0"/>
        <pt x="435" y="995" on="0"/>
        <pt x="414" y="967" on="1"/>
        <pt x="394" y="941" on="0"/>
        <pt x="358" y="891" on="0"/>
        <pt x="329" y="838" on="0"/>
        <pt x="312" y="783" on="0"/>
        <pt x="312" y="753" on="1"/>
        <pt x="312" y="723" on="0"/>
        <pt x="336" y="660" on="0"/>
        <pt x="373" y="599" on="0"/>
        <pt x="419" y="542" on="0"/>
        <pt x="440" y="517" on="1"/>
        <pt x="466" y="486" on="0"/>
        <pt x="521" y="417" on="0"/>
        <pt x="566" y="342" on="0"/>
        <pt x="594" y="260" on="0"/>
        <pt x="594" y="217" on="1"/>
        <pt x="594" y="168" on="0"/>
        <pt x="561" y="87" on="0"/>
        <pt x="504" y="28" on="0"/>
        <pt x="424" y="-4" on="0"/>
        <pt x="378" y="-4" on="1"/>
        <pt x="358" y="-4" on="0"/>
        <pt x="306" y="3" on="0"/>
        <pt x="276" y="9" on="1"/>
      </contour>
    </TTGlyph>
    <TTGlyph name="grave" xMin="100" yMin="1104" xMax="311" yMax="1393">
      <contour>
        <pt x="311" y="1104" on="1"/>
        <pt x="238" y="1104" on="1"/>
        <pt x="100" y="1393" on="1"/>
        <pt x="184" y="1393" on="1"/>
      </contour>
    </TTGlyph>
    <TTGlyph name="greater" xMin="25" yMin="162" xMax="725" yMax="1204">
      <contour>
        <pt x="725" y="660" on="1"/>
        <pt x="25" y="162" on="1"/>
        <pt x="25" y="247" on="1"/>
        <pt x="640" y="694" on="1"/>
        <pt x="25" y="1119" on="1"/>
        <pt x="25" y="1204" on="1"/>
        <pt x="725" y="729" on="1"/>
      </contour>
    </TTGlyph>
    <TTGlyph name="guillemotleft" xMin="25" yMin="458" xMax="476" yMax="1114">
      <contour>
        <pt x="250" y="458" on="1"/>
        <pt x="25" y="786" on="1"/>
        <pt x="250" y="1114" on="1"/>
        <pt x="303" y="1114" on="1"/>
        <pt x="303" y="1071" on="1"/>
        <pt x="125" y="786" on="1"/>
        <pt x="303" y="499" on="1"/>
        <pt x="303" y="458" on="1"/>
      </contour>
      <contour>
        <pt x="423" y="458" on="1"/>
        <pt x="198" y="786" on="1"/>
        <pt x="423" y="1114" on="1"/>
        <pt x="476" y="1114" on="1"/>
        <pt x="476" y="1071" on="1"/>
        <pt x="298" y="786" on="1"/>
        <pt x="476" y="499" on="1"/>
        <pt x="476" y="458" on="1"/>
      </contour>
    </TTGlyph>
    <TTGlyph name="guillemotright" xMin="25" yMin="458" xMax="476" yMax="1114">
      <contour>
        <pt x="198" y="458" on="1"/>
        <pt x="198" y="499" on="1"/>
        <pt x="376" y="786" on="1"/>
        <pt x="198" y="1071" on="1"/>
        <pt x="198" y="1114" on="1"/>
        <pt x="251" y="1114" on="1"/>
        <pt x="476" y="786" on="1"/>
        <pt x="251" y="458" on="1"/>
      </contour>
      <contour>
        <pt x="25" y="458" on="1"/>
        <pt x="25" y="499" on="1"/>
        <pt x="203" y="786" on="1"/>
        <pt x="25" y="1071" on="1"/>
        <pt x="25" y="1114" on="1"/>
        <pt x="78" y="1114" on="1"/>
        <pt x="303" y="786" on="1"/>
        <pt x="78" y="458" on="1"/>
      </contour>
    </TTGlyph>
    <TTGlyph name="guilsinglleft" xMin="25" yMin="458" xMax="303" yMax="1114">
      <contour>
        <pt x="250" y="458" on="1"/>
        <pt x="25" y="786" on="1"/>
        <pt x="250" y="1114" on="1"/>
        <pt x="303" y="1114" on="1"/>
        <pt x="303" y="1071" on="1"/>
        <pt x="125" y="786" on="1"/>
        <pt x="303" y="499" on="1"/>
        <pt x="303" y="458" on="1"/>
      </contour>
    </TTGlyph>
    <TTGlyph name="guilsinglright" xMin="25" yMin="458" xMax="303" yMax="1114">
      <contour>
        <pt x="25" y="458" on="1"/>
        <pt x="25" y="499" on="1"/>
        <pt x="203" y="786" on="1"/>
        <pt x="25" y="1071" on="1"/>
        <pt x="25" y="1114" on="1"/>
        <pt x="78" y="1114" on="1"/>
        <pt x="303" y="786" on="1"/>
        <pt x="78" y="458" on="1"/>
      </contour>
    </TTGlyph>
    <TTGlyph name="h" xMin="70" yMin="0" xMax="417" yMax="1564">
      <contour>
        <pt x="417" y="1018" on="1"/>
        <pt x="417" y="0" on="1"/>
        <pt x="342" y="0" on="1"/>
        <pt x="342" y="951" on="1"/>
        <pt x="244" y="951" on="1"/>
        <pt x="196" y="951" on="0"/>
        <pt x="145" y="887" on="0"/>
        <pt x="145" y="841" on="1"/>
        <pt x="145" y="0" on="1"/>
        <pt x="70" y="0" on="1"/>
        <pt x="70" y="1564" on="1"/>
        <pt x="145" y="1564" on="1"/>
        <pt x="145" y="992" on="1"/>
        <pt x="165" y="1005" on="0"/>
        <pt x="212" y="1018" on="0"/>
        <pt x="244" y="1018" on="1"/>
      </contour>
    </TTGlyph>
    <TTGlyph name="hungarumlaut" xMin="100" yMin="1104" xMax="503" yMax="1393">
      <contour>
        <pt x="227" y="1393" on="1"/>
        <pt x="311" y="1393" on="1"/>
        <pt x="173" y="1104" on="1"/>
        <pt x="100" y="1104" on="1"/>
      </contour>
      <contour>
        <pt x="419" y="1393" on="1"/>
        <pt x="503" y="1393" on="1"/>
        <pt x="365" y="1104" on="1"/>
        <pt x="292" y="1104" on="1"/>
      </contour>
    </TTGlyph>
    <TTGlyph name="hyphen" xMin="10" yMin="442" xMax="218" yMax="511">
      <contour>
        <pt x="10" y="511" on="1"/>
        <pt x="218" y="511" on="1"/>
        <pt x="218" y="442" on="1"/>
        <pt x="10" y="442" on="1"/>
      </contour>
    </TTGlyph>
    <TTGlyph name="i" xMin="70" yMin="0" xMax="168" yMax="1413">
      <contour>
        <pt x="80" y="0" on="1"/>
        <pt x="80" y="1018" on="1"/>
        <pt x="155" y="1018" on="1"/>
        <pt x="155" y="0" on="1"/>
      </contour>
      <contour>
        <pt x="70" y="1363" on="1"/>
        <pt x="70" y="1413" on="0"/>
        <pt x="118" y="1413" on="1"/>
        <pt x="141" y="1413" on="0"/>
        <pt x="168" y="1388" on="0"/>
        <pt x="168" y="1363" on="1"/>
        <pt x="168" y="1344" on="0"/>
        <pt x="143" y="1316" on="0"/>
        <pt x="118" y="1316" on="1"/>
        <pt x="95" y="1316" on="0"/>
        <pt x="70" y="1344" on="0"/>
      </contour>
    </TTGlyph>
    <TTGlyph name="iacute" xMin="61" yMin="0" xMax="272" yMax="1393">
      <component glyphName="dotlessi" x="0" y="0" flags="0x204"/>
      <component glyphName="acute" x="-39" y="0" flags="0x4"/>
    </TTGlyph>
    <TTGlyph name="icircumflex" xMin="15" yMin="0" xMax="338" yMax="1394">
      <component glyphName="circumflex.lc" x="-69" y="1" flags="0x4"/>
      <component glyphName="dotlessi" x="64" y="0" flags="0x4"/>
    </TTGlyph>
    <TTGlyph name="idieresis" xMin="-59" yMin="0" xMax="299" yMax="1293">
      <component glyphName="dotlessi" x="0" y="0" flags="0x204"/>
      <component glyphName="dieresis" x="-159" y="0" flags="0x4"/>
    </TTGlyph>
    <TTGlyph name="igrave" xMin="-54" yMin="0" xMax="157" yMax="1393">
      <component glyphName="dotlessi" x="0" y="0" flags="0x204"/>
      <component glyphName="grave" x="-154" y="0" flags="0x4"/>
    </TTGlyph>
    <TTGlyph name="j" xMin="70" yMin="-442" xMax="168" yMax="1413">
      <contour>
        <pt x="70" y="1363" on="1"/>
        <pt x="70" y="1413" on="0"/>
        <pt x="118" y="1413" on="1"/>
        <pt x="141" y="1413" on="0"/>
        <pt x="168" y="1388" on="0"/>
        <pt x="168" y="1363" on="1"/>
        <pt x="168" y="1344" on="0"/>
        <pt x="143" y="1316" on="0"/>
        <pt x="118" y="1316" on="1"/>
        <pt x="95" y="1316" on="0"/>
        <pt x="70" y="1344" on="0"/>
      </contour>
      <contour>
        <pt x="80" y="-442" on="1"/>
        <pt x="80" y="1018" on="1"/>
        <pt x="155" y="1018" on="1"/>
        <pt x="155" y="-442" on="1"/>
      </contour>
    </TTGlyph>
    <TTGlyph name="k" xMin="70" yMin="0" xMax="474" yMax="1564">
      <contour>
        <pt x="399" y="0" on="1"/>
        <pt x="250" y="464" on="1"/>
        <pt x="223" y="440" on="0"/>
        <pt x="169" y="411" on="0"/>
        <pt x="145" y="405" on="1"/>
        <pt x="145" y="0" on="1"/>
        <pt x="70" y="0" on="1"/>
        <pt x="70" y="1564" on="1"/>
        <pt x="145" y="1564" on="1"/>
        <pt x="145" y="992" on="1"/>
        <pt x="165" y="1005" on="0"/>
        <pt x="212" y="1018" on="0"/>
        <pt x="244" y="1018" on="1"/>
        <pt x="417" y="1018" on="1"/>
        <pt x="417" y="939" on="1"/>
        <pt x="417" y="792" on="0"/>
        <pt x="351" y="588" on="0"/>
        <pt x="304" y="524" on="1"/>
        <pt x="474" y="0" on="1"/>
      </contour>
      <contour>
        <pt x="145" y="482" on="1"/>
        <pt x="170" y="491" on="0"/>
        <pt x="237" y="547" on="0"/>
        <pt x="299" y="654" on="0"/>
        <pt x="342" y="820" on="0"/>
        <pt x="342" y="939" on="1"/>
        <pt x="342" y="951" on="1"/>
        <pt x="244" y="951" on="1"/>
        <pt x="196" y="951" on="0"/>
        <pt x="145" y="887" on="0"/>
        <pt x="145" y="841" on="1"/>
      </contour>
    </TTGlyph>
    <TTGlyph name="l" xMin="70" yMin="0" xMax="145" yMax="1564">
      <contour>
        <pt x="70" y="0" on="1"/>
        <pt x="70" y="1564" on="1"/>
        <pt x="145" y="1564" on="1"/>
        <pt x="145" y="0" on="1"/>
      </contour>
    </TTGlyph>
    <TTGlyph name="less" xMin="25" yMin="162" xMax="725" yMax="1204">
      <contour>
        <pt x="25" y="729" on="1"/>
        <pt x="725" y="1204" on="1"/>
        <pt x="725" y="1119" on="1"/>
        <pt x="110" y="694" on="1"/>
        <pt x="725" y="247" on="1"/>
        <pt x="725" y="162" on="1"/>
        <pt x="25" y="660" on="1"/>
      </contour>
    </TTGlyph>
    <TTGlyph name="m" xMin="70" yMin="0" xMax="690" yMax="1018">
      <contour>
        <pt x="414" y="0" on="1"/>
        <pt x="344" y="0" on="1"/>
        <pt x="344" y="841" on="1"/>
        <pt x="344" y="892" on="0"/>
        <pt x="294" y="951" on="0"/>
        <pt x="246" y="951" on="1"/>
        <pt x="145" y="951" on="1"/>
        <pt x="145" y="0" on="1"/>
        <pt x="70" y="0" on="1"/>
        <pt x="70" y="1018" on="1"/>
        <pt x="243" y="1018" on="1"/>
        <pt x="288" y="1018" on="0"/>
        <pt x="358" y="987" on="0"/>
        <pt x="379" y="961" on="1"/>
        <pt x="401" y="986" on="0"/>
        <pt x="472" y="1018" on="0"/>
        <pt x="516" y="1018" on="1"/>
        <pt x="690" y="1018" on="1"/>
        <pt x="690" y="0" on="1"/>
        <pt x="615" y="0" on="1"/>
        <pt x="615" y="951" on="1"/>
        <pt x="513" y="951" on="1"/>
        <pt x="465" y="951" on="0"/>
        <pt x="414" y="892" on="0"/>
        <pt x="414" y="841" on="1"/>
      </contour>
    </TTGlyph>
    <TTGlyph name="minus" xMin="25" yMin="339" xMax="672" yMax="408">
      <contour>
        <pt x="672" y="408" on="1"/>
        <pt x="672" y="339" on="1"/>
        <pt x="25" y="339" on="1"/>
        <pt x="25" y="408" on="1"/>
      </contour>
    </TTGlyph>
    <TTGlyph name="mu" xMin="90" yMin="-327" xMax="437" yMax="1018">
      <contour>
        <pt x="90" y="-327" on="1"/>
        <pt x="90" y="1018" on="1"/>
        <pt x="165" y="1018" on="1"/>
        <pt x="165" y="68" on="1"/>
        <pt x="251" y="68" on="1"/>
        <pt x="267" y="68" on="0"/>
        <pt x="306" y="73" on="0"/>
        <pt x="339" y="93" on="0"/>
        <pt x="362" y="131" on="0"/>
        <pt x="362" y="163" on="1"/>
        <pt x="362" y="1018" on="1"/>
        <pt x="437" y="1018" on="1"/>
        <pt x="437" y="163" on="1"/>
        <pt x="437" y="107" on="0"/>
        <pt x="397" y="42" on="0"/>
        <pt x="340" y="9" on="0"/>
        <pt x="276" y="0" on="0"/>
        <pt x="252" y="0" on="1"/>
        <pt x="165" y="0" on="1"/>
        <pt x="165" y="-327" on="1"/>
      </contour>
    </TTGlyph>
    <TTGlyph name="multiply" xMin="35" yMin="406" xMax="602" yMax="973">
      <contour>
        <pt x="372" y="689" on="1"/>
        <pt x="602" y="460" on="1"/>
        <pt x="548" y="406" on="1"/>
        <pt x="318" y="635" on="1"/>
        <pt x="89" y="406" on="1"/>
        <pt x="35" y="460" on="1"/>
        <pt x="264" y="689" on="1"/>
        <pt x="35" y="919" on="1"/>
        <pt x="89" y="973" on="1"/>
        <pt x="318" y="743" on="1"/>
        <pt x="548" y="973" on="1"/>
        <pt x="602" y="919" on="1"/>
      </contour>
    </TTGlyph>
    <TTGlyph name="n" xMin="70" yMin="0" xMax="417" yMax="1018">
      <contour>
        <pt x="417" y="0" on="1"/>
        <pt x="342" y="0" on="1"/>
        <pt x="342" y="841" on="1"/>
        <pt x="342" y="887" on="0"/>
        <pt x="291" y="951" on="0"/>
        <pt x="244" y="951" on="1"/>
        <pt x="145" y="951" on="1"/>
        <pt x="145" y="0" on="1"/>
        <pt x="70" y="0" on="1"/>
        <pt x="70" y="1018" on="1"/>
        <pt x="244" y="1018" on="1"/>
        <pt x="286" y="1018" on="0"/>
        <pt x="351" y="991" on="0"/>
        <pt x="395" y="942" on="0"/>
        <pt x="417" y="875" on="0"/>
        <pt x="417" y="836" on="1"/>
      </contour>
    </TTGlyph>
    <TTGlyph name="nine" xMin="25" yMin="-20" xMax="421" yMax="1413">
      <contour>
        <pt x="100" y="940" on="1"/>
        <pt x="100" y="878" on="0"/>
        <pt x="166" y="804" on="0"/>
        <pt x="223" y="804" on="1"/>
        <pt x="346" y="804" on="1"/>
        <pt x="346" y="1209" on="1"/>
        <pt x="346" y="1272" on="0"/>
        <pt x="280" y="1346" on="0"/>
        <pt x="223" y="1346" on="1"/>
        <pt x="166" y="1346" on="0"/>
        <pt x="100" y="1272" on="0"/>
        <pt x="100" y="1210" on="1"/>
      </contour>
      <contour>
        <pt x="25" y="1209" on="1"/>
        <pt x="25" y="1254" on="0"/>
        <pt x="53" y="1329" on="0"/>
        <pt x="105" y="1383" on="0"/>
        <pt x="178" y="1413" on="0"/>
        <pt x="223" y="1413" on="1"/>
        <pt x="268" y="1413" on="0"/>
        <pt x="341" y="1383" on="0"/>
        <pt x="393" y="1329" on="0"/>
        <pt x="421" y="1254" on="0"/>
        <pt x="421" y="1209" on="1"/>
        <pt x="421" y="184" on="1"/>
        <pt x="421" y="139" on="0"/>
        <pt x="393" y="64" on="0"/>
        <pt x="341" y="10" on="0"/>
        <pt x="268" y="-20" on="0"/>
        <pt x="223" y="-20" on="1"/>
        <pt x="178" y="-20" on="0"/>
        <pt x="105" y="10" on="0"/>
        <pt x="53" y="64" on="0"/>
        <pt x="25" y="139" on="0"/>
        <pt x="25" y="184" on="1"/>
        <pt x="25" y="412" on="1"/>
        <pt x="100" y="412" on="1"/>
        <pt x="100" y="183" on="1"/>
        <pt x="100" y="121" on="0"/>
        <pt x="166" y="47" on="0"/>
        <pt x="223" y="47" on="1"/>
        <pt x="280" y="47" on="0"/>
        <pt x="346" y="121" on="0"/>
        <pt x="346" y="184" on="1"/>
        <pt x="346" y="737" on="1"/>
        <pt x="223" y="737" on="1"/>
        <pt x="178" y="737" on="0"/>
        <pt x="105" y="767" on="0"/>
        <pt x="53" y="821" on="0"/>
        <pt x="25" y="896" on="0"/>
        <pt x="25" y="941" on="1"/>
      </contour>
    </TTGlyph>
    <TTGlyph name="notequal" xMin="25" yMin="130" xMax="672" yMax="1215">
      <contour>
        <pt x="526" y="1215" on="1"/>
        <pt x="592" y="1215" on="1"/>
        <pt x="476" y="890" on="1"/>
        <pt x="672" y="890" on="1"/>
        <pt x="672" y="821" on="1"/>
        <pt x="451" y="821" on="1"/>
        <pt x="361" y="568" on="1"/>
        <pt x="672" y="568" on="1"/>
        <pt x="672" y="499" on="1"/>
        <pt x="336" y="499" on="1"/>
        <pt x="205" y="130" on="1"/>
        <pt x="135" y="130" on="1"/>
        <pt x="268" y="499" on="1"/>
        <pt x="25" y="499" on="1"/>
        <pt x="25" y="568" on="1"/>
        <pt x="293" y="568" on="1"/>
        <pt x="384" y="821" on="1"/>
        <pt x="25" y="821" on="1"/>
        <pt x="25" y="890" on="1"/>
        <pt x="409" y="890" on="1"/>
      </contour>
    </TTGlyph>
    <TTGlyph name="ntilde" xMin="71" yMin="0" xMax="532" yMax="1413">
      <component glyphName="n" x="68" y="0" flags="0x4"/>
      <component glyphName="tilde" x="-29" y="0" flags="0x4"/>
    </TTGlyph>
    <TTGlyph name="numbersign" xMin="70" yMin="224" xMax="680" yMax="1198">
      <contour>
        <pt x="510" y="403" on="1"/>
        <pt x="257" y="403" on="1"/>
        <pt x="257" y="224" on="1"/>
        <pt x="182" y="224" on="1"/>
        <pt x="182" y="403" on="1"/>
        <pt x="70" y="403" on="1"/>
        <pt x="70" y="470" on="1"/>
        <pt x="182" y="470" on="1"/>
        <pt x="182" y="951" on="1"/>
        <pt x="70" y="951" on="1"/>
        <pt x="70" y="1018" on="1"/>
        <pt x="182" y="1018" on="1"/>
        <pt x="182" y="1198" on="1"/>
        <pt x="257" y="1198" on="1"/>
        <pt x="257" y="1018" on="1"/>
        <pt x="510" y="1018" on="1"/>
        <pt x="510" y="1198" on="1"/>
        <pt x="585" y="1198" on="1"/>
        <pt x="585" y="1018" on="1"/>
        <pt x="680" y="1018" on="1"/>
        <pt x="680" y="951" on="1"/>
        <pt x="585" y="951" on="1"/>
        <pt x="585" y="470" on="1"/>
        <pt x="680" y="470" on="1"/>
        <pt x="680" y="403" on="1"/>
        <pt x="585" y="403" on="1"/>
        <pt x="585" y="224" on="1"/>
        <pt x="510" y="224" on="1"/>
      </contour>
      <contour>
        <pt x="257" y="470" on="1"/>
        <pt x="510" y="470" on="1"/>
        <pt x="510" y="951" on="1"/>
        <pt x="257" y="951" on="1"/>
      </contour>
    </TTGlyph>
    <TTGlyph name="o" xMin="60" yMin="-20" xMax="407" yMax="1038">
      <contour>
        <pt x="407" y="182" on="1"/>
        <pt x="407" y="138" on="0"/>
        <pt x="385" y="64" on="0"/>
        <pt x="341" y="10" on="0"/>
        <pt x="276" y="-20" on="0"/>
        <pt x="233" y="-20" on="1"/>
        <pt x="190" y="-20" on="0"/>
        <pt x="125" y="7" on="0"/>
        <pt x="82" y="56" on="0"/>
        <pt x="60" y="123" on="0"/>
        <pt x="60" y="163" on="1"/>
        <pt x="60" y="856" on="1"/>
        <pt x="60" y="895" on="0"/>
        <pt x="82" y="962" on="0"/>
        <pt x="126" y="1011" on="0"/>
        <pt x="191" y="1038" on="0"/>
        <pt x="234" y="1038" on="1"/>
        <pt x="407" y="1038" on="1"/>
      </contour>
      <contour>
        <pt x="135" y="157" on="1"/>
        <pt x="135" y="111" on="0"/>
        <pt x="186" y="47" on="0"/>
        <pt x="234" y="47" on="1"/>
        <pt x="281" y="47" on="0"/>
        <pt x="332" y="120" on="0"/>
        <pt x="332" y="172" on="1"/>
        <pt x="332" y="971" on="1"/>
        <pt x="234" y="971" on="1"/>
        <pt x="186" y="971" on="0"/>
        <pt x="135" y="907" on="0"/>
        <pt x="135" y="861" on="1"/>
      </contour>
    </TTGlyph>
    <TTGlyph name="oacute" xMin="70" yMin="-20" xMax="417" yMax="1393">
      <component glyphName="o" x="10" y="0" flags="0x4"/>
      <component glyphName="acute" x="56" y="0" flags="0x4"/>
    </TTGlyph>
    <TTGlyph name="ocircumflex" xMin="70" yMin="-20" xMax="417" yMax="1394">
      <component glyphName="o" x="10" y="0" flags="0x4"/>
      <component glyphName="circumflex.lc" x="1" y="1" flags="0x4"/>
    </TTGlyph>
    <TTGlyph name="odieresis" xMin="70" yMin="-20" xMax="435" yMax="1293">
      <component glyphName="o" x="10" y="0" flags="0x4"/>
      <component glyphName="dieresis" x="-23" y="0" flags="0x4"/>
    </TTGlyph>
    <TTGlyph name="oe" xMin="70" yMin="-20" xMax="689" yMax="1018">
      <contour>
        <pt x="689" y="1018" on="1"/>
        <pt x="689" y="604" on="1"/>
        <pt x="689" y="564" on="0"/>
        <pt x="667" y="497" on="0"/>
        <pt x="623" y="448" on="0"/>
        <pt x="558" y="421" on="0"/>
        <pt x="516" y="421" on="1"/>
        <pt x="417" y="421" on="1"/>
        <pt x="417" y="156" on="1"/>
        <pt x="417" y="110" on="0"/>
        <pt x="468" y="47" on="0"/>
        <pt x="516" y="47" on="1"/>
        <pt x="563" y="47" on="0"/>
        <pt x="614" y="119" on="0"/>
        <pt x="614" y="171" on="1"/>
        <pt x="688" y="182" on="1"/>
        <pt x="688" y="139" on="0"/>
        <pt x="666" y="65" on="0"/>
        <pt x="623" y="11" on="0"/>
        <pt x="558" y="-20" on="0"/>
        <pt x="516" y="-20" on="1"/>
        <pt x="468" y="-20" on="0"/>
        <pt x="399" y="14" on="0"/>
        <pt x="377" y="43" on="1"/>
        <pt x="355" y="13" on="0"/>
        <pt x="288" y="-20" on="0"/>
        <pt x="243" y="-20" on="1"/>
        <pt x="200" y="-20" on="0"/>
        <pt x="135" y="7" on="0"/>
        <pt x="92" y="56" on="0"/>
        <pt x="70" y="123" on="0"/>
        <pt x="70" y="163" on="1"/>
        <pt x="70" y="836" on="1"/>
        <pt x="70" y="875" on="0"/>
        <pt x="92" y="942" on="0"/>
        <pt x="136" y="991" on="0"/>
        <pt x="201" y="1018" on="0"/>
        <pt x="244" y="1018" on="1"/>
      </contour>
      <contour>
        <pt x="145" y="157" on="1"/>
        <pt x="145" y="111" on="0"/>
        <pt x="196" y="47" on="0"/>
        <pt x="244" y="47" on="1"/>
        <pt x="291" y="47" on="0"/>
        <pt x="342" y="120" on="0"/>
        <pt x="342" y="172" on="1"/>
        <pt x="342" y="951" on="1"/>
        <pt x="244" y="951" on="1"/>
        <pt x="196" y="951" on="0"/>
        <pt x="145" y="887" on="0"/>
        <pt x="145" y="841" on="1"/>
      </contour>
      <contour>
        <pt x="417" y="951" on="1"/>
        <pt x="417" y="488" on="1"/>
        <pt x="516" y="488" on="1"/>
        <pt x="563" y="488" on="0"/>
        <pt x="614" y="550" on="0"/>
        <pt x="614" y="597" on="1"/>
        <pt x="614" y="951" on="1"/>
      </contour>
    </TTGlyph>
    <TTGlyph name="ograve" xMin="70" yMin="-20" xMax="417" yMax="1394">
      <component glyphName="o" x="10" y="0" flags="0x4"/>
      <component glyphName="grave" x="46" y="1" flags="0x4"/>
    </TTGlyph>
    <TTGlyph name="one" xMin="20" yMin="0" xMax="245" yMax="1393">
      <contour>
        <pt x="170" y="1326" on="1"/>
        <pt x="20" y="1326" on="1"/>
        <pt x="20" y="1393" on="1"/>
        <pt x="245" y="1393" on="1"/>
        <pt x="245" y="0" on="1"/>
        <pt x="170" y="0" on="1"/>
      </contour>
    </TTGlyph>
    <TTGlyph name="onehalf" xMin="5" yMin="0" xMax="852" yMax="1393">
      <contour>
        <pt x="115" y="1335" on="1"/>
        <pt x="5" y="1335" on="1"/>
        <pt x="5" y="1393" on="1"/>
        <pt x="180" y="1393" on="1"/>
        <pt x="180" y="418" on="1"/>
        <pt x="115" y="418" on="1"/>
      </contour>
      <contour>
        <pt x="565" y="1393" on="1"/>
        <pt x="634" y="1393" on="1"/>
        <pt x="287" y="0" on="1"/>
        <pt x="218" y="0" on="1"/>
      </contour>
      <contour>
        <pt x="787" y="842" on="1"/>
        <pt x="787" y="882" on="0"/>
        <pt x="743" y="931" on="0"/>
        <pt x="708" y="931" on="1"/>
        <pt x="671" y="931" on="0"/>
        <pt x="629" y="882" on="0"/>
        <pt x="629" y="843" on="1"/>
        <pt x="629" y="708" on="1"/>
        <pt x="564" y="708" on="1"/>
        <pt x="564" y="842" on="1"/>
        <pt x="564" y="908" on="0"/>
        <pt x="642" y="989" on="0"/>
        <pt x="708" y="989" on="1"/>
        <pt x="774" y="989" on="0"/>
        <pt x="852" y="908" on="0"/>
        <pt x="852" y="842" on="1"/>
        <pt x="852" y="683" on="1"/>
        <pt x="852" y="658" on="0"/>
        <pt x="832" y="596" on="0"/>
        <pt x="800" y="525" on="0"/>
        <pt x="758" y="449" on="0"/>
        <pt x="737" y="410" on="1"/>
        <pt x="716" y="373" on="0"/>
        <pt x="677" y="300" on="0"/>
        <pt x="647" y="233" on="0"/>
        <pt x="629" y="175" on="0"/>
        <pt x="629" y="153" on="1"/>
        <pt x="629" y="58" on="1"/>
        <pt x="851" y="58" on="1"/>
        <pt x="851" y="0" on="1"/>
        <pt x="564" y="0" on="1"/>
        <pt x="564" y="154" on="1"/>
        <pt x="564" y="178" on="0"/>
        <pt x="584" y="241" on="0"/>
        <pt x="616" y="313" on="0"/>
        <pt x="657" y="390" on="0"/>
        <pt x="677" y="428" on="1"/>
        <pt x="697" y="466" on="0"/>
        <pt x="737" y="541" on="0"/>
        <pt x="768" y="609" on="0"/>
        <pt x="787" y="668" on="0"/>
        <pt x="787" y="691" on="1"/>
      </contour>
    </TTGlyph>
    <TTGlyph name="onequarter" xMin="5" yMin="0" xMax="900" yMax="1393">
      <contour>
        <pt x="565" y="1393" on="1"/>
        <pt x="634" y="1393" on="1"/>
        <pt x="287" y="0" on="1"/>
        <pt x="218" y="0" on="1"/>
      </contour>
      <contour>
        <pt x="817" y="561" on="1"/>
        <pt x="817" y="391" on="1"/>
        <pt x="900" y="391" on="1"/>
        <pt x="900" y="333" on="1"/>
        <pt x="817" y="333" on="1"/>
        <pt x="817" y="0" on="1"/>
        <pt x="752" y="0" on="1"/>
        <pt x="752" y="333" on="1"/>
        <pt x="532" y="333" on="1"/>
        <pt x="532" y="372" on="1"/>
        <pt x="749" y="975" on="1"/>
        <pt x="813" y="975" on="1"/>
        <pt x="608" y="391" on="1"/>
        <pt x="752" y="391" on="1"/>
        <pt x="752" y="561" on="1"/>
      </contour>
      <contour>
        <pt x="115" y="1335" on="1"/>
        <pt x="5" y="1335" on="1"/>
        <pt x="5" y="1393" on="1"/>
        <pt x="180" y="1393" on="1"/>
        <pt x="180" y="418" on="1"/>
        <pt x="115" y="418" on="1"/>
      </contour>
    </TTGlyph>
    <TTGlyph name="onesuperior" xMin="5" yMin="589" xMax="180" yMax="1564">
      <contour>
        <pt x="115" y="1506" on="1"/>
        <pt x="5" y="1506" on="1"/>
        <pt x="5" y="1564" on="1"/>
        <pt x="180" y="1564" on="1"/>
        <pt x="180" y="589" on="1"/>
        <pt x="115" y="589" on="1"/>
      </contour>
    </TTGlyph>
    <TTGlyph name="ordfeminine" xMin="38" yMin="589" xMax="323" yMax="1584">
      <contour>
        <pt x="180" y="647" on="1"/>
        <pt x="218" y="647" on="0"/>
        <pt x="259" y="699" on="0"/>
        <pt x="259" y="735" on="1"/>
        <pt x="259" y="1098" on="1"/>
        <pt x="180" y="1098" on="1"/>
        <pt x="142" y="1098" on="0"/>
        <pt x="102" y="1048" on="0"/>
        <pt x="102" y="1011" on="1"/>
        <pt x="102" y="647" on="1"/>
      </contour>
      <contour>
        <pt x="38" y="589" on="1"/>
        <pt x="38" y="1010" on="1"/>
        <pt x="38" y="1074" on="0"/>
        <pt x="108" y="1156" on="0"/>
        <pt x="176" y="1156" on="1"/>
        <pt x="259" y="1156" on="1"/>
        <pt x="259" y="1438" on="1"/>
        <pt x="259" y="1475" on="0"/>
        <pt x="218" y="1526" on="0"/>
        <pt x="180" y="1526" on="1"/>
        <pt x="142" y="1526" on="0"/>
        <pt x="102" y="1472" on="0"/>
        <pt x="102" y="1431" on="1"/>
        <pt x="39" y="1423" on="1"/>
        <pt x="39" y="1457" on="0"/>
        <pt x="57" y="1516" on="0"/>
        <pt x="92" y="1560" on="0"/>
        <pt x="145" y="1584" on="0"/>
        <pt x="180" y="1584" on="1"/>
        <pt x="252" y="1584" on="0"/>
        <pt x="323" y="1501" on="0"/>
        <pt x="323" y="1438" on="1"/>
        <pt x="323" y="735" on="1"/>
        <pt x="323" y="671" on="0"/>
        <pt x="253" y="589" on="0"/>
        <pt x="184" y="589" on="1"/>
      </contour>
    </TTGlyph>
    <TTGlyph name="ordmasculine" xMin="35" yMin="581" xMax="324" yMax="1584">
      <contour>
        <pt x="324" y="728" on="1"/>
        <pt x="324" y="662" on="0"/>
        <pt x="244" y="581" on="0"/>
        <pt x="179" y="581" on="1"/>
        <pt x="113" y="581" on="0"/>
        <pt x="35" y="662" on="0"/>
        <pt x="35" y="728" on="1"/>
        <pt x="35" y="1437" on="1"/>
        <pt x="35" y="1503" on="0"/>
        <pt x="113" y="1584" on="0"/>
        <pt x="179" y="1584" on="1"/>
        <pt x="244" y="1584" on="0"/>
        <pt x="324" y="1503" on="0"/>
        <pt x="324" y="1437" on="1"/>
      </contour>
      <contour>
        <pt x="259" y="1438" on="1"/>
        <pt x="259" y="1477" on="0"/>
        <pt x="215" y="1526" on="0"/>
        <pt x="179" y="1526" on="1"/>
        <pt x="143" y="1526" on="0"/>
        <pt x="100" y="1477" on="0"/>
        <pt x="100" y="1438" on="1"/>
        <pt x="100" y="727" on="1"/>
        <pt x="100" y="688" on="0"/>
        <pt x="143" y="639" on="0"/>
        <pt x="179" y="639" on="1"/>
        <pt x="215" y="639" on="0"/>
        <pt x="259" y="688" on="0"/>
        <pt x="259" y="727" on="1"/>
      </contour>
    </TTGlyph>
    <TTGlyph name="oslash" xMin="0" yMin="-20" xMax="655" yMax="1018">
      <contour>
        <pt x="0" y="105" on="1"/>
        <pt x="156" y="322" on="1"/>
        <pt x="156" y="836" on="1"/>
        <pt x="156" y="875" on="0"/>
        <pt x="178" y="942" on="0"/>
        <pt x="222" y="991" on="0"/>
        <pt x="287" y="1018" on="0"/>
        <pt x="330" y="1018" on="1"/>
        <pt x="503" y="1018" on="1"/>
        <pt x="503" y="806" on="1"/>
        <pt x="620" y="970" on="1"/>
        <pt x="655" y="935" on="1"/>
        <pt x="503" y="723" on="1"/>
        <pt x="503" y="182" on="1"/>
        <pt x="503" y="138" on="0"/>
        <pt x="481" y="64" on="0"/>
        <pt x="437" y="10" on="0"/>
        <pt x="372" y="-20" on="0"/>
        <pt x="329" y="-20" on="1"/>
        <pt x="286" y="-20" on="0"/>
        <pt x="221" y="7" on="0"/>
        <pt x="178" y="56" on="0"/>
        <pt x="156" y="123" on="0"/>
        <pt x="156" y="163" on="1"/>
        <pt x="156" y="239" on="1"/>
        <pt x="35" y="70" on="1"/>
      </contour>
      <contour>
        <pt x="330" y="47" on="1"/>
        <pt x="377" y="47" on="0"/>
        <pt x="428" y="120" on="0"/>
        <pt x="428" y="172" on="1"/>
        <pt x="428" y="618" on="1"/>
        <pt x="231" y="343" on="1"/>
        <pt x="231" y="157" on="1"/>
        <pt x="231" y="111" on="0"/>
        <pt x="282" y="47" on="0"/>
      </contour>
      <contour>
        <pt x="231" y="427" on="1"/>
        <pt x="428" y="702" on="1"/>
        <pt x="428" y="951" on="1"/>
        <pt x="330" y="951" on="1"/>
        <pt x="282" y="951" on="0"/>
        <pt x="231" y="887" on="0"/>
        <pt x="231" y="841" on="1"/>
      </contour>
    </TTGlyph>
    <TTGlyph name="otilde" xMin="61" yMin="-20" xMax="522" yMax="1413">
      <component glyphName="o" x="42" y="0" flags="0x4"/>
      <component glyphName="tilde" x="-39" y="0" flags="0x4"/>
    </TTGlyph>
    <TTGlyph name="p" xMin="65" yMin="-444" xMax="412" yMax="1018">
      <contour>
        <pt x="412" y="183" on="1"/>
        <pt x="412" y="144" on="0"/>
        <pt x="390" y="77" on="0"/>
        <pt x="346" y="28" on="0"/>
        <pt x="281" y="0" on="0"/>
        <pt x="239" y="0" on="1"/>
        <pt x="140" y="0" on="1"/>
        <pt x="140" y="-444" on="1"/>
        <pt x="65" y="-444" on="1"/>
        <pt x="65" y="836" on="1"/>
        <pt x="65" y="875" on="0"/>
        <pt x="87" y="942" on="0"/>
        <pt x="131" y="991" on="0"/>
        <pt x="196" y="1018" on="0"/>
        <pt x="239" y="1018" on="1"/>
        <pt x="412" y="1018" on="1"/>
      </contour>
      <contour>
        <pt x="337" y="951" on="1"/>
        <pt x="239" y="951" on="1"/>
        <pt x="191" y="951" on="0"/>
        <pt x="140" y="887" on="0"/>
        <pt x="140" y="841" on="1"/>
        <pt x="140" y="67" on="1"/>
        <pt x="239" y="67" on="1"/>
        <pt x="286" y="67" on="0"/>
        <pt x="337" y="130" on="0"/>
        <pt x="337" y="176" on="1"/>
      </contour>
    </TTGlyph>
    <TTGlyph name="paragraph" xMin="50" yMin="-178" xMax="572" yMax="1393">
      <contour>
        <pt x="497" y="516" on="1"/>
        <pt x="454" y="533" on="0"/>
        <pt x="355" y="583" on="0"/>
        <pt x="255" y="653" on="0"/>
        <pt x="163" y="747" on="0"/>
        <pt x="92" y="867" on="0"/>
        <pt x="50" y="1016" on="0"/>
        <pt x="50" y="1108" on="1"/>
        <pt x="50" y="1393" on="1"/>
        <pt x="313" y="1393" on="1"/>
        <pt x="377" y="1393" on="0"/>
        <pt x="466" y="1369" on="0"/>
        <pt x="523" y="1327" on="0"/>
        <pt x="555" y="1270" on="0"/>
        <pt x="569" y="1206" on="0"/>
        <pt x="572" y="1138" on="0"/>
        <pt x="572" y="1105" on="1"/>
        <pt x="572" y="88" on="1"/>
        <pt x="572" y="62" on="0"/>
        <pt x="568" y="2" on="0"/>
        <pt x="552" y="-57" on="0"/>
        <pt x="520" y="-111" on="0"/>
        <pt x="465" y="-153" on="0"/>
        <pt x="383" y="-178" on="0"/>
        <pt x="325" y="-178" on="1"/>
        <pt x="306" y="-177" on="1"/>
        <pt x="312" y="-112" on="1"/>
        <pt x="320" y="-113" on="0"/>
        <pt x="330" y="-113" on="0"/>
        <pt x="335" y="-113" on="1"/>
        <pt x="374" y="-113" on="0"/>
        <pt x="434" y="-92" on="0"/>
        <pt x="475" y="-44" on="0"/>
        <pt x="497" y="34" on="0"/>
        <pt x="497" y="92" on="1"/>
      </contour>
    </TTGlyph>
    <TTGlyph name="parenleft" xMin="30" yMin="-327" xMax="326" yMax="1413">
      <contour>
        <pt x="30" y="543" on="1"/>
        <pt x="30" y="634" on="0"/>
        <pt x="52" y="806" on="0"/>
        <pt x="87" y="962" on="0"/>
        <pt x="133" y="1101" on="0"/>
        <pt x="157" y="1160" on="1"/>
        <pt x="212" y="1298" on="0"/>
        <pt x="284" y="1413" on="1"/>
        <pt x="326" y="1413" on="1"/>
        <pt x="326" y="1374" on="1"/>
        <pt x="266" y="1268" on="0"/>
        <pt x="218" y="1138" on="1"/>
        <pt x="198" y="1082" on="0"/>
        <pt x="159" y="950" on="0"/>
        <pt x="129" y="800" on="0"/>
        <pt x="110" y="633" on="0"/>
        <pt x="110" y="543" on="1"/>
        <pt x="110" y="451" on="0"/>
        <pt x="129" y="283" on="0"/>
        <pt x="159" y="132" on="0"/>
        <pt x="198" y="0" on="0"/>
        <pt x="218" y="-55" on="1"/>
        <pt x="266" y="-184" on="0"/>
        <pt x="326" y="-288" on="1"/>
        <pt x="326" y="-327" on="1"/>
        <pt x="284" y="-327" on="1"/>
        <pt x="212" y="-213" on="0"/>
        <pt x="157" y="-75" on="1"/>
        <pt x="133" y="-16" on="0"/>
        <pt x="87" y="123" on="0"/>
        <pt x="52" y="280" on="0"/>
        <pt x="30" y="451" on="0"/>
      </contour>
    </TTGlyph>
    <TTGlyph name="parenright" xMin="10" yMin="-327" xMax="306" yMax="1413">
      <contour>
        <pt x="306" y="543" on="1"/>
        <pt x="306" y="451" on="0"/>
        <pt x="284" y="280" on="0"/>
        <pt x="248" y="123" on="0"/>
        <pt x="203" y="-16" on="0"/>
        <pt x="179" y="-75" on="1"/>
        <pt x="123" y="-213" on="0"/>
        <pt x="52" y="-327" on="1"/>
        <pt x="10" y="-327" on="1"/>
        <pt x="10" y="-288" on="1"/>
        <pt x="70" y="-184" on="0"/>
        <pt x="118" y="-55" on="1"/>
        <pt x="138" y="0" on="0"/>
        <pt x="177" y="132" on="0"/>
        <pt x="207" y="283" on="0"/>
        <pt x="226" y="451" on="0"/>
        <pt x="226" y="543" on="1"/>
        <pt x="226" y="633" on="0"/>
        <pt x="207" y="800" on="0"/>
        <pt x="177" y="950" on="0"/>
        <pt x="138" y="1082" on="0"/>
        <pt x="118" y="1138" on="1"/>
        <pt x="70" y="1268" on="0"/>
        <pt x="10" y="1374" on="1"/>
        <pt x="10" y="1413" on="1"/>
        <pt x="52" y="1413" on="1"/>
        <pt x="123" y="1298" on="0"/>
        <pt x="179" y="1160" on="1"/>
        <pt x="203" y="1101" on="0"/>
        <pt x="248" y="962" on="0"/>
        <pt x="284" y="806" on="0"/>
        <pt x="306" y="634" on="0"/>
      </contour>
    </TTGlyph>
    <TTGlyph name="percent" xMin="35" yMin="-20" xMax="887" yMax="1413">
      <contour>
        <pt x="600" y="1393" on="1"/>
        <pt x="669" y="1393" on="1"/>
        <pt x="322" y="0" on="1"/>
        <pt x="253" y="0" on="1"/>
      </contour>
      <contour>
        <pt x="324" y="557" on="1"/>
        <pt x="324" y="491" on="0"/>
        <pt x="244" y="410" on="0"/>
        <pt x="179" y="410" on="1"/>
        <pt x="113" y="410" on="0"/>
        <pt x="35" y="491" on="0"/>
        <pt x="35" y="557" on="1"/>
        <pt x="35" y="1266" on="1"/>
        <pt x="35" y="1332" on="0"/>
        <pt x="113" y="1413" on="0"/>
        <pt x="179" y="1413" on="1"/>
        <pt x="244" y="1413" on="0"/>
        <pt x="324" y="1332" on="0"/>
        <pt x="324" y="1266" on="1"/>
      </contour>
      <contour>
        <pt x="259" y="1267" on="1"/>
        <pt x="259" y="1306" on="0"/>
        <pt x="215" y="1355" on="0"/>
        <pt x="179" y="1355" on="1"/>
        <pt x="143" y="1355" on="0"/>
        <pt x="100" y="1306" on="0"/>
        <pt x="100" y="1267" on="1"/>
        <pt x="100" y="556" on="1"/>
        <pt x="100" y="517" on="0"/>
        <pt x="143" y="468" on="0"/>
        <pt x="179" y="468" on="1"/>
        <pt x="215" y="468" on="0"/>
        <pt x="259" y="517" on="0"/>
        <pt x="259" y="556" on="1"/>
      </contour>
      <contour>
        <pt x="887" y="127" on="1"/>
        <pt x="887" y="61" on="0"/>
        <pt x="807" y="-20" on="0"/>
        <pt x="742" y="-20" on="1"/>
        <pt x="676" y="-20" on="0"/>
        <pt x="598" y="61" on="0"/>
        <pt x="598" y="127" on="1"/>
        <pt x="598" y="836" on="1"/>
        <pt x="598" y="902" on="0"/>
        <pt x="676" y="983" on="0"/>
        <pt x="742" y="983" on="1"/>
        <pt x="807" y="983" on="0"/>
        <pt x="887" y="902" on="0"/>
        <pt x="887" y="836" on="1"/>
      </contour>
      <contour>
        <pt x="822" y="837" on="1"/>
        <pt x="822" y="876" on="0"/>
        <pt x="778" y="925" on="0"/>
        <pt x="742" y="925" on="1"/>
        <pt x="706" y="925" on="0"/>
        <pt x="663" y="876" on="0"/>
        <pt x="663" y="837" on="1"/>
        <pt x="663" y="126" on="1"/>
        <pt x="663" y="87" on="0"/>
        <pt x="706" y="38" on="0"/>
        <pt x="742" y="38" on="1"/>
        <pt x="778" y="38" on="0"/>
        <pt x="822" y="87" on="0"/>
        <pt x="822" y="126" on="1"/>
      </contour>
    </TTGlyph>
    <TTGlyph name="period" xMin="60" yMin="-4" xMax="157" yMax="86">
      <contour>
        <pt x="60" y="42" on="1"/>
        <pt x="60" y="58" on="0"/>
        <pt x="85" y="86" on="0"/>
        <pt x="108" y="86" on="1"/>
        <pt x="131" y="86" on="0"/>
        <pt x="157" y="58" on="0"/>
        <pt x="157" y="42" on="1"/>
        <pt x="157" y="22" on="0"/>
        <pt x="131" y="-4" on="0"/>
        <pt x="108" y="-4" on="1"/>
        <pt x="88" y="-4" on="0"/>
        <pt x="60" y="22" on="0"/>
      </contour>
    </TTGlyph>
    <TTGlyph name="periodcentered" xMin="30" yMin="358" xMax="210" yMax="530">
      <contour>
        <pt x="30" y="443" on="1"/>
        <pt x="30" y="461" on="0"/>
        <pt x="45" y="493" on="0"/>
        <pt x="69" y="516" on="0"/>
        <pt x="102" y="530" on="0"/>
        <pt x="120" y="530" on="1"/>
        <pt x="139" y="530" on="0"/>
        <pt x="172" y="516" on="0"/>
        <pt x="196" y="493" on="0"/>
        <pt x="210" y="461" on="0"/>
        <pt x="210" y="443" on="1"/>
        <pt x="210" y="408" on="0"/>
        <pt x="158" y="358" on="0"/>
        <pt x="120" y="358" on="1"/>
        <pt x="102" y="358" on="0"/>
        <pt x="69" y="372" on="0"/>
        <pt x="45" y="395" on="0"/>
        <pt x="30" y="426" on="0"/>
      </contour>
    </TTGlyph>
    <TTGlyph name="perthousand" xMin="35" yMin="-20" xMax="1237" yMax="1413">
      <contour>
        <pt x="600" y="1393" on="1"/>
        <pt x="669" y="1393" on="1"/>
        <pt x="322" y="0" on="1"/>
        <pt x="253" y="0" on="1"/>
      </contour>
      <contour>
        <pt x="324" y="557" on="1"/>
        <pt x="324" y="491" on="0"/>
        <pt x="244" y="410" on="0"/>
        <pt x="179" y="410" on="1"/>
        <pt x="113" y="410" on="0"/>
        <pt x="35" y="491" on="0"/>
        <pt x="35" y="557" on="1"/>
        <pt x="35" y="1266" on="1"/>
        <pt x="35" y="1332" on="0"/>
        <pt x="113" y="1413" on="0"/>
        <pt x="179" y="1413" on="1"/>
        <pt x="244" y="1413" on="0"/>
        <pt x="324" y="1332" on="0"/>
        <pt x="324" y="1266" on="1"/>
      </contour>
      <contour>
        <pt x="259" y="1267" on="1"/>
        <pt x="259" y="1306" on="0"/>
        <pt x="215" y="1355" on="0"/>
        <pt x="179" y="1355" on="1"/>
        <pt x="143" y="1355" on="0"/>
        <pt x="100" y="1306" on="0"/>
        <pt x="100" y="1267" on="1"/>
        <pt x="100" y="556" on="1"/>
        <pt x="100" y="517" on="0"/>
        <pt x="143" y="468" on="0"/>
        <pt x="179" y="468" on="1"/>
        <pt x="215" y="468" on="0"/>
        <pt x="259" y="517" on="0"/>
        <pt x="259" y="556" on="1"/>
      </contour>
      <contour>
        <pt x="887" y="127" on="1"/>
        <pt x="887" y="61" on="0"/>
        <pt x="807" y="-20" on="0"/>
        <pt x="742" y="-20" on="1"/>
        <pt x="676" y="-20" on="0"/>
        <pt x="598" y="61" on="0"/>
        <pt x="598" y="127" on="1"/>
        <pt x="598" y="836" on="1"/>
        <pt x="598" y="902" on="0"/>
        <pt x="676" y="983" on="0"/>
        <pt x="742" y="983" on="1"/>
        <pt x="807" y="983" on="0"/>
        <pt x="887" y="902" on="0"/>
        <pt x="887" y="836" on="1"/>
      </contour>
      <contour>
        <pt x="822" y="837" on="1"/>
        <pt x="822" y="876" on="0"/>
        <pt x="778" y="925" on="0"/>
        <pt x="742" y="925" on="1"/>
        <pt x="706" y="925" on="0"/>
        <pt x="663" y="876" on="0"/>
        <pt x="663" y="837" on="1"/>
        <pt x="663" y="126" on="1"/>
        <pt x="663" y="87" on="0"/>
        <pt x="706" y="38" on="0"/>
        <pt x="742" y="38" on="1"/>
        <pt x="778" y="38" on="0"/>
        <pt x="822" y="87" on="0"/>
        <pt x="822" y="126" on="1"/>
      </contour>
      <contour>
        <pt x="1237" y="127" on="1"/>
        <pt x="1237" y="61" on="0"/>
        <pt x="1157" y="-20" on="0"/>
        <pt x="1092" y="-20" on="1"/>
        <pt x="1026" y="-20" on="0"/>
        <pt x="948" y="61" on="0"/>
        <pt x="948" y="127" on="1"/>
        <pt x="948" y="836" on="1"/>
        <pt x="948" y="902" on="0"/>
        <pt x="1026" y="983" on="0"/>
        <pt x="1092" y="983" on="1"/>
        <pt x="1157" y="983" on="0"/>
        <pt x="1237" y="902" on="0"/>
        <pt x="1237" y="836" on="1"/>
      </contour>
      <contour>
        <pt x="1172" y="837" on="1"/>
        <pt x="1172" y="876" on="0"/>
        <pt x="1128" y="925" on="0"/>
        <pt x="1092" y="925" on="1"/>
        <pt x="1056" y="925" on="0"/>
        <pt x="1013" y="876" on="0"/>
        <pt x="1013" y="837" on="1"/>
        <pt x="1013" y="126" on="1"/>
        <pt x="1013" y="87" on="0"/>
        <pt x="1056" y="38" on="0"/>
        <pt x="1092" y="38" on="1"/>
        <pt x="1128" y="38" on="0"/>
        <pt x="1172" y="87" on="0"/>
        <pt x="1172" y="126" on="1"/>
      </contour>
    </TTGlyph>
    <TTGlyph name="plus" xMin="25" yMin="327" xMax="672" yMax="1052">
      <contour>
        <pt x="387" y="327" on="1"/>
        <pt x="310" y="327" on="1"/>
        <pt x="310" y="660" on="1"/>
        <pt x="25" y="660" on="1"/>
        <pt x="25" y="729" on="1"/>
        <pt x="310" y="729" on="1"/>
        <pt x="310" y="1052" on="1"/>
        <pt x="387" y="1052" on="1"/>
        <pt x="387" y="729" on="1"/>
        <pt x="672" y="729" on="1"/>
        <pt x="672" y="660" on="1"/>
        <pt x="387" y="660" on="1"/>
      </contour>
    </TTGlyph>
    <TTGlyph name="plusminus" xMin="25" yMin="339" xMax="672" yMax="1052">
      <contour>
        <pt x="672" y="408" on="1"/>
        <pt x="672" y="339" on="1"/>
        <pt x="25" y="339" on="1"/>
        <pt x="25" y="408" on="1"/>
      </contour>
      <contour>
        <pt x="387" y="455" on="1"/>
        <pt x="310" y="455" on="1"/>
        <pt x="310" y="660" on="1"/>
        <pt x="25" y="660" on="1"/>
        <pt x="25" y="729" on="1"/>
        <pt x="310" y="729" on="1"/>
        <pt x="310" y="1052" on="1"/>
        <pt x="387" y="1052" on="1"/>
        <pt x="387" y="729" on="1"/>
        <pt x="672" y="729" on="1"/>
        <pt x="672" y="660" on="1"/>
        <pt x="387" y="660" on="1"/>
      </contour>
    </TTGlyph>
    <TTGlyph name="q" xMin="65" yMin="-444" xMax="412" yMax="1018">
      <contour>
        <pt x="65" y="1018" on="1"/>
        <pt x="239" y="1018" on="1"/>
        <pt x="281" y="1018" on="0"/>
        <pt x="346" y="991" on="0"/>
        <pt x="390" y="942" on="0"/>
        <pt x="412" y="875" on="0"/>
        <pt x="412" y="836" on="1"/>
        <pt x="412" y="-444" on="1"/>
        <pt x="337" y="-444" on="1"/>
        <pt x="337" y="0" on="1"/>
        <pt x="239" y="0" on="1"/>
        <pt x="196" y="0" on="0"/>
        <pt x="131" y="28" on="0"/>
        <pt x="87" y="77" on="0"/>
        <pt x="65" y="144" on="0"/>
        <pt x="65" y="183" on="1"/>
      </contour>
      <contour>
        <pt x="140" y="176" on="1"/>
        <pt x="140" y="130" on="0"/>
        <pt x="191" y="67" on="0"/>
        <pt x="239" y="67" on="1"/>
        <pt x="337" y="67" on="1"/>
        <pt x="337" y="841" on="1"/>
        <pt x="337" y="887" on="0"/>
        <pt x="286" y="951" on="0"/>
        <pt x="239" y="951" on="1"/>
        <pt x="140" y="951" on="1"/>
      </contour>
    </TTGlyph>
    <TTGlyph name="question" xMin="45" yMin="-20" xMax="488" yMax="1497">
      <contour>
        <pt x="413" y="1278" on="1"/>
        <pt x="413" y="1311" on="0"/>
        <pt x="391" y="1366" on="0"/>
        <pt x="353" y="1407" on="0"/>
        <pt x="299" y="1430" on="0"/>
        <pt x="268" y="1430" on="1"/>
        <pt x="234" y="1430" on="0"/>
        <pt x="179" y="1406" on="0"/>
        <pt x="141" y="1366" on="0"/>
        <pt x="120" y="1310" on="0"/>
        <pt x="120" y="1279" on="1"/>
        <pt x="120" y="1159" on="1"/>
        <pt x="45" y="1159" on="1"/>
        <pt x="45" y="1279" on="1"/>
        <pt x="45" y="1328" on="0"/>
        <pt x="80" y="1408" on="0"/>
        <pt x="140" y="1465" on="0"/>
        <pt x="221" y="1497" on="0"/>
        <pt x="266" y="1497" on="1"/>
        <pt x="315" y="1497" on="0"/>
        <pt x="397" y="1463" on="0"/>
        <pt x="456" y="1404" on="0"/>
        <pt x="488" y="1325" on="0"/>
        <pt x="488" y="1279" on="1"/>
        <pt x="488" y="1118" on="1"/>
        <pt x="488" y="1074" on="0"/>
        <pt x="465" y="1001" on="0"/>
        <pt x="427" y="936" on="0"/>
        <pt x="375" y="878" on="0"/>
        <pt x="347" y="850" on="1"/>
        <pt x="322" y="825" on="0"/>
        <pt x="271" y="775" on="0"/>
        <pt x="229" y="719" on="0"/>
        <pt x="203" y="654" on="0"/>
        <pt x="203" y="613" on="1"/>
        <pt x="203" y="372" on="1"/>
        <pt x="127" y="372" on="1"/>
        <pt x="127" y="613" on="1"/>
        <pt x="127" y="655" on="0"/>
        <pt x="153" y="727" on="0"/>
        <pt x="198" y="794" on="0"/>
        <pt x="259" y="859" on="0"/>
        <pt x="294" y="894" on="1"/>
        <pt x="318" y="918" on="0"/>
        <pt x="362" y="967" on="0"/>
        <pt x="394" y="1021" on="0"/>
        <pt x="413" y="1082" on="0"/>
        <pt x="413" y="1118" on="1"/>
      </contour>
      <contour>
        <pt x="119" y="26" on="1"/>
        <pt x="119" y="42" on="0"/>
        <pt x="145" y="70" on="0"/>
        <pt x="168" y="70" on="1"/>
        <pt x="191" y="70" on="0"/>
        <pt x="216" y="42" on="0"/>
        <pt x="216" y="26" on="1"/>
        <pt x="216" y="6" on="0"/>
        <pt x="191" y="-20" on="0"/>
        <pt x="168" y="-20" on="1"/>
        <pt x="148" y="-20" on="0"/>
        <pt x="119" y="6" on="0"/>
      </contour>
    </TTGlyph>
    <TTGlyph name="questiondown" xMin="30" yMin="-20" xMax="473" yMax="1497">
      <contour>
        <pt x="105" y="199" on="1"/>
        <pt x="105" y="166" on="0"/>
        <pt x="127" y="111" on="0"/>
        <pt x="165" y="70" on="0"/>
        <pt x="219" y="47" on="0"/>
        <pt x="250" y="47" on="1"/>
        <pt x="284" y="47" on="0"/>
        <pt x="339" y="71" on="0"/>
        <pt x="377" y="111" on="0"/>
        <pt x="398" y="167" on="0"/>
        <pt x="398" y="198" on="1"/>
        <pt x="398" y="318" on="1"/>
        <pt x="473" y="318" on="1"/>
        <pt x="473" y="198" on="1"/>
        <pt x="473" y="149" on="0"/>
        <pt x="438" y="69" on="0"/>
        <pt x="378" y="12" on="0"/>
        <pt x="297" y="-20" on="0"/>
        <pt x="252" y="-20" on="1"/>
        <pt x="203" y="-20" on="0"/>
        <pt x="121" y="14" on="0"/>
        <pt x="62" y="73" on="0"/>
        <pt x="30" y="152" on="0"/>
        <pt x="30" y="198" on="1"/>
        <pt x="30" y="359" on="1"/>
        <pt x="30" y="403" on="0"/>
        <pt x="53" y="476" on="0"/>
        <pt x="91" y="541" on="0"/>
        <pt x="143" y="599" on="0"/>
        <pt x="171" y="627" on="1"/>
        <pt x="196" y="652" on="0"/>
        <pt x="247" y="702" on="0"/>
        <pt x="289" y="758" on="0"/>
        <pt x="315" y="823" on="0"/>
        <pt x="315" y="864" on="1"/>
        <pt x="315" y="1105" on="1"/>
        <pt x="391" y="1105" on="1"/>
        <pt x="391" y="864" on="1"/>
        <pt x="391" y="822" on="0"/>
        <pt x="365" y="750" on="0"/>
        <pt x="320" y="683" on="0"/>
        <pt x="259" y="618" on="0"/>
        <pt x="224" y="583" on="1"/>
        <pt x="200" y="559" on="0"/>
        <pt x="156" y="510" on="0"/>
        <pt x="124" y="456" on="0"/>
        <pt x="105" y="395" on="0"/>
        <pt x="105" y="359" on="1"/>
      </contour>
      <contour>
        <pt x="399" y="1451" on="1"/>
        <pt x="399" y="1435" on="0"/>
        <pt x="373" y="1407" on="0"/>
        <pt x="350" y="1407" on="1"/>
        <pt x="327" y="1407" on="0"/>
        <pt x="302" y="1435" on="0"/>
        <pt x="302" y="1451" on="1"/>
        <pt x="302" y="1471" on="0"/>
        <pt x="327" y="1497" on="0"/>
        <pt x="350" y="1497" on="1"/>
        <pt x="370" y="1497" on="0"/>
        <pt x="399" y="1471" on="0"/>
      </contour>
    </TTGlyph>
    <TTGlyph name="quotedbl" xMin="70" yMin="1179" xMax="283" yMax="1478">
      <contour>
        <pt x="71" y="1179" on="1"/>
        <pt x="70" y="1478" on="1"/>
        <pt x="145" y="1478" on="1"/>
        <pt x="144" y="1179" on="1"/>
      </contour>
      <contour>
        <pt x="209" y="1179" on="1"/>
        <pt x="208" y="1478" on="1"/>
        <pt x="283" y="1478" on="1"/>
        <pt x="282" y="1179" on="1"/>
      </contour>
    </TTGlyph>
    <TTGlyph name="quotedblbase" xMin="20" yMin="-173" xMax="338" yMax="92">
      <contour>
        <pt x="139" y="0" on="1"/>
        <pt x="136" y="-27" on="0"/>
        <pt x="127" y="-56" on="1"/>
        <pt x="119" y="-81" on="0"/>
        <pt x="93" y="-142" on="0"/>
        <pt x="71" y="-173" on="1"/>
        <pt x="20" y="-173" on="1"/>
        <pt x="20" y="-139" on="1"/>
        <pt x="29" y="-128" on="0"/>
        <pt x="48" y="-95" on="0"/>
        <pt x="63" y="-58" on="0"/>
        <pt x="73" y="-18" on="0"/>
        <pt x="74" y="0" on="1"/>
        <pt x="40" y="0" on="1"/>
        <pt x="40" y="92" on="1"/>
        <pt x="139" y="92" on="1"/>
      </contour>
      <contour>
        <pt x="338" y="0" on="1"/>
        <pt x="335" y="-27" on="0"/>
        <pt x="326" y="-56" on="1"/>
        <pt x="318" y="-81" on="0"/>
        <pt x="292" y="-142" on="0"/>
        <pt x="270" y="-173" on="1"/>
        <pt x="219" y="-173" on="1"/>
        <pt x="219" y="-139" on="1"/>
        <pt x="228" y="-128" on="0"/>
        <pt x="247" y="-95" on="0"/>
        <pt x="262" y="-58" on="0"/>
        <pt x="272" y="-18" on="0"/>
        <pt x="273" y="0" on="1"/>
        <pt x="239" y="0" on="1"/>
        <pt x="239" y="92" on="1"/>
        <pt x="338" y="92" on="1"/>
      </contour>
    </TTGlyph>
    <TTGlyph name="quotedblleft" xMin="60" yMin="1213" xMax="330" yMax="1478">
      <contour>
        <pt x="60" y="1305" on="1"/>
        <pt x="63" y="1332" on="0"/>
        <pt x="72" y="1361" on="1"/>
        <pt x="80" y="1386" on="0"/>
        <pt x="106" y="1447" on="0"/>
        <pt x="128" y="1478" on="1"/>
        <pt x="179" y="1478" on="1"/>
        <pt x="179" y="1444" on="1"/>
        <pt x="170" y="1433" on="0"/>
        <pt x="151" y="1400" on="0"/>
        <pt x="136" y="1362" on="0"/>
        <pt x="126" y="1323" on="0"/>
        <pt x="125" y="1305" on="1"/>
        <pt x="159" y="1305" on="1"/>
        <pt x="159" y="1213" on="1"/>
        <pt x="60" y="1213" on="1"/>
      </contour>
      <contour>
        <pt x="211" y="1305" on="1"/>
        <pt x="214" y="1332" on="0"/>
        <pt x="223" y="1361" on="1"/>
        <pt x="231" y="1386" on="0"/>
        <pt x="257" y="1447" on="0"/>
        <pt x="279" y="1478" on="1"/>
        <pt x="330" y="1478" on="1"/>
        <pt x="330" y="1444" on="1"/>
        <pt x="321" y="1433" on="0"/>
        <pt x="302" y="1400" on="0"/>
        <pt x="287" y="1362" on="0"/>
        <pt x="277" y="1323" on="0"/>
        <pt x="276" y="1305" on="1"/>
        <pt x="310" y="1305" on="1"/>
        <pt x="310" y="1213" on="1"/>
        <pt x="211" y="1213" on="1"/>
      </contour>
    </TTGlyph>
    <TTGlyph name="quotedblright" xMin="30" yMin="1213" xMax="300" yMax="1478">
      <contour>
        <pt x="149" y="1386" on="1"/>
        <pt x="146" y="1359" on="0"/>
        <pt x="137" y="1330" on="1"/>
        <pt x="129" y="1305" on="0"/>
        <pt x="103" y="1244" on="0"/>
        <pt x="81" y="1213" on="1"/>
        <pt x="30" y="1213" on="1"/>
        <pt x="30" y="1247" on="1"/>
        <pt x="39" y="1258" on="0"/>
        <pt x="58" y="1291" on="0"/>
        <pt x="73" y="1328" on="0"/>
        <pt x="83" y="1368" on="0"/>
        <pt x="84" y="1386" on="1"/>
        <pt x="50" y="1386" on="1"/>
        <pt x="50" y="1478" on="1"/>
        <pt x="149" y="1478" on="1"/>
      </contour>
      <contour>
        <pt x="300" y="1386" on="1"/>
        <pt x="297" y="1359" on="0"/>
        <pt x="288" y="1330" on="1"/>
        <pt x="280" y="1305" on="0"/>
        <pt x="254" y="1244" on="0"/>
        <pt x="232" y="1213" on="1"/>
        <pt x="181" y="1213" on="1"/>
        <pt x="181" y="1247" on="1"/>
        <pt x="190" y="1258" on="0"/>
        <pt x="209" y="1291" on="0"/>
        <pt x="224" y="1328" on="0"/>
        <pt x="234" y="1368" on="0"/>
        <pt x="235" y="1386" on="1"/>
        <pt x="201" y="1386" on="1"/>
        <pt x="201" y="1478" on="1"/>
        <pt x="300" y="1478" on="1"/>
      </contour>
    </TTGlyph>
    <TTGlyph name="quoteleft" xMin="60" yMin="1213" xMax="179" yMax="1478">
      <contour>
        <pt x="60" y="1305" on="1"/>
        <pt x="63" y="1332" on="0"/>
        <pt x="72" y="1361" on="1"/>
        <pt x="80" y="1386" on="0"/>
        <pt x="106" y="1447" on="0"/>
        <pt x="128" y="1478" on="1"/>
        <pt x="179" y="1478" on="1"/>
        <pt x="179" y="1444" on="1"/>
        <pt x="170" y="1433" on="0"/>
        <pt x="151" y="1400" on="0"/>
        <pt x="136" y="1362" on="0"/>
        <pt x="126" y="1323" on="0"/>
        <pt x="125" y="1305" on="1"/>
        <pt x="159" y="1305" on="1"/>
        <pt x="159" y="1213" on="1"/>
        <pt x="60" y="1213" on="1"/>
      </contour>
    </TTGlyph>
    <TTGlyph name="quoteright" xMin="30" yMin="1213" xMax="149" yMax="1478">
      <contour>
        <pt x="149" y="1386" on="1"/>
        <pt x="146" y="1359" on="0"/>
        <pt x="137" y="1330" on="1"/>
        <pt x="129" y="1305" on="0"/>
        <pt x="103" y="1244" on="0"/>
        <pt x="81" y="1213" on="1"/>
        <pt x="30" y="1213" on="1"/>
        <pt x="30" y="1247" on="1"/>
        <pt x="39" y="1258" on="0"/>
        <pt x="58" y="1291" on="0"/>
        <pt x="73" y="1328" on="0"/>
        <pt x="83" y="1368" on="0"/>
        <pt x="84" y="1386" on="1"/>
        <pt x="50" y="1386" on="1"/>
        <pt x="50" y="1478" on="1"/>
        <pt x="149" y="1478" on="1"/>
      </contour>
    </TTGlyph>
    <TTGlyph name="quotesinglbase" xMin="20" yMin="-173" xMax="139" yMax="92">
      <contour>
        <pt x="139" y="0" on="1"/>
        <pt x="136" y="-27" on="0"/>
        <pt x="127" y="-56" on="1"/>
        <pt x="119" y="-81" on="0"/>
        <pt x="93" y="-142" on="0"/>
        <pt x="71" y="-173" on="1"/>
        <pt x="20" y="-173" on="1"/>
        <pt x="20" y="-139" on="1"/>
        <pt x="29" y="-128" on="0"/>
        <pt x="48" y="-95" on="0"/>
        <pt x="63" y="-58" on="0"/>
        <pt x="73" y="-18" on="0"/>
        <pt x="74" y="0" on="1"/>
        <pt x="40" y="0" on="1"/>
        <pt x="40" y="92" on="1"/>
        <pt x="139" y="92" on="1"/>
      </contour>
    </TTGlyph>
    <TTGlyph name="quotesingle" xMin="70" yMin="1179" xMax="146" yMax="1478">
      <contour>
        <pt x="71" y="1179" on="1"/>
        <pt x="70" y="1478" on="1"/>
        <pt x="146" y="1478" on="1"/>
        <pt x="145" y="1179" on="1"/>
      </contour>
    </TTGlyph>
    <TTGlyph name="r" xMin="70" yMin="0" xMax="310" yMax="1028">
      <contour>
        <pt x="280" y="957" on="1"/>
        <pt x="265" y="961" on="0"/>
        <pt x="244" y="961" on="1"/>
        <pt x="196" y="961" on="0"/>
        <pt x="145" y="897" on="0"/>
        <pt x="145" y="851" on="1"/>
        <pt x="145" y="0" on="1"/>
        <pt x="70" y="0" on="1"/>
        <pt x="70" y="845" on="1"/>
        <pt x="70" y="885" on="0"/>
        <pt x="92" y="952" on="0"/>
        <pt x="136" y="1001" on="0"/>
        <pt x="201" y="1028" on="0"/>
        <pt x="244" y="1028" on="1"/>
        <pt x="262" y="1028" on="0"/>
        <pt x="296" y="1023" on="0"/>
        <pt x="310" y="1018" on="1"/>
      </contour>
    </TTGlyph>
    <TTGlyph name="registered" xMin="50" yMin="-20" xMax="767" yMax="1414">
      <contour>
        <pt x="767" y="349" on="1"/>
        <pt x="767" y="244" on="0"/>
        <pt x="706" y="102" on="0"/>
        <pt x="606" y="17" on="0"/>
        <pt x="477" y="-20" on="0"/>
        <pt x="409" y="-20" on="1"/>
        <pt x="341" y="-20" on="0"/>
        <pt x="212" y="17" on="0"/>
        <pt x="111" y="102" on="0"/>
        <pt x="50" y="244" on="0"/>
        <pt x="50" y="349" on="1"/>
        <pt x="50" y="1045" on="1"/>
        <pt x="50" y="1150" on="0"/>
        <pt x="111" y="1292" on="0"/>
        <pt x="212" y="1377" on="0"/>
        <pt x="341" y="1414" on="0"/>
        <pt x="409" y="1414" on="1"/>
        <pt x="477" y="1414" on="0"/>
        <pt x="606" y="1377" on="0"/>
        <pt x="706" y="1292" on="0"/>
        <pt x="767" y="1150" on="0"/>
        <pt x="767" y="1045" on="1"/>
      </contour>
      <contour>
        <pt x="703" y="1044" on="1"/>
        <pt x="703" y="1146" on="0"/>
        <pt x="648" y="1269" on="0"/>
        <pt x="562" y="1335" on="0"/>
        <pt x="458" y="1356" on="0"/>
        <pt x="409" y="1356" on="1"/>
        <pt x="376" y="1356" on="0"/>
        <pt x="307" y="1347" on="0"/>
        <pt x="242" y="1323" on="0"/>
        <pt x="183" y="1280" on="0"/>
        <pt x="140" y="1211" on="0"/>
        <pt x="114" y="1112" on="0"/>
        <pt x="114" y="1044" on="1"/>
        <pt x="114" y="350" on="1"/>
        <pt x="114" y="282" on="0"/>
        <pt x="140" y="183" on="0"/>
        <pt x="183" y="114" on="0"/>
        <pt x="242" y="71" on="0"/>
        <pt x="307" y="47" on="0"/>
        <pt x="376" y="38" on="0"/>
        <pt x="409" y="38" on="1"/>
        <pt x="458" y="38" on="0"/>
        <pt x="562" y="59" on="0"/>
        <pt x="648" y="125" on="0"/>
        <pt x="703" y="248" on="0"/>
        <pt x="703" y="350" on="1"/>
      </contour>
      <contour>
        <pt x="552" y="1125" on="1"/>
        <pt x="552" y="1041" on="0"/>
        <pt x="541" y="906" on="0"/>
        <pt x="519" y="798" on="0"/>
        <pt x="483" y="715" on="0"/>
        <pt x="458" y="683" on="1"/>
        <pt x="568" y="205" on="1"/>
        <pt x="505" y="205" on="1"/>
        <pt x="410" y="633" on="1"/>
        <pt x="386" y="613" on="0"/>
        <pt x="330" y="582" on="0"/>
        <pt x="297" y="568" on="1"/>
        <pt x="297" y="205" on="1"/>
        <pt x="232" y="205" on="1"/>
        <pt x="232" y="976" on="1"/>
        <pt x="232" y="1012" on="0"/>
        <pt x="238" y="1086" on="0"/>
        <pt x="273" y="1146" on="0"/>
        <pt x="349" y="1184" on="0"/>
        <pt x="419" y="1184" on="1"/>
        <pt x="552" y="1184" on="1"/>
      </contour>
      <contour>
        <pt x="297" y="635" on="1"/>
        <pt x="316" y="643" on="0"/>
        <pt x="359" y="668" on="0"/>
        <pt x="402" y="708" on="0"/>
        <pt x="440" y="768" on="0"/>
        <pt x="470" y="858" on="0"/>
        <pt x="488" y="982" on="0"/>
        <pt x="488" y="1066" on="1"/>
        <pt x="488" y="1125" on="1"/>
        <pt x="433" y="1125" on="1"/>
        <pt x="397" y="1125" on="0"/>
        <pt x="346" y="1113" on="0"/>
        <pt x="313" y="1085" on="0"/>
        <pt x="297" y="1035" on="0"/>
        <pt x="297" y="998" on="1"/>
      </contour>
    </TTGlyph>
    <TTGlyph name="ring" xMin="100" yMin="1149" xMax="360" yMax="1401">
      <contour>
        <pt x="155" y="1274" on="1"/>
        <pt x="155" y="1245" on="0"/>
        <pt x="198" y="1203" on="0"/>
        <pt x="230" y="1203" on="1"/>
        <pt x="261" y="1203" on="0"/>
        <pt x="305" y="1245" on="0"/>
        <pt x="305" y="1274" on="1"/>
        <pt x="305" y="1304" on="0"/>
        <pt x="261" y="1347" on="0"/>
        <pt x="230" y="1347" on="1"/>
        <pt x="198" y="1347" on="0"/>
        <pt x="155" y="1304" on="0"/>
      </contour>
      <contour>
        <pt x="100" y="1274" on="1"/>
        <pt x="100" y="1300" on="0"/>
        <pt x="120" y="1346" on="0"/>
        <pt x="155" y="1381" on="0"/>
        <pt x="203" y="1401" on="0"/>
        <pt x="230" y="1401" on="1"/>
        <pt x="256" y="1401" on="0"/>
        <pt x="304" y="1381" on="0"/>
        <pt x="338" y="1346" on="0"/>
        <pt x="360" y="1300" on="0"/>
        <pt x="360" y="1274" on="1"/>
        <pt x="360" y="1248" on="0"/>
        <pt x="338" y="1203" on="0"/>
        <pt x="304" y="1169" on="0"/>
        <pt x="256" y="1149" on="0"/>
        <pt x="230" y="1149" on="1"/>
        <pt x="203" y="1149" on="0"/>
        <pt x="155" y="1169" on="0"/>
        <pt x="120" y="1203" on="0"/>
        <pt x="100" y="1248" on="0"/>
      </contour>
    </TTGlyph>
    <TTGlyph name="s" xMin="40" yMin="-20" xMax="387" yMax="1038">
      <contour>
        <pt x="40" y="231" on="1"/>
        <pt x="115" y="231" on="1"/>
        <pt x="115" y="156" on="1"/>
        <pt x="115" y="110" on="0"/>
        <pt x="166" y="47" on="0"/>
        <pt x="214" y="47" on="1"/>
        <pt x="261" y="47" on="0"/>
        <pt x="312" y="110" on="0"/>
        <pt x="312" y="156" on="1"/>
        <pt x="312" y="282" on="1"/>
        <pt x="312" y="315" on="0"/>
        <pt x="291" y="372" on="0"/>
        <pt x="256" y="425" on="0"/>
        <pt x="211" y="473" on="0"/>
        <pt x="188" y="497" on="1"/>
        <pt x="160" y="525" on="0"/>
        <pt x="107" y="583" on="0"/>
        <pt x="65" y="648" on="0"/>
        <pt x="40" y="720" on="0"/>
        <pt x="40" y="762" on="1"/>
        <pt x="40" y="855" on="1"/>
        <pt x="40" y="895" on="0"/>
        <pt x="62" y="962" on="0"/>
        <pt x="106" y="1011" on="0"/>
        <pt x="171" y="1038" on="0"/>
        <pt x="214" y="1038" on="1"/>
        <pt x="256" y="1038" on="0"/>
        <pt x="321" y="1011" on="0"/>
        <pt x="365" y="962" on="0"/>
        <pt x="387" y="895" on="0"/>
        <pt x="387" y="855" on="1"/>
        <pt x="387" y="773" on="1"/>
        <pt x="312" y="773" on="1"/>
        <pt x="312" y="861" on="1"/>
        <pt x="312" y="907" on="0"/>
        <pt x="261" y="971" on="0"/>
        <pt x="214" y="971" on="1"/>
        <pt x="166" y="971" on="0"/>
        <pt x="115" y="907" on="0"/>
        <pt x="115" y="861" on="1"/>
        <pt x="115" y="762" on="1"/>
        <pt x="115" y="728" on="0"/>
        <pt x="137" y="669" on="0"/>
        <pt x="172" y="617" on="0"/>
        <pt x="217" y="568" on="0"/>
        <pt x="240" y="544" on="1"/>
        <pt x="268" y="515" on="0"/>
        <pt x="321" y="457" on="0"/>
        <pt x="362" y="393" on="0"/>
        <pt x="387" y="322" on="0"/>
        <pt x="387" y="282" on="1"/>
        <pt x="387" y="163" on="1"/>
        <pt x="387" y="124" on="0"/>
        <pt x="365" y="57" on="0"/>
        <pt x="321" y="8" on="0"/>
        <pt x="256" y="-20" on="0"/>
        <pt x="214" y="-20" on="1"/>
        <pt x="171" y="-20" on="0"/>
        <pt x="106" y="8" on="0"/>
        <pt x="62" y="57" on="0"/>
        <pt x="40" y="124" on="0"/>
        <pt x="40" y="163" on="1"/>
      </contour>
    </TTGlyph>
    <TTGlyph name="scaron" xMin="40" yMin="-20" xMax="387" yMax="1393">
      <component glyphName="s" x="0" y="0" flags="0x204"/>
      <component glyphName="caron" x="-47" y="0" flags="0x4"/>
    </TTGlyph>
    <TTGlyph name="scaron.001" xMin="40" yMin="-20" xMax="387" yMax="1393">
      <component glyphName="s" x="0" y="0" flags="0x204"/>
      <component glyphName="caron" x="-56" y="0" flags="0x4"/>
    </TTGlyph>
    <TTGlyph name="section" xMin="25" yMin="-465" xMax="468" yMax="1413">
      <contour>
        <pt x="393" y="205" on="1"/>
        <pt x="393" y="539" on="1"/>
        <pt x="393" y="574" on="0"/>
        <pt x="365" y="636" on="0"/>
        <pt x="318" y="694" on="0"/>
        <pt x="258" y="748" on="0"/>
        <pt x="227" y="774" on="1"/>
        <pt x="190" y="805" on="0"/>
        <pt x="117" y="869" on="0"/>
        <pt x="60" y="941" on="0"/>
        <pt x="25" y="1023" on="0"/>
        <pt x="25" y="1073" on="1"/>
        <pt x="25" y="1195" on="1"/>
        <pt x="25" y="1243" on="0"/>
        <pt x="60" y="1324" on="0"/>
        <pt x="120" y="1381" on="0"/>
        <pt x="201" y="1413" on="0"/>
        <pt x="246" y="1413" on="1"/>
        <pt x="294" y="1413" on="0"/>
        <pt x="375" y="1379" on="0"/>
        <pt x="435" y="1320" on="0"/>
        <pt x="468" y="1241" on="0"/>
        <pt x="468" y="1195" on="1"/>
        <pt x="468" y="990" on="1"/>
        <pt x="393" y="990" on="1"/>
        <pt x="393" y="1194" on="1"/>
        <pt x="393" y="1227" on="0"/>
        <pt x="371" y="1282" on="0"/>
        <pt x="333" y="1323" on="0"/>
        <pt x="279" y="1346" on="0"/>
        <pt x="248" y="1346" on="1"/>
        <pt x="214" y="1346" on="0"/>
        <pt x="159" y="1322" on="0"/>
        <pt x="121" y="1281" on="0"/>
        <pt x="100" y="1226" on="0"/>
        <pt x="100" y="1194" on="1"/>
        <pt x="100" y="1073" on="1"/>
        <pt x="100" y="1036" on="0"/>
        <pt x="130" y="971" on="0"/>
        <pt x="179" y="912" on="0"/>
        <pt x="241" y="858" on="0"/>
        <pt x="273" y="831" on="1"/>
        <pt x="309" y="801" on="0"/>
        <pt x="379" y="737" on="0"/>
        <pt x="434" y="665" on="0"/>
        <pt x="468" y="585" on="0"/>
        <pt x="468" y="539" on="1"/>
        <pt x="468" y="205" on="1"/>
      </contour>
      <contour>
        <pt x="100" y="668" on="1"/>
        <pt x="100" y="446" on="1"/>
        <pt x="100" y="409" on="0"/>
        <pt x="130" y="344" on="0"/>
        <pt x="179" y="285" on="0"/>
        <pt x="241" y="231" on="0"/>
        <pt x="273" y="204" on="1"/>
        <pt x="309" y="174" on="0"/>
        <pt x="379" y="110" on="0"/>
        <pt x="434" y="38" on="0"/>
        <pt x="468" y="-42" on="0"/>
        <pt x="468" y="-88" on="1"/>
        <pt x="468" y="-247" on="1"/>
        <pt x="468" y="-295" on="0"/>
        <pt x="433" y="-375" on="0"/>
        <pt x="373" y="-433" on="0"/>
        <pt x="292" y="-465" on="0"/>
        <pt x="246" y="-465" on="1"/>
        <pt x="198" y="-465" on="0"/>
        <pt x="117" y="-431" on="0"/>
        <pt x="58" y="-373" on="0"/>
        <pt x="25" y="-293" on="0"/>
        <pt x="25" y="-247" on="1"/>
        <pt x="25" y="-31" on="1"/>
        <pt x="100" y="-31" on="1"/>
        <pt x="100" y="-246" on="1"/>
        <pt x="100" y="-279" on="0"/>
        <pt x="122" y="-334" on="0"/>
        <pt x="160" y="-375" on="0"/>
        <pt x="213" y="-398" on="0"/>
        <pt x="245" y="-398" on="1"/>
        <pt x="279" y="-398" on="0"/>
        <pt x="333" y="-374" on="0"/>
        <pt x="372" y="-333" on="0"/>
        <pt x="393" y="-278" on="0"/>
        <pt x="393" y="-246" on="1"/>
        <pt x="393" y="-88" on="1"/>
        <pt x="393" y="-53" on="0"/>
        <pt x="365" y="9" on="0"/>
        <pt x="318" y="67" on="0"/>
        <pt x="258" y="121" on="0"/>
        <pt x="227" y="147" on="1"/>
        <pt x="190" y="178" on="0"/>
        <pt x="117" y="242" on="0"/>
        <pt x="60" y="314" on="0"/>
        <pt x="25" y="396" on="0"/>
        <pt x="25" y="446" on="1"/>
        <pt x="25" y="668" on="1"/>
      </contour>
    </TTGlyph>
    <TTGlyph name="semicolon" xMin="20" yMin="-173" xMax="153" yMax="1038">
      <contour>
        <pt x="56" y="992" on="1"/>
        <pt x="56" y="1010" on="0"/>
        <pt x="82" y="1038" on="0"/>
        <pt x="105" y="1038" on="1"/>
        <pt x="130" y="1038" on="0"/>
        <pt x="153" y="1010" on="0"/>
        <pt x="153" y="992" on="1"/>
        <pt x="153" y="975" on="0"/>
        <pt x="130" y="948" on="0"/>
        <pt x="105" y="948" on="1"/>
        <pt x="85" y="948" on="0"/>
        <pt x="56" y="975" on="0"/>
      </contour>
      <contour>
        <pt x="139" y="0" on="1"/>
        <pt x="136" y="-27" on="0"/>
        <pt x="127" y="-56" on="1"/>
        <pt x="119" y="-81" on="0"/>
        <pt x="93" y="-142" on="0"/>
        <pt x="71" y="-173" on="1"/>
        <pt x="20" y="-173" on="1"/>
        <pt x="20" y="-139" on="1"/>
        <pt x="29" y="-128" on="0"/>
        <pt x="48" y="-95" on="0"/>
        <pt x="63" y="-58" on="0"/>
        <pt x="73" y="-18" on="0"/>
        <pt x="74" y="0" on="1"/>
        <pt x="40" y="0" on="1"/>
        <pt x="40" y="92" on="1"/>
        <pt x="139" y="92" on="1"/>
      </contour>
    </TTGlyph>
    <TTGlyph name="seven" xMin="15" yMin="0" xMax="412" yMax="1393">
      <contour>
        <pt x="335" y="1326" on="1"/>
        <pt x="15" y="1326" on="1"/>
        <pt x="15" y="1393" on="1"/>
        <pt x="412" y="1393" on="1"/>
        <pt x="412" y="1340" on="1"/>
        <pt x="167" y="0" on="1"/>
        <pt x="92" y="0" on="1"/>
      </contour>
    </TTGlyph>
    <TTGlyph name="six" xMin="30" yMin="-20" xMax="426" yMax="1413">
      <contour>
        <pt x="105" y="814" on="1"/>
        <pt x="105" y="183" on="1"/>
        <pt x="105" y="121" on="0"/>
        <pt x="171" y="47" on="0"/>
        <pt x="228" y="47" on="1"/>
        <pt x="285" y="47" on="0"/>
        <pt x="351" y="121" on="0"/>
        <pt x="351" y="183" on="1"/>
        <pt x="351" y="677" on="1"/>
        <pt x="351" y="740" on="0"/>
        <pt x="285" y="814" on="0"/>
        <pt x="228" y="814" on="1"/>
      </contour>
      <contour>
        <pt x="426" y="1064" on="1"/>
        <pt x="351" y="1064" on="1"/>
        <pt x="351" y="1210" on="1"/>
        <pt x="351" y="1272" on="0"/>
        <pt x="285" y="1346" on="0"/>
        <pt x="228" y="1346" on="1"/>
        <pt x="171" y="1346" on="0"/>
        <pt x="105" y="1272" on="0"/>
        <pt x="105" y="1210" on="1"/>
        <pt x="105" y="881" on="1"/>
        <pt x="228" y="881" on="1"/>
        <pt x="273" y="881" on="0"/>
        <pt x="346" y="851" on="0"/>
        <pt x="398" y="797" on="0"/>
        <pt x="426" y="722" on="0"/>
        <pt x="426" y="677" on="1"/>
        <pt x="426" y="184" on="1"/>
        <pt x="426" y="139" on="0"/>
        <pt x="398" y="64" on="0"/>
        <pt x="346" y="10" on="0"/>
        <pt x="273" y="-20" on="0"/>
        <pt x="228" y="-20" on="1"/>
        <pt x="183" y="-20" on="0"/>
        <pt x="110" y="10" on="0"/>
        <pt x="58" y="64" on="0"/>
        <pt x="30" y="139" on="0"/>
        <pt x="30" y="184" on="1"/>
        <pt x="30" y="1209" on="1"/>
        <pt x="30" y="1254" on="0"/>
        <pt x="58" y="1329" on="0"/>
        <pt x="110" y="1383" on="0"/>
        <pt x="183" y="1413" on="0"/>
        <pt x="228" y="1413" on="1"/>
        <pt x="273" y="1413" on="0"/>
        <pt x="346" y="1383" on="0"/>
        <pt x="398" y="1329" on="0"/>
        <pt x="426" y="1254" on="0"/>
        <pt x="426" y="1209" on="1"/>
      </contour>
    </TTGlyph>
    <TTGlyph name="slash" xMin="-35" yMin="0" xMax="532" yMax="1393">
      <contour>
        <pt x="466" y="1393" on="1"/>
        <pt x="532" y="1393" on="1"/>
        <pt x="35" y="0" on="1"/>
        <pt x="-35" y="0" on="1"/>
      </contour>
    </TTGlyph>
    <TTGlyph name="space" xMin="0" yMin="0" xMax="0" yMax="0">
      <contour>
        <pt x="0" y="0" on="0"/>
      </contour>
    </TTGlyph>
    <TTGlyph name="sterling" xMin="30" yMin="0" xMax="445" yMax="1208">
      <contour>
        <pt x="30" y="68" on="1"/>
        <pt x="159" y="68" on="1"/>
        <pt x="159" y="625" on="1"/>
        <pt x="42" y="625" on="1"/>
        <pt x="42" y="692" on="1"/>
        <pt x="159" y="692" on="1"/>
        <pt x="159" y="920" on="1"/>
        <pt x="159" y="953" on="0"/>
        <pt x="162" y="1021" on="0"/>
        <pt x="178" y="1085" on="0"/>
        <pt x="212" y="1142" on="0"/>
        <pt x="276" y="1184" on="0"/>
        <pt x="374" y="1208" on="0"/>
        <pt x="445" y="1208" on="1"/>
        <pt x="445" y="1141" on="1"/>
        <pt x="396" y="1141" on="0"/>
        <pt x="318" y="1123" on="0"/>
        <pt x="263" y="1079" on="0"/>
        <pt x="234" y="1006" on="0"/>
        <pt x="234" y="951" on="1"/>
        <pt x="234" y="692" on="1"/>
        <pt x="406" y="692" on="1"/>
        <pt x="406" y="625" on="1"/>
        <pt x="234" y="625" on="1"/>
        <pt x="234" y="68" on="1"/>
        <pt x="443" y="68" on="1"/>
        <pt x="443" y="0" on="1"/>
        <pt x="30" y="0" on="1"/>
      </contour>
    </TTGlyph>
    <TTGlyph name="t" xMin="0" yMin="-20" xMax="295" yMax="1144">
      <contour>
        <pt x="83" y="951" on="1"/>
        <pt x="0" y="951" on="1"/>
        <pt x="0" y="1018" on="1"/>
        <pt x="83" y="1018" on="1"/>
        <pt x="83" y="1144" on="1"/>
        <pt x="158" y="1144" on="1"/>
        <pt x="158" y="1018" on="1"/>
        <pt x="295" y="1018" on="1"/>
        <pt x="295" y="951" on="1"/>
        <pt x="158" y="951" on="1"/>
        <pt x="158" y="157" on="1"/>
        <pt x="158" y="111" on="0"/>
        <pt x="208" y="48" on="0"/>
        <pt x="256" y="48" on="1"/>
        <pt x="289" y="48" on="1"/>
        <pt x="289" y="-20" on="1"/>
        <pt x="256" y="-20" on="1"/>
        <pt x="213" y="-20" on="0"/>
        <pt x="148" y="8" on="0"/>
        <pt x="105" y="57" on="0"/>
        <pt x="83" y="124" on="0"/>
        <pt x="83" y="163" on="1"/>
      </contour>
    </TTGlyph>
    <TTGlyph name="thorn" xMin="70" yMin="-443" xMax="417" yMax="1564">
      <contour>
        <pt x="70" y="1564" on="1"/>
        <pt x="145" y="1564" on="1"/>
        <pt x="145" y="995" on="1"/>
        <pt x="163" y="1005" on="0"/>
        <pt x="213" y="1018" on="0"/>
        <pt x="248" y="1018" on="1"/>
        <pt x="417" y="1018" on="1"/>
        <pt x="417" y="163" on="1"/>
        <pt x="417" y="124" on="0"/>
        <pt x="395" y="57" on="0"/>
        <pt x="351" y="8" on="0"/>
        <pt x="286" y="-20" on="0"/>
        <pt x="244" y="-20" on="1"/>
        <pt x="201" y="-20" on="0"/>
        <pt x="156" y="-4" on="0"/>
        <pt x="145" y="4" on="1"/>
        <pt x="145" y="-443" on="1"/>
        <pt x="70" y="-443" on="1"/>
      </contour>
      <contour>
        <pt x="145" y="156" on="1"/>
        <pt x="145" y="110" on="0"/>
        <pt x="196" y="47" on="0"/>
        <pt x="244" y="47" on="1"/>
        <pt x="291" y="47" on="0"/>
        <pt x="342" y="110" on="0"/>
        <pt x="342" y="156" on="1"/>
        <pt x="342" y="951" on="1"/>
        <pt x="244" y="951" on="1"/>
        <pt x="207" y="951" on="0"/>
        <pt x="167" y="926" on="0"/>
        <pt x="148" y="894" on="0"/>
        <pt x="145" y="862" on="0"/>
        <pt x="145" y="856" on="1"/>
      </contour>
    </TTGlyph>
    <TTGlyph name="three" xMin="50" yMin="-20" xMax="446" yMax="1413">
      <contour>
        <pt x="50" y="1209" on="1"/>
        <pt x="50" y="1254" on="0"/>
        <pt x="78" y="1329" on="0"/>
        <pt x="130" y="1383" on="0"/>
        <pt x="203" y="1413" on="0"/>
        <pt x="248" y="1413" on="1"/>
        <pt x="293" y="1413" on="0"/>
        <pt x="366" y="1383" on="0"/>
        <pt x="418" y="1329" on="0"/>
        <pt x="446" y="1254" on="0"/>
        <pt x="446" y="1209" on="1"/>
        <pt x="446" y="897" on="1"/>
        <pt x="446" y="867" on="0"/>
        <pt x="425" y="799" on="0"/>
        <pt x="390" y="770" on="1"/>
        <pt x="427" y="742" on="0"/>
        <pt x="446" y="670" on="0"/>
        <pt x="446" y="637" on="1"/>
        <pt x="446" y="184" on="1"/>
        <pt x="446" y="139" on="0"/>
        <pt x="418" y="64" on="0"/>
        <pt x="366" y="10" on="0"/>
        <pt x="293" y="-20" on="0"/>
        <pt x="248" y="-20" on="1"/>
        <pt x="203" y="-20" on="0"/>
        <pt x="130" y="10" on="0"/>
        <pt x="78" y="64" on="0"/>
        <pt x="50" y="139" on="0"/>
        <pt x="50" y="184" on="1"/>
        <pt x="50" y="543" on="1"/>
        <pt x="125" y="543" on="1"/>
        <pt x="125" y="183" on="1"/>
        <pt x="125" y="121" on="0"/>
        <pt x="191" y="47" on="0"/>
        <pt x="248" y="47" on="1"/>
        <pt x="305" y="47" on="0"/>
        <pt x="371" y="121" on="0"/>
        <pt x="371" y="183" on="1"/>
        <pt x="371" y="642" on="1"/>
        <pt x="371" y="652" on="0"/>
        <pt x="365" y="684" on="0"/>
        <pt x="345" y="714" on="0"/>
        <pt x="306" y="736" on="0"/>
        <pt x="273" y="736" on="1"/>
        <pt x="197" y="736" on="1"/>
        <pt x="197" y="803" on="1"/>
        <pt x="275" y="803" on="1"/>
        <pt x="308" y="803" on="0"/>
        <pt x="346" y="825" on="0"/>
        <pt x="366" y="856" on="0"/>
        <pt x="371" y="888" on="0"/>
        <pt x="371" y="897" on="1"/>
        <pt x="371" y="1210" on="1"/>
        <pt x="371" y="1272" on="0"/>
        <pt x="305" y="1346" on="0"/>
        <pt x="248" y="1346" on="1"/>
        <pt x="191" y="1346" on="0"/>
        <pt x="125" y="1272" on="0"/>
        <pt x="125" y="1210" on="1"/>
        <pt x="125" y="1024" on="1"/>
        <pt x="50" y="1024" on="1"/>
      </contour>
    </TTGlyph>
</ttFont>
